<svg width="72" height="72" viewBox="0 0 72 72" fill="none" xmlns="http://www.w3.org/2000/svg">
<path d="M57.4847 38.9218L50.0083 49.75C48.5645 51.6836 46.2441 52.8438 43.8207 52.8438H21.7348L20.394 39.2828L21.7348 38.0712C23.6941 36.3438 24.9832 35.1579 27.5098 34.5649C30.5261 33.8689 33.5254 34.7196 35.5105 36.5243C36.0262 36.9626 36.3355 37.3751 36.9801 37.3751H37.2894C43.2707 37.3751 37.8652 37.3751 43.8207 37.3751C45.2387 37.3751 46.3988 38.5353 46.3988 39.9532C46.3988 41.3712 45.2387 42.5314 43.8207 42.5314H38.5785C37.8565 42.5314 37.2894 43.0985 37.2894 43.8204C37.2894 44.5424 37.8565 45.1095 38.5785 45.1095H44.6716C45.1614 45.1095 46.0895 44.8001 46.5794 44.2845L53.5403 35.622C54.4168 34.6681 55.8863 34.5134 56.9434 35.2868C58.1034 36.1376 58.3355 37.7875 57.4847 38.9218Z" fill="#FEDBAB"/>
<path d="M37.2896 43.8203V37.375C43.2708 37.375 37.8653 37.375 43.8208 37.375C45.2388 37.375 46.3989 38.5352 46.3989 39.9531C46.3989 41.3711 45.2388 42.5312 43.8208 42.5312H38.5786C37.8567 42.5312 37.2896 43.0984 37.2896 43.8203Z" fill="#FEC478"/>
<path d="M57.4849 38.9218L50.0084 49.75C48.5646 51.6836 46.2442 52.8438 43.8208 52.8438H37.2896V43.8203C37.2896 44.5423 37.8567 45.1094 38.5786 45.1094H44.6717C45.1615 45.1094 46.0896 44.8 46.5795 44.2844L53.5404 35.6219C54.4169 34.668 55.8864 34.5133 56.9435 35.2867C58.1035 36.1376 58.3356 37.7874 57.4849 38.9218Z" fill="#FEC478"/>
<path d="M21.8708 57.2875L14.1364 41.8188C13.818 41.1818 14.076 40.4076 14.713 40.0891L17.563 38.6641C19.4727 37.7111 21.7978 38.4866 22.752 40.3937L28.1802 51.25C29.1362 53.1621 28.3626 55.483 26.4505 56.439L23.6005 57.864C22.9571 58.1836 22.1876 57.9192 21.8708 57.2875Z" fill="#17ACE8"/>
<path d="M37.2895 21.7344C33.0356 21.7344 29.4692 25.3007 29.4692 29.5547V30.9297C29.4692 31.6516 30.0363 32.2188 30.7583 32.2188H43.8208C44.5428 32.2188 45.1099 31.6516 45.1099 30.9297V29.5547C45.1099 25.3007 41.5435 21.7344 37.2895 21.7344Z" fill="#1689FC"/>
<path d="M45.1099 29.5547V30.9297C45.1099 31.6516 44.5428 32.2188 43.8208 32.2188H37.2896V21.7344C41.5435 21.7344 45.1099 25.3007 45.1099 29.5547Z" fill="#136EF1"/>
<path d="M37.2895 14C34.4537 14 32.0474 16.3204 32.0474 19.1562C32.0474 21.9921 34.4537 24.3125 37.2895 24.3125C40.1254 24.3125 42.5317 21.9921 42.5317 19.1562C42.5317 16.3204 40.1254 14 37.2895 14Z" fill="#17ACE8"/>
<path d="M42.5317 19.1562C42.5317 21.9921 40.1254 24.3125 37.2896 24.3125V14C40.1254 14 42.5317 16.3204 42.5317 19.1562Z" fill="#1689FC"/>
</svg>
