<svg width="72" height="72" viewBox="0 0 72 72" fill="none" xmlns="http://www.w3.org/2000/svg">
<path d="M57 57H16L22.088 42H50.912L57 57Z" fill="#A8EEFC"/>
<path d="M51.1381 42H49L54.8619 57H57L51.1381 42Z" fill="#7EE5F2"/>
<path d="M55 50.3733L53.5941 47.0387H36.947L31.067 42H28.6844H27.2797L25.1555 47.0387H19.4059L18 50.3733H23.7496L20.956 57H24.7434L29.4535 45.8274L42.8575 57H48.5715L40.8384 50.3733H55Z" fill="#FFDB56"/>
<path d="M52.5147 51H55L53.4852 47H51L52.5147 51Z" fill="#FFBB24"/>
<path d="M25.3794 47.4026H19.7437L21.8258 42.3622H27.4616L25.3794 47.4026Z" fill="#4CE166"/>
<path d="M53.2549 47.4026H36.9374L31.1738 42.3622H51.1728L53.2549 47.4026Z" fill="#4CE166"/>
<path d="M53 47L51.0823 42H49L50.9177 47H53Z" fill="#44C868"/>
<path d="M29.6805 46L25 57H43L29.6805 46Z" fill="#4CE166"/>
<path d="M36.5 16C29.5964 16 24 21.8215 24 29.0027C24 39.9382 36.5 50 36.5 50C36.5 50 49 39.9382 49 29.0026C49 21.8215 43.4035 16 36.5 16ZM36.5 34.1887C33.7466 34.1887 31.5144 31.8668 31.5144 29.0027C31.5144 26.1384 33.7466 23.8166 36.5 23.8166C39.2534 23.8166 41.4856 26.1385 41.4856 29.0027C41.4856 31.8668 39.2534 34.1887 36.5 34.1887Z" fill="#FF4A4A"/>
<path d="M36.125 16C35.7459 16 35.3709 16.0175 35 16.0499C41.5837 16.6257 46.75 22.2043 46.75 29.0026C46.75 37.9485 38.1354 46.3081 35 49.0546C35.6974 49.6655 36.125 50 36.125 50C36.125 50 49 39.9382 49 29.0025C49 21.8215 43.2356 16 36.125 16Z" fill="#E7343F"/>
<path d="M36.5 34C39.5327 34 42 31.5327 42 28.5C42 25.4673 39.5327 23 36.5 23C35.3811 23 34.304 23.3341 33.3855 23.9662C33.114 24.1531 33.0454 24.5247 33.2322 24.7962C33.4191 25.0677 33.7907 25.1363 34.0622 24.9495C34.7808 24.455 35.6237 24.1936 36.5 24.1936C38.8746 24.1936 40.8065 26.1254 40.8065 28.5C40.8065 30.8745 38.8746 32.8064 36.5 32.8064C34.1254 32.8064 32.1936 30.8745 32.1936 28.5C32.1936 27.7995 32.3563 27.1317 32.677 26.5153C32.8291 26.2229 32.7155 25.8625 32.4231 25.7105C32.1306 25.5584 31.7704 25.672 31.6182 25.9644C31.2138 26.7416 31 27.6184 31 28.5C31.0001 31.5327 33.4673 34 36.5 34Z" fill="black"/>
<path d="M57.9518 57.1241L51.7534 42.1191C51.656 41.8831 51.4273 41.7295 51.1737 41.7295H44.9969C46.1983 40.0919 47.1983 38.4609 47.9792 36.8594C49.3633 34.0212 50.065 31.2649 50.065 28.6669C50.0649 21.1309 43.9797 15 36.5 15C29.0202 15 22.9351 21.1309 22.9351 28.6669C22.9351 31.2648 23.6368 34.0212 25.0208 36.8593C25.8017 38.4608 26.8017 40.0919 28.0032 41.7294H21.8264C21.5728 41.7294 21.344 41.8831 21.2466 42.119L17.0229 52.3437C16.8896 52.6664 17.0411 53.0368 17.3613 53.171C17.4403 53.2041 17.5219 53.2198 17.6024 53.2198C17.8485 53.2198 18.082 53.0731 18.1824 52.83L18.7851 51.371H23.0604L20.8449 56.7344H16.5696L17.2119 55.1796C17.3451 54.857 17.1936 54.4866 16.8734 54.3524C16.553 54.2179 16.1855 54.3708 16.0523 54.6934L15.0482 57.1241C14.9675 57.3194 14.989 57.5425 15.1056 57.7183C15.222 57.8943 15.418 58 15.628 58H57.372C57.5819 58 57.778 57.8943 57.8945 57.7183C58.0109 57.5425 58.0324 57.3194 57.9518 57.1241ZM24.1911 28.6669C24.1911 21.8287 29.7129 16.2655 36.5 16.2655C43.2871 16.2655 48.8088 21.8288 48.8088 28.6669C48.8088 31.5343 47.8199 36.1165 43.2453 41.9558C43.2407 41.9613 43.2366 41.967 43.2322 41.9727C42.9985 42.2706 42.7558 42.5717 42.5031 42.8761C39.9893 45.9047 37.4454 48.1163 36.4999 48.9021C35.5572 48.119 33.0253 45.9185 30.5132 42.8957C30.2542 42.584 30.0058 42.2759 29.7667 41.971C29.7628 41.9661 29.7592 41.9611 29.7552 41.9563C25.1807 36.1174 24.1911 31.5354 24.1911 28.6669ZM22.2452 42.9949H26.5206L24.9612 46.7699H20.6859L22.2452 42.9949ZM25.9177 56.7345L29.8432 47.2319L41.0143 56.7345H25.9177ZM42.9613 56.7345L29.9982 45.7074C29.8451 45.5771 29.6395 45.5283 29.4452 45.5759C29.2507 45.6233 29.0901 45.7615 29.0133 45.9477L24.5573 56.7344H22.2054L24.5818 50.9813C24.6625 50.7861 24.641 50.5631 24.5245 50.3872C24.4081 50.2112 24.212 50.1055 24.002 50.1055H19.308L20.1632 48.0353H25.3801C25.6337 48.0353 25.8625 47.8815 25.9598 47.6457L27.8811 42.9948H28.971C29.1602 43.2325 29.3526 43.4703 29.55 43.708C32.7906 47.6074 35.9814 50.1108 36.1157 50.2156C36.2289 50.3038 36.3644 50.3478 36.5 50.3478C36.6355 50.3478 36.7712 50.3038 36.8843 50.2156C36.9581 50.158 37.9557 49.375 39.3764 48.0353H46.4883C46.8351 48.0353 47.1163 47.7521 47.1163 47.4026C47.1163 47.0531 46.8351 46.7699 46.4883 46.7699H40.6707C41.5415 45.8878 42.4932 44.8593 43.45 43.708C43.6475 43.4704 43.8399 43.2327 44.029 42.9949H50.7548L52.3141 46.7699H49.0003C48.6535 46.7699 48.3723 47.0531 48.3723 47.4026C48.3723 47.7521 48.6534 48.0353 49.0003 48.0353H52.8368L53.692 50.1056H40.7525C40.4903 50.1056 40.2559 50.2695 40.1641 50.5169C40.0724 50.7643 40.1428 51.0431 40.3408 51.2162L46.6508 56.7345H42.9613ZM48.567 56.7345L42.4341 51.3711H54.2148L56.4304 56.7345H48.567Z" fill="black"/>
</svg>
