<svg width="72" height="72" viewBox="0 0 72 72" fill="none" xmlns="http://www.w3.org/2000/svg">
<path d="M32.5 46C41.0604 46 48 39.2843 48 31C48 22.7157 41.0604 16 32.5 16C23.9396 16 17 22.7157 17 31C17 39.2843 23.9396 46 32.5 46Z" fill="#E5EFEF"/>
<path d="M50.6891 21.9469C49.414 21.9469 48.3765 20.9093 48.3765 19.6342C48.3765 18.3591 49.414 17.3216 50.6891 17.3216C51.9642 17.3216 53.0017 18.3591 53.0017 19.6342C53.0017 20.9093 51.964 21.9469 50.6891 21.9469ZM50.6891 18.6431C50.1425 18.6431 49.698 19.0876 49.698 19.6342C49.698 20.1808 50.1425 20.6254 50.6891 20.6254C51.2357 20.6254 51.6802 20.1808 51.6802 19.6342C51.6802 19.0876 51.2355 18.6431 50.6891 18.6431Z" fill="#4C241D"/>
<path d="M53.3316 28.3114C53.7448 28.3114 54.0798 27.9764 54.0798 27.5633C54.0798 27.1501 53.7448 26.8151 53.3316 26.8151C52.9184 26.8151 52.5835 27.1501 52.5835 27.5633C52.5835 27.9764 52.9184 28.3114 53.3316 28.3114Z" fill="#4C241D"/>
<path d="M17.4287 22.1695C17.2597 22.1695 17.0906 22.1049 16.9616 21.9759C16.7036 21.7179 16.7036 21.2996 16.9616 21.0416L19.389 18.6142C19.647 18.3561 20.0653 18.3561 20.3233 18.6142C20.5814 18.8722 20.5814 19.2905 20.3233 19.5485L17.8959 21.9759C17.7669 22.1049 17.5977 22.1695 17.4287 22.1695V22.1695Z" fill="#4C241D"/>
<path d="M19.8562 22.1696C19.6872 22.1696 19.518 22.105 19.389 21.976L16.9616 19.5484C16.7036 19.2903 16.7036 18.8721 16.9616 18.6141C17.2196 18.356 17.6379 18.356 17.8959 18.6141L20.3233 21.0417C20.5814 21.2997 20.5814 21.7179 20.3233 21.976C20.1943 22.105 20.0253 22.1696 19.8562 22.1696V22.1696Z" fill="#4C241D"/>
<path d="M42 26H26V21.7537C31.1403 19.2728 36.4962 19.5625 42 21.7537V26Z" fill="#FFCE56"/>
<path d="M42.3333 27H25.6667C25.2985 27 25 26.6992 25 26.3283V21.626C25 21.3734 25.1407 21.1422 25.3643 21.0275C30.6188 18.3309 36.2543 18.3244 42.5915 21.0068C42.8388 21.1114 43 21.3555 43 21.6262V26.3284C43 26.6992 42.7015 27 42.3333 27ZM26.3333 25.6565H41.6667V22.0761C36.0267 19.7863 31.0027 19.7748 26.3333 22.043V25.6565Z" fill="#4C241D"/>
<path d="M46 56H22V50.5163C22 48.0463 23.4223 45.808 25.6294 44.8048L34 41L42.3706 44.8048C44.5777 45.808 46 48.0463 46 50.5163V56Z" fill="#C1DBDC"/>
<path d="M46.3333 57H21.6667C21.2985 57 21 56.7076 21 56.3469V50.9752C21 48.2998 22.6202 45.8695 25.1273 44.7833L33.7305 41.056C33.9017 40.9813 34.0983 40.9813 34.2695 41.056L42.8727 44.7833C45.3798 45.8693 47 48.2998 47 50.9752V56.3469C47 56.7076 46.7015 57 46.3333 57V57ZM22.3333 55.6939H45.6667V50.9752C45.6667 48.8164 44.3583 46.8548 42.3337 45.9779L34 42.3673L25.6663 45.9779C23.6417 46.8548 22.3333 48.8166 22.3333 50.9752V55.6939Z" fill="#4C241D"/>
<path d="M34 32C41.732 32 48 30.433 48 28.5C48 26.567 41.732 25 34 25C26.268 25 20 26.567 20 28.5C20 30.433 26.268 32 34 32Z" fill="#FFCE56"/>
<path d="M34 32C28.8118 32 19 31.164 19 28C19 24.836 28.8118 24 34 24C39.1882 24 49 24.836 49 28C49 31.164 39.188 32 34 32ZM34 25.3333C25.1572 25.3333 20.3333 27.095 20.3333 28C20.3333 28.905 25.1572 30.6667 34 30.6667C42.8428 30.6667 47.6667 28.905 47.6667 28C47.6667 27.095 42.8427 25.3333 34 25.3333Z" fill="#4C241D"/>
<path d="M34 48C32.3432 48 31 46.7602 31 45.2308V40H37V45.2308C37 46.7602 35.6568 48 34 48Z" fill="#E7D1C4"/>
<path d="M34.5 49C32.5701 49 31 47.3552 31 45.3333V39.6667C31 39.2985 31.2849 39 31.6364 39H37.3636C37.7151 39 38 39.2985 38 39.6667V45.3333C38 47.3552 36.4298 49 34.5 49ZM32.2727 40.3333V45.3333C32.2727 46.6198 33.272 47.6667 34.5 47.6667C35.728 47.6667 36.7273 46.6198 36.7273 45.3333V40.3333H32.2727Z" fill="#4C241D"/>
<path d="M42.3336 31.7774C42.2846 31.7774 42.2776 31.2963 42.2856 30.7467C42.2994 29.7944 41.6501 28.9474 40.7079 28.7192C36.1007 27.6033 31.1536 27.8117 26.6633 29.1653C26.0748 29.3426 25.6886 29.897 25.7059 30.5011C25.7234 31.1139 25.7281 31.7773 25.6666 31.7773C24.7259 31.7773 23.9673 32.5422 24.0011 33.4729C24.0201 33.9962 24.3479 34.4691 24.7901 34.7619C25.3263 35.1171 25.7868 35.0919 26.1953 34.9569C26.8566 38.1238 29.199 40.7722 32.4331 41.7939C33.3603 42.0869 34.3633 42.059 35.29 41.7642L35.5858 41.6701C38.768 40.6578 41.0897 38.0648 41.7814 34.9501C42.1882 35.0909 42.6517 35.1156 43.1766 34.7947C43.6014 34.5349 43.9257 34.1086 43.9869 33.6211C44.1121 32.6248 43.3236 31.7774 42.3336 31.7774V31.7774Z" fill="#E7D1C4"/>
<path d="M34.2955 43C33.7716 43 33.254 42.9169 32.7571 42.7502C29.6069 41.693 27.1897 39.0371 26.322 35.7322C25.892 35.7427 25.4731 35.6006 25.0672 35.3152C24.4251 34.8632 24.0267 34.1569 24.0015 33.425C23.9793 32.768 24.2075 32.1468 24.6443 31.6753C24.9368 31.3596 25.2964 31.1388 25.6908 31.0274C25.6908 30.8599 25.6882 30.6296 25.68 30.3129C25.6544 29.3674 26.2327 28.5163 27.0857 28.2434C31.69 26.7695 36.7241 26.5998 41.2605 27.7671C42.4865 28.0821 43.3305 29.2308 43.3126 30.56C43.3096 30.7548 43.3093 30.9083 43.31 31.0289C43.7368 31.1508 44.1255 31.4 44.4244 31.7522C44.8602 32.2656 45.0635 32.9529 44.9826 33.6383C44.9015 34.3223 44.4897 34.967 43.8806 35.3624C43.4839 35.6199 43.0744 35.7475 42.6463 35.7304C41.7536 38.9678 39.3563 41.5747 36.2639 42.6197L35.972 42.7182C35.4167 42.9058 34.8523 43 34.2955 43V43ZM26.8173 34.2677C26.931 34.2677 27.0439 34.2985 27.1444 34.3589C27.3075 34.4564 27.4222 34.6224 27.4601 34.8145C28.0734 37.9322 30.2572 40.4741 33.159 41.4479C33.9085 41.6992 34.7644 41.688 35.5675 41.4168L35.8593 41.3183C38.7106 40.355 40.8794 37.8568 41.5189 34.7987C41.5589 34.607 41.6762 34.4423 41.8406 34.3467C42.0053 34.2508 42.2014 34.2342 42.3782 34.2994C42.6758 34.4093 42.9101 34.381 43.1867 34.2012C43.4624 34.0222 43.6469 33.7493 43.6796 33.4714C43.7152 33.1704 43.6305 32.8819 43.4412 32.6584C43.254 32.438 42.9853 32.3118 42.7032 32.3118C42.5277 32.3118 42.3526 32.235 42.2293 32.1047C42.0142 31.8769 41.9842 31.6726 41.9999 30.5403C42.0093 29.8517 41.576 29.2571 40.946 29.0952C36.636 27.987 31.8516 28.1493 27.4706 29.5514C27.1797 29.6446 26.9825 29.9418 26.9915 30.2748C27.0291 31.6909 26.9871 31.8733 26.775 32.1008C26.6513 32.2333 26.4741 32.3118 26.2969 32.3118C26.0273 32.3118 25.7758 32.4229 25.5885 32.6254C25.4013 32.8275 25.3036 33.094 25.3132 33.3763C25.3232 33.6675 25.5102 33.9762 25.8013 34.1812C26.121 34.4059 26.3556 34.3926 26.6081 34.3035C26.6764 34.2794 26.7469 34.2677 26.8173 34.2677V34.2677ZM43.325 31.4497H43.3318H43.325Z" fill="#4C241D"/>
<path d="M37.5 35C37.7761 35 38 34.7761 38 34.5C38 34.2239 37.7761 34 37.5 34C37.2239 34 37 34.2239 37 34.5C37 34.7761 37.2239 35 37.5 35Z" fill="#4C241D"/>
<path d="M31 35C31.5523 35 32 34.7761 32 34.5C32 34.2239 31.5523 34 31 34C30.4477 34 30 34.2239 30 34.5C30 34.7761 30.4477 35 31 35Z" fill="#4C241D"/>
<path d="M51.5 57C51.2239 57 51 56.6947 51 56.3182V42.6818C51 42.3053 51.2239 42 51.5 42C51.7761 42 52 42.3053 52 42.6818V56.3182C52 56.6947 51.7761 57 51.5 57Z" fill="#4C241D"/>
<path d="M54.249 38.9987C53.4217 40.1017 52.002 39.9974 52.002 39.9974C52.002 39.9974 51.9237 38.1044 52.751 37.0013C53.5783 35.8983 54.998 36.0026 54.998 36.0026C54.998 36.0026 55.0763 37.8956 54.249 38.9987Z" fill="#FFCE56"/>
<path d="M51.8035 41C51.7156 41 51.6612 40.9973 51.6489 40.9966C51.3007 40.9772 51.0227 40.6993 51.0034 40.3511C50.9988 40.2687 50.9055 38.3137 52.1094 37.1099C53.3133 35.9061 55.2694 35.9983 55.3511 36.0036C55.6993 36.0229 55.9773 36.3009 55.9966 36.649C56.0012 36.7315 56.0945 38.6865 54.8903 39.8906C53.867 40.9138 52.3013 41 51.8035 41V41ZM54.5849 37.4152C54.1117 37.485 53.497 37.6575 53.077 38.0775C52.6574 38.4971 52.4849 39.1119 52.4151 39.5849C52.888 39.5151 53.5027 39.3427 53.9226 38.9231C54.3426 38.5031 54.5146 37.8883 54.5849 37.4152V37.4152Z" fill="#4C241D"/>
<path d="M53 35.5C53 36.8808 51.5 38 51.5 38C51.5 38 50 36.8808 50 35.5C50 34.1192 51.5 33 51.5 33C51.5 33 53 34.1192 53 35.5Z" fill="#FFCE56"/>
<path d="M51.9998 39C51.8337 39 51.6679 38.9463 51.5356 38.8389C51.4728 38.7877 50 37.5722 50 35.9999C50 34.4276 51.4728 33.2124 51.5356 33.161C51.8001 32.9463 52.1996 32.9463 52.464 33.161C52.5268 33.2119 54 34.4276 54 35.9999C54 37.5722 52.5268 38.7878 52.464 38.8389C52.3318 38.9464 52.166 39 51.9998 39V39ZM51.9998 34.5832C51.71 34.9377 51.3919 35.4518 51.3919 36.0001C51.3919 36.5484 51.71 37.0621 51.9998 37.417C52.2897 37.0625 52.6081 36.5484 52.6081 36.0001C52.6081 35.4518 52.29 34.9382 51.9998 34.5832Z" fill="#4C241D"/>
<path d="M54.249 41.9987C53.4217 43.1017 52.002 42.9974 52.002 42.9974C52.002 42.9974 51.9237 41.1044 52.751 40.0013C53.5783 38.8983 54.998 39.0026 54.998 39.0026C54.998 39.0026 55.0763 40.8956 54.249 41.9987Z" fill="#FFCE56"/>
<path d="M51.8035 44C51.7156 44 51.6612 43.9973 51.6489 43.9966C51.3007 43.9772 51.0227 43.6992 51.0034 43.3511C50.9988 43.2686 50.9055 41.3135 52.1094 40.1095C53.3133 38.9056 55.2694 38.9992 55.3511 39.0031C55.6993 39.0225 55.9773 39.3005 55.9966 39.6486C56.0012 39.7311 56.0945 41.6863 54.8903 42.8905C53.867 43.9138 52.3013 44 51.8035 44V44ZM54.5849 40.4149C54.1117 40.4847 53.497 40.6572 53.077 41.0772C52.6574 41.4969 52.4849 42.1117 52.4151 42.5848C52.888 42.515 53.5027 42.3425 53.9226 41.9229C54.3426 41.5029 54.5146 40.8881 54.5849 40.4149V40.4149Z" fill="#4C241D"/>
<path d="M54.249 45.249C53.4217 46.0763 52.002 45.998 52.002 45.998C52.002 45.998 51.9237 44.5783 52.751 43.751C53.5783 42.9237 54.998 43.002 54.998 43.002C54.998 43.002 55.0763 44.4217 54.249 45.249Z" fill="#FFCE56"/>
<path d="M51.8035 47C51.7156 47 51.6612 46.9973 51.6489 46.9966C51.3007 46.9772 51.0227 46.6992 51.0034 46.3511C50.9988 46.2686 50.9055 44.3135 52.1094 43.1092C53.3143 41.905 55.2709 41.9992 55.3511 42.0032C55.6993 42.0225 55.9773 42.3005 55.9966 42.6487C56.0012 42.7311 56.0945 44.6863 54.8903 45.8905C53.867 46.9138 52.3013 47 51.8035 47V47ZM54.5849 43.415C54.1117 43.4848 53.497 43.6572 53.077 44.0769C52.6587 44.4955 52.4863 45.1114 52.4158 45.5848C52.8887 45.5147 53.503 45.3425 53.9228 44.9229C54.3426 44.503 54.5146 43.8882 54.5849 43.415Z" fill="#4C241D"/>
<path d="M54.249 48.249C53.4217 49.0763 52.002 48.998 52.002 48.998C52.002 48.998 51.9237 47.5783 52.751 46.751C53.5783 45.9237 54.998 46.002 54.998 46.002C54.998 46.002 55.0763 47.4217 54.249 48.249Z" fill="#FFCE56"/>
<path d="M51.8035 50C51.7156 50 51.6612 49.9973 51.6489 49.9966C51.3007 49.9772 51.0227 49.6992 51.0034 49.3511C50.9988 49.2686 50.9055 47.3134 52.1094 46.1091C53.3143 44.9049 55.2709 44.9995 55.3511 45.0031C55.6993 45.0224 55.9773 45.3004 55.9966 45.6486C56.0012 45.731 56.0945 47.6862 54.8903 48.8902C53.867 49.9138 52.3013 50 51.8035 50V50ZM54.5839 46.4149C54.111 46.485 53.4967 46.6571 53.0768 47.0768C52.6586 47.4955 52.4861 48.1114 52.416 48.5844C52.8885 48.5146 53.503 48.3422 53.9226 47.9225C54.3413 47.5038 54.5137 46.8883 54.5839 46.4149Z" fill="#4C241D"/>
<path d="M49.0013 38.9987C50.1044 40.1017 51.9974 39.9974 51.9974 39.9974C51.9974 39.9974 52.1017 38.1044 50.9987 37.0013C49.8956 35.8983 48.0026 36.0026 48.0026 36.0026C48.0026 36.0026 47.8983 37.8956 49.0013 38.9987Z" fill="#FFCE56"/>
<path d="M51.2056 40C50.707 40 49.1367 39.914 48.1115 38.8884C46.9056 37.682 46.9987 35.7223 47.0034 35.6392C47.0225 35.296 47.2965 35.022 47.6396 35.0029C47.7236 34.9995 49.6827 34.9061 50.8885 36.1112C52.0944 37.3172 52.0013 39.2772 51.9966 39.3604C51.9775 39.7035 51.7035 39.9776 51.3604 39.9966C51.3478 39.9973 51.2931 40 51.2056 40ZM49.0652 37.9344C49.4937 38.3629 50.126 38.5361 50.6065 38.6056C50.5377 38.1257 50.3641 37.4946 49.9348 37.0648C49.5063 36.6363 48.874 36.4631 48.3935 36.3936C48.4626 36.8736 48.6358 37.5047 49.0652 37.9344Z" fill="#4C241D"/>
<path d="M49.0013 41.9987C50.1044 43.1017 51.9974 42.9974 51.9974 42.9974C51.9974 42.9974 52.1017 41.1044 50.9987 40.0013C49.8956 38.8983 48.0026 39.0026 48.0026 39.0026C48.0026 39.0026 47.8983 40.8956 49.0013 41.9987Z" fill="#FFCE56"/>
<path d="M51.2049 43C50.7053 43 49.1364 42.9309 48.1115 42.111C46.9056 41.1458 46.9987 39.5781 47.0034 39.5116C47.0225 39.237 47.2965 39.0178 47.6396 39.0026C47.7236 38.9992 49.6827 38.9249 50.8885 39.8892C52.0944 40.854 52.0013 42.4218 51.9966 42.4883C51.9775 42.7628 51.7035 42.9821 51.3604 42.9973C51.3478 42.9978 51.2931 43 51.2049 43ZM49.0652 41.3479C49.495 41.6918 50.1267 41.8304 50.6065 41.8854C50.5377 41.5015 50.3644 40.9961 49.9348 40.6522C49.5063 40.3094 48.874 40.1709 48.3935 40.1153C48.4626 40.4992 48.6358 41.004 49.0652 41.3479V41.3479Z" fill="#4C241D"/>
<path d="M49.0013 44.9987C50.1044 46.1017 51.9974 45.9974 51.9974 45.9974C51.9974 45.9974 52.1017 44.1044 50.9987 43.0013C49.8956 41.8983 48.0026 42.0026 48.0026 42.0026C48.0026 42.0026 47.8983 43.8956 49.0013 44.9987Z" fill="#FFCE56"/>
<path d="M51.2049 47C50.7057 47 49.1364 46.9137 48.1115 45.8884C46.9056 44.6823 46.9987 42.7226 47.0034 42.6394C47.0225 42.2962 47.2965 42.0222 47.6396 42.0032C47.7222 41.9993 49.682 41.905 50.8885 43.1114C52.0944 44.3175 52.0013 46.2772 51.9966 46.3604C51.9775 46.7035 51.7035 46.9776 51.3604 46.9966C51.3478 46.9975 51.2931 47 51.2049 47ZM48.3935 43.3941C48.4626 43.8737 48.6359 44.5047 49.0652 44.9345C49.4937 45.3631 50.126 45.5366 50.6065 45.6057C50.5377 45.1261 50.3641 44.4951 49.9348 44.0652C49.5063 43.6369 48.874 43.4632 48.3935 43.3941Z" fill="#4C241D"/>
<path d="M49.0013 48.249C50.1044 49.0763 51.9974 48.998 51.9974 48.998C51.9974 48.998 52.1017 47.5783 50.9987 46.751C49.8956 45.9237 48.0026 46.002 48.0026 46.002C48.0026 46.002 47.8983 47.4217 49.0013 48.249Z" fill="#FFCE56"/>
<path d="M51.2049 50C50.7057 50 49.1364 49.9137 48.1115 48.8884C46.9056 47.6823 46.9987 45.7227 47.0034 45.6395C47.0225 45.2964 47.2965 45.0223 47.6396 45.0033C47.7222 44.9991 49.682 44.9048 50.8885 46.1115C52.0944 47.3176 52.0013 49.2772 51.9966 49.3604C51.9775 49.7035 51.7035 49.9776 51.3604 49.9966C51.3478 49.9975 51.2931 50 51.2049 50ZM48.3935 46.3943C48.4626 46.8739 48.6359 47.5049 49.0652 47.9348C49.4937 48.3633 50.126 48.5368 50.6065 48.6059C50.5377 48.1263 50.3641 47.4953 49.9348 47.0655C49.5063 46.637 48.874 46.4635 48.3935 46.3943Z" fill="#4C241D"/>
<path d="M41.5 57C41.2239 57 41 56.6936 41 56.3158V44.6842C41 44.3064 41.2239 44 41.5 44C41.7761 44 42 44.3064 42 44.6842V56.3158C42 56.6936 41.7761 57 41.5 57Z" fill="#4C241D"/>
<path d="M26.5 57C26.2239 57 26 56.6936 26 56.3158V44.6842C26 44.3064 26.2239 44 26.5 44C26.7761 44 27 44.3064 27 44.6842V56.3158C27 56.6936 26.7761 57 26.5 57Z" fill="#4C241D"/>
<path d="M27 52H42V56H27V52Z" fill="#A9BA5A"/>
<path d="M41.36 57H26.64C26.2866 57 26 56.7015 26 56.3333V51.6667C26 51.2985 26.2866 51 26.64 51H41.36C41.7134 51 42 51.2985 42 51.6667V56.3333C42 56.7015 41.7134 57 41.36 57ZM27.28 55.6667H40.72V52.3333H27.28V55.6667Z" fill="#4C241D"/>
<path d="M19.5 43C17.5703 43 16 41.4297 16 39.5V36.7C16 36.3134 16.3134 36 16.7 36C17.0866 36 17.4 36.3134 17.4 36.7V39.5C17.4 40.658 18.342 41.6 19.5 41.6C20.658 41.6 21.6 40.658 21.6 39.5V36.7C21.6 36.3134 21.9134 36 22.3 36C22.6866 36 23 36.3134 23 36.7V39.5C23 41.4297 21.4297 43 19.5 43V43Z" fill="#4C241D"/>
<path d="M19.5 57C19.2239 57 19 56.7064 19 56.3443V37.6557C19 37.2936 19.2239 37 19.5 37C19.7761 37 20 37.2936 20 37.6557V56.3443C20 56.7064 19.776 57 19.5 57Z" fill="#4C241D"/>
<path d="M30 28.6953C31.4191 30.1443 36.9472 33.7787 41.9998 30.9546C41.9998 30.3898 41.9957 30.6331 41.9998 30.3898C42.0135 29.5836 41.3605 28.7967 40.4854 28.6032C37.8486 28.0202 31.8947 27.5656 30 28.6953Z" fill="#BF7E68"/>
<path d="M38.0568 33C33.8172 33 30.1578 30.028 29.165 28.908C29.0387 28.7656 28.9805 28.5757 29.0058 28.3877C29.0308 28.1994 29.137 28.0313 29.2968 27.9261C31.6891 26.3514 38.4705 27.1351 40.8946 27.7273C42.1139 28.0252 43.0189 29.2 42.9997 30.4603L42.998 30.6317L42.9997 31.109C42.9997 31.3361 42.8812 31.547 42.6862 31.6677C41.1326 32.6273 39.5581 33 38.0568 33V33ZM30.8331 28.6781C32.7087 30.2886 37.3333 33.1406 41.6652 30.735L41.6649 30.6466L41.6666 30.4407C41.6764 29.7991 41.1864 29.1557 40.5744 29.0062C37.8696 28.3453 33.0954 28.014 30.8331 28.6781V28.6781Z" fill="#4C241D"/>
<path d="M26.0114 31C27.5096 30.6042 28.9997 29.1618 30 28C28.9334 28.1927 27.8801 28.4428 26.8523 28.7586C26.3269 28.9201 25.984 29.4236 26.0006 29.9718C26.0114 30.3344 26.0188 30.728 26.0114 31V31Z" fill="#BF7E68"/>
<path d="M25.7543 32C25.5891 32 25.4265 31.9432 25.2942 31.8361C25.1111 31.6873 25.0067 31.4592 25.0132 31.2198C25.0212 30.9155 25.0128 30.4755 25.001 30.07C24.9724 29.0856 25.5828 28.1988 26.4857 27.9139C27.638 27.5503 28.8627 27.2467 30.1263 27.0123C30.4305 26.9548 30.7454 27.1025 30.9018 27.3822C31.0579 27.6612 31.0256 28.0111 30.821 28.2549C29.6351 29.6699 27.8267 31.4639 25.9441 31.9747C25.8812 31.9918 25.8176 32 25.7543 32V32ZM27.9596 29.0616C27.6078 29.1578 27.2612 29.2594 26.922 29.3663C26.6549 29.4509 26.4742 29.7218 26.4829 30.0249C26.484 30.0569 26.4847 30.0888 26.4859 30.1211C26.9531 29.864 27.4484 29.5079 27.9596 29.0616Z" fill="#4C241D"/>
</svg>
