<svg width="72" height="72" viewBox="0 0 72 72" fill="none" xmlns="http://www.w3.org/2000/svg">
<path d="M44.1797 19.1562H28.7109C27.9892 19.1562 27.4219 19.7232 27.4219 20.4453V36C27.4219 36.7218 27.9892 37.2891 28.7109 37.2891H44.1797C44.9018 37.2891 45.4688 36.7218 45.4688 36V20.4453C45.4688 19.7232 44.9018 19.1562 44.1797 19.1562Z" fill="#E63950"/>
<path d="M55.2658 36.5928L49.3361 47.9108C47.7634 50.9015 44.6955 52.7578 41.3443 52.7578H30.5416L25.6432 57.6392C25.3854 57.8711 25.0504 58 24.7409 58C24.4058 58 24.0708 57.8711 23.8127 57.6392L17.3673 51.2106C16.8776 50.6953 16.8776 49.8702 17.3673 49.3804L24.9987 41.7491C26.2105 40.5376 27.8346 39.8672 29.5621 39.8672H42.9684C43.3551 39.8672 43.716 40.0733 43.9224 40.4087C44.1285 40.7437 44.1285 41.1563 43.9479 41.5171C43.3806 42.6259 42.7105 43.915 42.4786 44.3272C42.2463 44.7656 41.8082 45.0235 41.3443 45.0235H32.5783C31.8566 45.0235 31.2892 45.5908 31.2892 46.3125C31.2892 47.0343 31.8566 47.6016 32.5783 47.6016H41.3443C42.7878 47.6016 44.0768 46.8023 44.7472 45.5391L48.7175 37.985C49.7746 35.9742 51.8629 34.7109 54.1315 34.7109C54.5699 34.7109 54.9825 34.9429 55.2145 35.3296C55.4723 35.7163 55.4723 36.2061 55.2658 36.5928V36.5928Z" fill="#FFA78F"/>
<path d="M41.3441 45.0235H36.4453V39.8672H42.9682C43.3549 39.8672 43.7158 40.0734 43.9222 40.4087C44.1283 40.7437 44.1283 41.1563 43.9477 41.5172C43.3804 42.626 42.7104 43.915 42.4784 44.3273C42.2461 44.7657 41.808 45.0235 41.3441 45.0235V45.0235Z" fill="#F89580"/>
<path d="M55.2657 36.5928L49.336 47.9108C47.7632 50.9015 44.6953 52.7578 41.3441 52.7578H36.4453V47.6016H41.3441C42.7876 47.6016 44.0766 46.8023 44.747 45.5391L48.7173 37.985C49.7744 35.9742 51.8627 34.7109 54.1314 34.7109C54.5698 34.7109 54.9823 34.9429 55.2143 35.3296C55.4721 35.7163 55.4721 36.2061 55.2657 36.5928V36.5928Z" fill="#F89580"/>
<path d="M45.4688 20.4453V36C45.4688 36.7218 44.9018 37.2891 44.1797 37.2891H36.4453V19.1562H44.1797C44.9018 19.1562 45.4688 19.7232 45.4688 20.4453Z" fill="#CC2E43"/>
<path d="M40.3125 17.8672V23.0235C40.3125 23.7452 39.7455 24.3125 39.0235 24.3125C38.3017 24.3125 37.7344 23.7452 37.7344 23.0235V17.8672C37.7344 17.1451 37.1674 16.5781 36.4453 16.5781C35.7236 16.5781 35.1563 17.1451 35.1563 17.8672V23.0235C35.1563 23.7452 34.5893 24.3125 33.8672 24.3125C33.1454 24.3125 32.5781 23.7452 32.5781 23.0235V17.8672C32.5781 15.7271 34.3056 14 36.4453 14C38.5854 14 40.3125 15.7271 40.3125 17.8672Z" fill="#697C86"/>
<path d="M36.4453 16.5781V14C38.5854 14 40.3125 15.7271 40.3125 17.8672V23.0235C40.3125 23.7452 39.7455 24.3125 39.0235 24.3125C38.3017 24.3125 37.7344 23.7452 37.7344 23.0235V17.8672C37.7344 17.1451 37.1674 16.5781 36.4453 16.5781Z" fill="#465A61"/>
</svg>
