<svg xmlns="http://www.w3.org/2000/svg" viewBox="0 0 2398.31 1865.22"><defs><style>.cls-1{isolation:isolate;}.cls-2{fill:#6ea7ce;}.cls-3{fill:#45ad92;}.cls-4{fill:#184655;}.cls-5{fill:#50bfa5;}.cls-6{fill:#96d9c9;}.cls-7{fill:#3c8f7c;}.cls-8{fill:#86b1f2;}.cls-9{fill:#fffbe3;}.cls-10{fill:#9e4233;}.cls-11{fill:#b75742;}.cls-12,.cls-16,.cls-17{fill:#eab054;}.cls-13{fill:#082026;}.cls-14,.cls-18{fill:#f7cc7f;}.cls-15,.cls-17{opacity:0.6;}.cls-15,.cls-16,.cls-17{mix-blend-mode:multiply;}.cls-18,.cls-30,.cls-32{opacity:0.5;}.cls-19{fill:#eb753b;}.cls-20{fill:#ee944c;}.cls-21{fill:#f9a653;}.cls-22{fill:#c5d0e2;}.cls-23{fill:#e9eef6;}.cls-24{fill:#f47458;}.cls-25{fill:#f7a491;}.cls-26{fill:#355389;}.cls-27,.cls-30,.cls-31{fill:#fff;}.cls-28{fill:#933b2c;}.cls-29{fill:#206654;}.cls-31{opacity:0.3;}</style></defs><g class="cls-1"><g id="Layer_1" data-name="Layer 1"><path class="cls-2" d="M2355.71,764.93c-64-34.53-.05-294.66-223.23-382.79C1936.65,304.8,1777.4,391,1741.76,232.78c-67.35-298.95-824.38-115.62-1001-35.56C166.38,457.6,197.63,1017,197.63,1102.18v478.1l2222.44,18c25.34,0,80.51-70.65,105-215.92l-7.82-325.28c0-60.18-14.63-119.6-43.56-172.37C2446.26,834.79,2407.9,793.1,2355.71,764.93Z" transform="translate(-197.21 -67.92)"/><path class="cls-3" d="M2085.73,1090.38c-190.82,31.75-448.62,241.35-692.86,363.71v91.54L2517.21,1549V1369C2410.42,1229.25,2246.75,1063.59,2085.73,1090.38Z" transform="translate(-197.21 -67.92)"/><path class="cls-4" d="M1928.22,981.55c.11-3.47,4.9-6.17,7.44-3.09s2.42,1,4.89,7.64a216,216,0,0,0,29.62,53.61c23.22,30.87,46.2,46.44,72.3,61.88-10.75-24.23-18-50.1-18.87-76.19-.34-9.51-.15-19.37,3.91-28.09,1.14-2.44,5.5-1.94,6,.78,2.19,13.46-1,23.61,3.32,47.71,10.4,57.49,51.55,118.47,91.25,161.18-7.61-72.3-11.3-154.46,2.31-227.38,2.24-12,5.79-23.33,9.09-35,.77-2.75,4.68-1.57,4.2,1.16-.69,3.89-7.17,54.07-7.57,57.53-6.29,55.53-5,117-.13,173.15,30.79-41.7,51.4-90.47,61-141.41,2.85-15,3.61-30.6,7.61-45.37.55-2,3.91-2.26,4.33,0,4.1,22.14-4.11,61.3-10.1,82.57a339.78,339.78,0,0,1-58.08,116.31c-1,1.34,42.62,338.75,41.44,343-2,7.2-14.53,12.26-16.48-.52-.79-5.21-24.77-210.37-35.6-305.4-4.08-2.26-6.71-6.27-17.23-18.09-24.35-27.37-48.43-61.42-64.52-93.54-9.65-.54-79.38-34.47-114-111.73-1-2.22-5.49-12.68-6.13-15C1927.69,985.26,1928.16,983.53,1928.22,981.55Z" transform="translate(-197.21 -67.92)"/><path class="cls-5" d="M2152.16,872.15q-1.18-15.57-1.21-31.81c0-120.52,51.15-218.21,114.25-218.21s114.25,97.69,114.25,218.21q0,16.21-1.21,31.81Z" transform="translate(-197.21 -67.92)"/><path class="cls-6" d="M2022.86,818.52c-.79-14.64-1.21-29.62-1.21-44.86,0-170,51.16-307.74,114.25-307.74s114.25,137.78,114.25,307.74c0,15.24-.41,30.22-1.2,44.86Z" transform="translate(-197.21 -67.92)"/><path class="cls-6" d="M2064.69,1007.1q1.2-15.57,1.21-31.81c0-120.52-51.15-218.22-114.25-218.22s-114.25,97.7-114.25,218.22q0,16.22,1.21,31.81Z" transform="translate(-197.21 -67.92)"/><path class="cls-5" d="M2247.54,1007.1c1-14.64,1.53-29.62,1.53-44.86,0-170-64.84-307.74-144.83-307.74S1959.4,792.28,1959.4,962.24c0,15.24.53,30.22,1.54,44.86Z" transform="translate(-197.21 -67.92)"/><path class="cls-6" d="M2136.34,654.5c40,0,75.69,43.71,99.26,112.26a81.1,81.1,0,0,1,38-9.69c71,0,128.52,97.7,128.52,218.22q0,16.22-1.36,31.81H2009.18c-.89-14.64-1.36-29.62-1.36-44.86C2007.82,792.28,2065.36,654.5,2136.34,654.5Z" transform="translate(-197.21 -67.92)"/><polygon class="cls-5" points="65.04 1109.99 84.26 1265.32 45.82 1265.32 65.04 1109.99"/><polygon class="cls-5" points="113.61 1014.83 138.84 1218.78 88.37 1218.78 113.61 1014.83"/><path class="cls-7" d="M1599.24,1536.66c-306.42,0-710.42-388.15-978.54-432.76C462,1077.49,302.44,1228,197.21,1365.66V1543l2069.67-6.11c-37.14-1.5-82.65-5.23-130-13.59C2021.94,1503.06,1905.66,1536.66,1599.24,1536.66Z" transform="translate(-197.21 -67.92)"/><path class="cls-8" d="M2355.71,1536.66l-88.83.27C2319.8,1539.06,2355.71,1536.66,2355.71,1536.66Z" transform="translate(-197.21 -67.92)"/><polygon class="cls-5" points="1144.38 886.35 1119.14 1090.3 1169.61 1090.3 1144.38 886.35"/><polygon class="cls-5" points="1067.99 960.06 1048.77 1115.39 1087.21 1115.39 1067.99 960.06"/><polygon class="cls-5" points="1263.27 1044.24 1244.05 1199.57 1282.49 1199.57 1263.27 1044.24"/><polygon class="cls-5" points="1214.7 949.08 1189.47 1153.03 1239.94 1153.03 1214.7 949.08"/><path class="cls-3" d="M608.29,1486.68s302-486.13,417.06-507.83S1239,1156,1239,1156s52.1-45.43,132.2-27.68,509.72,420.92,509.72,420.92L586.25,1533.05Z" transform="translate(-197.21 -67.92)"/><path class="cls-5" d="M207.41,1543.39s294-255.34,673-271c127.28-5.26,1565.72,271.76,1628.35,274.28Z" transform="translate(-197.21 -67.92)"/><polygon class="cls-9" points="681.82 1418.29 652.11 1418.29 652.11 1245.46 666.97 1231.28 681.82 1245.46 681.82 1418.29"/><polygon class="cls-9" points="728.45 1418.29 698.74 1418.29 698.74 1245.46 713.59 1231.28 728.45 1245.46 728.45 1418.29"/><polygon class="cls-9" points="817.13 1418.29 787.41 1418.29 787.41 1245.46 802.27 1231.28 817.13 1245.46 817.13 1418.29"/><polygon class="cls-9" points="772.79 1418.29 743.08 1418.29 743.08 1245.46 757.93 1231.28 772.79 1245.46 772.79 1418.29"/><polygon class="cls-9" points="863.76 1418.29 834.04 1418.29 834.04 1245.46 848.9 1231.28 863.76 1245.46 863.76 1418.29"/><polygon class="cls-9" points="952.43 1418.29 922.72 1418.29 922.72 1245.46 937.58 1231.28 952.43 1245.46 952.43 1418.29"/><polygon class="cls-9" points="908.1 1418.29 878.38 1418.29 878.38 1245.46 893.24 1231.28 908.1 1245.46 908.1 1418.29"/><polygon class="cls-9" points="999.06 1418.29 969.35 1418.29 969.35 1245.46 984.2 1231.28 999.06 1245.46 999.06 1418.29"/><polygon class="cls-9" points="1087.74 1418.29 1058.02 1418.29 1058.02 1245.46 1072.88 1231.28 1087.74 1245.46 1087.74 1418.29"/><polygon class="cls-9" points="1043.4 1418.29 1013.68 1418.29 1013.68 1245.46 1028.54 1231.28 1043.4 1245.46 1043.4 1418.29"/><polygon class="cls-9" points="1000.22 1288.84 996.5 1288.84 858.26 1288.84 854.54 1288.84 646.07 1288.84 646.07 1298.36 854.54 1298.36 858.26 1298.36 996.5 1298.36 1000.22 1298.36 1142.17 1298.36 1142.17 1288.84 1000.22 1288.84"/><polygon class="cls-9" points="1000.22 1358.7 996.5 1358.7 858.26 1358.7 854.54 1358.7 646.07 1358.7 646.07 1368.22 854.54 1368.22 858.26 1368.22 996.5 1368.22 1000.22 1368.22 1142.17 1368.22 1142.17 1358.7 1000.22 1358.7"/><polygon class="cls-9" points="1134.37 1418.29 1104.65 1418.29 1104.65 1245.46 1119.51 1231.28 1134.37 1245.46 1134.37 1418.29"/><polygon class="cls-10" points="462.09 1245.81 697.25 1247.67 704.51 1231.93 477.71 1012.24 254.86 1038.18 462.09 1245.81"/><polygon class="cls-11" points="271.47 1036.24 456.72 1014.68 697.25 1247.67 431.23 1245.1 271.47 1036.24"/><polygon class="cls-4" points="473.19 1217.79 399.64 1300.52 435.23 1457.55 582.4 1441.7 597.42 1260.14 473.19 1217.79"/><polygon class="cls-12" points="129.26 1493.17 380.18 1463.96 343.25 1282.34 92.33 1311.55 129.26 1493.17"/><polygon class="cls-13" points="179.74 1442.09 268.84 1431.72 241.24 1309.01 152.14 1319.38 179.74 1442.09"/><path class="cls-14" d="M679.58,1098.8l-14.84,20.79,203.44,194.65-9.63,187.06-94.46,10-16.42-141a61.4,61.4,0,0,0-68.09-53.89h0a61.4,61.4,0,0,0-53.89,68.09L642,1524.13l-85.58,9L480.22,1230Z" transform="translate(-197.21 -67.92)"/><polygon class="cls-4" points="194.07 1440.42 283.17 1430.05 255.57 1307.34 166.47 1317.71 194.07 1440.42"/><g class="cls-15"><path class="cls-12" d="M846.13,1502.61l-4.79.5L829,1276.72l-67.83-64.88L782,1509.37l-2.4.25-2.39.17L756,1206.9l-68.33-65.36,15.83,176.73c-1.62-.47-3.26-.86-4.93-1.19l-16.18-180.59-14.84-14.2h.08l200.6,191.94L834,1281.58Z" transform="translate(-197.21 -67.92)"/><path class="cls-12" d="M640.87,1336.47c-1.37,1.54-2.67,3.15-3.88,4.82l-30.81-142.58,4.71-1Z" transform="translate(-197.21 -67.92)"/><polygon class="cls-12" points="399.48 1460.98 394.67 1461.49 346.94 1232.71 351.65 1231.72 399.48 1460.98"/></g><path class="cls-16" d="M710,1311.23a2.85,2.85,0,1,0,2.51-3.16A2.86,2.86,0,0,0,710,1311.23Z" transform="translate(-197.21 -67.92)"/><path class="cls-16" d="M746.77,1211.52a2.85,2.85,0,1,0,2.5-3.16A2.85,2.85,0,0,0,746.77,1211.52Z" transform="translate(-197.21 -67.92)"/><path class="cls-16" d="M767.79,1235.27a2.85,2.85,0,1,0,2.5-3.17A2.85,2.85,0,0,0,767.79,1235.27Z" transform="translate(-197.21 -67.92)"/><path class="cls-16" d="M821,1282.52a2.85,2.85,0,1,0,2.5-3.16A2.85,2.85,0,0,0,821,1282.52Z" transform="translate(-197.21 -67.92)"/><path class="cls-16" d="M831,1493.93a2.85,2.85,0,1,0,2.5-3.16A2.85,2.85,0,0,0,831,1493.93Z" transform="translate(-197.21 -67.92)"/><path class="cls-16" d="M785,1496.41a2.85,2.85,0,1,0,2.5-3.16A2.85,2.85,0,0,0,785,1496.41Z" transform="translate(-197.21 -67.92)"/><path class="cls-16" d="M686.11,1306.84a2.85,2.85,0,1,0,2.5-3.16A2.85,2.85,0,0,0,686.11,1306.84Z" transform="translate(-197.21 -67.92)"/><path class="cls-16" d="M641.61,1322.06a2.85,2.85,0,1,0,2.5-3.16A2.85,2.85,0,0,0,641.61,1322.06Z" transform="translate(-197.21 -67.92)"/><path class="cls-16" d="M660.37,1312.71a2.85,2.85,0,1,0,2.5-3.17A2.85,2.85,0,0,0,660.37,1312.71Z" transform="translate(-197.21 -67.92)"/><path class="cls-16" d="M617.87,1208.32a2.85,2.85,0,1,0,2.5-3.16A2.84,2.84,0,0,0,617.87,1208.32Z" transform="translate(-197.21 -67.92)"/><path class="cls-16" d="M674,1144.75a2.85,2.85,0,1,0,2.5-3.16A2.85,2.85,0,0,0,674,1144.75Z" transform="translate(-197.21 -67.92)"/><path class="cls-16" d="M621.74,1340.79a2.85,2.85,0,1,0,2.5-3.16A2.85,2.85,0,0,0,621.74,1340.79Z" transform="translate(-197.21 -67.92)"/><path class="cls-16" d="M615.69,1366.19a2.85,2.85,0,1,0-2.6-3.08A2.85,2.85,0,0,0,615.69,1366.19Z" transform="translate(-197.21 -67.92)"/><path class="cls-16" d="M615.14,1386.08a2.86,2.86,0,1,0-2.6-3.09A2.85,2.85,0,0,0,615.14,1386.08Z" transform="translate(-197.21 -67.92)"/><path class="cls-16" d="M556.89,1313.39a2.85,2.85,0,1,0-2.6-3.08A2.84,2.84,0,0,0,556.89,1313.39Z" transform="translate(-197.21 -67.92)"/><path class="cls-16" d="M540.85,1339.48a2.86,2.86,0,1,0-2.6-3.09A2.86,2.86,0,0,0,540.85,1339.48Z" transform="translate(-197.21 -67.92)"/><path class="cls-16" d="M521.4,1373.47a2.85,2.85,0,1,0-2.6-3.09A2.85,2.85,0,0,0,521.4,1373.47Z" transform="translate(-197.21 -67.92)"/><path class="cls-16" d="M484.58,1382.69a2.85,2.85,0,1,0-2.6-3.08A2.85,2.85,0,0,0,484.58,1382.69Z" transform="translate(-197.21 -67.92)"/><path class="cls-16" d="M460.15,1385.53a2.85,2.85,0,1,0-2.59-3.08A2.86,2.86,0,0,0,460.15,1385.53Z" transform="translate(-197.21 -67.92)"/><path class="cls-16" d="M429.72,1512.85a2.86,2.86,0,1,0-2.6-3.09A2.85,2.85,0,0,0,429.72,1512.85Z" transform="translate(-197.21 -67.92)"/><path class="cls-16" d="M436.74,1543.71a2.85,2.85,0,1,0-2.6-3.08A2.85,2.85,0,0,0,436.74,1543.71Z" transform="translate(-197.21 -67.92)"/><path class="cls-16" d="M376.21,1550.76a2.86,2.86,0,1,0-2.6-3.09A2.87,2.87,0,0,0,376.21,1550.76Z" transform="translate(-197.21 -67.92)"/><path class="cls-16" d="M333.46,1398.49a2.85,2.85,0,1,0-2.59-3.08A2.86,2.86,0,0,0,333.46,1398.49Z" transform="translate(-197.21 -67.92)"/><path class="cls-16" d="M300.49,1404.12a2.85,2.85,0,1,0-2.6-3.08A2.85,2.85,0,0,0,300.49,1404.12Z" transform="translate(-197.21 -67.92)"/><path class="cls-16" d="M332.23,1557.29a2.85,2.85,0,1,0-2.6-3.08A2.85,2.85,0,0,0,332.23,1557.29Z" transform="translate(-197.21 -67.92)"/><path class="cls-16" d="M508.61,1378.1A2.85,2.85,0,1,0,506,1375,2.86,2.86,0,0,0,508.61,1378.1Z" transform="translate(-197.21 -67.92)"/><path class="cls-16" d="M548.6,1529.61a2.85,2.85,0,1,0-2.6-3.08A2.85,2.85,0,0,0,548.6,1529.61Z" transform="translate(-197.21 -67.92)"/><path class="cls-16" d="M507.61,1535.46a2.85,2.85,0,1,0-2.6-3.08A2.85,2.85,0,0,0,507.61,1535.46Z" transform="translate(-197.21 -67.92)"/><path class="cls-16" d="M562.8,1528a2.85,2.85,0,1,0-2.6-3.08A2.85,2.85,0,0,0,562.8,1528Z" transform="translate(-197.21 -67.92)"/><path class="cls-16" d="M633.69,1520.78a2.85,2.85,0,1,0-2.6-3.08A2.85,2.85,0,0,0,633.69,1520.78Z" transform="translate(-197.21 -67.92)"/><path class="cls-16" d="M606.21,1232.94a2.85,2.85,0,1,0-2.6-3.08A2.85,2.85,0,0,0,606.21,1232.94Z" transform="translate(-197.21 -67.92)"/><path class="cls-16" d="M732.36,1325a2.85,2.85,0,1,0,2.51-3.16A2.85,2.85,0,0,0,732.36,1325Z" transform="translate(-197.21 -67.92)"/><path class="cls-16" d="M749,1353.6a2.85,2.85,0,1,0,2.5-3.16A2.85,2.85,0,0,0,749,1353.6Z" transform="translate(-197.21 -67.92)"/><path class="cls-16" d="M847.92,1489.08a2.85,2.85,0,1,0,2.51-3.16A2.85,2.85,0,0,0,847.92,1489.08Z" transform="translate(-197.21 -67.92)"/><path class="cls-16" d="M843.29,1302.38a2.85,2.85,0,1,0,2.51-3.16A2.86,2.86,0,0,0,843.29,1302.38Z" transform="translate(-197.21 -67.92)"/><path class="cls-16" d="M692.75,1163.28a2.85,2.85,0,1,0,2.5-3.16A2.85,2.85,0,0,0,692.75,1163.28Z" transform="translate(-197.21 -67.92)"/><polygon class="cls-17" points="247.57 1477.96 236.41 1435.49 241.24 1434.93 252.4 1477.4 247.57 1477.96"/><polygon class="cls-17" points="317.7 1469.8 271.43 1293.65 276.08 1292.43 322.52 1469.24 317.7 1469.8"/><polygon class="cls-17" points="120.01 1306.13 124.66 1304.91 172.42 1486.71 167.59 1487.27 120.01 1306.13"/><polygon class="cls-10" points="60.3 1315.28 62 1329.88 131.55 1321.78 117.23 1308.65 60.3 1315.28"/><polygon class="cls-10" points="285.13 1034.65 477.8 1012.23 488.48 1025.88 313.05 1300.65 91.71 1326.42 285.13 1034.65"/><polygon class="cls-11" points="60.3 1315.28 292.68 1288.22 477.8 1012.23 245.42 1039.28 60.3 1315.28"/><polygon class="cls-11" points="60.3 1315.28 292.68 1288.22 477.8 1012.23 245.42 1039.28 60.3 1315.28"/><polygon class="cls-18" points="348.26 1205.35 114.51 1234.46 118.06 1229.16 351.81 1200.06 348.26 1205.35"/><polygon class="cls-18" points="378.16 1160.78 144.4 1189.89 147.95 1184.6 381.71 1155.49 378.16 1160.78"/><polygon class="cls-18" points="408.05 1116.21 174.29 1145.32 177.84 1140.03 411.6 1110.92 408.05 1116.21"/><polygon class="cls-18" points="437.94 1071.65 204.19 1100.76 207.74 1095.46 441.5 1066.35 437.94 1071.65"/><polygon class="cls-18" points="318.37 1249.92 84.61 1279.03 88.16 1273.73 321.92 1244.63 318.37 1249.92"/><path class="cls-6" d="M197.21,1539.47s927-176,2320,0V1699.3l-2318.85-9.19Z" transform="translate(-197.21 -67.92)"/><rect class="cls-6" y="1471.55" width="2320" height="393.67"/><path class="cls-11" d="M900.33,1709.35s-4.23,55-2,57-11.08,16.63-12.6,21.78c0,0,12.2-10.31,17.82-11.92s29.18,5,51.78,2.78c0,0-15.76-1.67-23.78-5.53s-16.44-3.18-15.52-3.75,11.91-4,23.72-2.8,26.76-5.18,26.76-5.18-19.81,1.9-28.43.39-29.06,2.53-29.06,2.53l2.85-56Z" transform="translate(-197.21 -67.92)"/><path class="cls-11" d="M960.21,1683.82s19.17,50.17,20.57,52.83-16,12-19.1,16.39c0,0,14.93-5.7,20.76-5.36s25.89,14.34,48,19.74c0,0-14.32-6.79-20.61-13.08s-14.47-8.44-13.41-8.67,12.55.21,23.31,5.2,27,4,27,4-19.32-4.75-27-9-28.27-7.21-28.27-7.21l-16.76-54Z" transform="translate(-197.21 -67.92)"/><path class="cls-19" d="M931.47,1658.93s7.52,28.5,23.57,31.83,18.65,9.81,27.74,1.17,28-35.13,40.05-44.91S941,1645.09,931.47,1658.93Z" transform="translate(-197.21 -67.92)"/><path class="cls-20" d="M1022.47,1436.81s-17.89,4.41-31.25,36.41-19.45,52.57-37.58,57.82-50.31,0-72.06,5.54-43.27.81-58.34-13.14-46.9-24.11-53.73-12.34,5.82,32.64,5.82,32.64-9.62,2.94,1.76,16.73,15.63,17.1,15.63,17.1-12.25-2.69-3.57,9.56a71.21,71.21,0,0,0,19.12,18.51s-8.65,1.54,5,14.52c0,0-6.76,12.16,10.9,11,0,0,.39,11.29,8,17.64,0,0-.22,21.55,12,31.13s43.28,28.81,52.59,33.24,18.41,7.67,28,.27,29.23-40.91,52-49.84,52.56-10.17,70.2-47.81,23.76-101.21,7.51-121.85S1067.75,1422.25,1022.47,1436.81Z" transform="translate(-197.21 -67.92)"/><path class="cls-21" d="M1058.75,1451c.51-.16,11-.54,20,12.53,0,0-19.89-.38-23.81.39s-1.94-8.65-1.58-8.92Z" transform="translate(-197.21 -67.92)"/><path class="cls-11" d="M1056.28,1444.38s-7.74-10.05-16.74-5.87-3.66,13.63-2.46,15,4.14,5.76,1.07,7.52-12.67-5-13.58-2.58,2.57,18.2,12.47,14.55,1.61,3,4,10.92,6.48,15.89,16,6.89.74-27.72.08-32.2,8.91-3.89,14.11-8.87,2.07-22.56-3.88-26.36-11.24-8.42-16.89-12-6.32-7.39-15.4-2.94-23.42-3.13-27.93,6.47-5.15,17.42,2.29,20.42,10.25,2.57,10.25,2.57S1041.58,1429.48,1056.28,1444.38Z" transform="translate(-197.21 -67.92)"/><path class="cls-19" d="M1008.35,1548.89s5.81,61-25.88,69.94-58.64,36.42-80,35-36.43-6.29-49.16-32.22c0,0,14.06,24.27,36.39,24.35s48-20.93,60.94-24.65,30-5.67,38.32-15C1009.29,1583.62,1007.7,1561,1008.35,1548.89Z" transform="translate(-197.21 -67.92)"/><path class="cls-20" d="M1248.37,1816.44s-15.2,58.8-13.21,61.45-15.23,15.89-17.88,21.18c0,0,15.23-8.82,21.63-9.49s30.68,11,55.62,13c0,0-16.78-4.86-24.72-10.6s-17.22-6.62-16.12-7.06,13.69-2,26.27,1.54,30-.44,30-.44-21.84-1.76-30.89-5.07-32-2.87-32-2.87l13.92-60.2Z" transform="translate(-197.21 -67.92)"/><path class="cls-20" d="M1323.47,1820s29.68,51.17,31.66,53.82-15.23,15.89-17.87,21.19c0,0,15.22-8.83,21.62-9.49s30.68,11,55.62,13c0,0-16.77-4.86-24.72-10.6s-17.21-6.62-16.11-7.06,13.69-2,26.27,1.55,30-.44,30-.44-21.85-1.77-30.9-5.08-32-2.87-32-2.87l-27.73-55.73Z" transform="translate(-197.21 -67.92)"/><path class="cls-22" d="M1287.83,1798s13.2,29.67,31.24,30.46,22,7.38,30.36-3.62,24.2-43.12,35.64-55.88S1295.75,1781.24,1287.83,1798Z" transform="translate(-197.21 -67.92)"/><path class="cls-23" d="M1333.85,1633.65c-20.78-.36-50.32-9.75-72.42-8.17-24.64,1.76-47.09-7.48-60.73-25.52s-46.2-35.21-55.88-23.77,0,36.52,0,36.52-11,1.33-1.32,18.49,13.64,21.56,13.64,21.56-12.76-5.28-5.72,9.68a78.41,78.41,0,0,0,17.16,23.76s-9.68,0,2.64,16.72c0,0-9.68,11.88,9.68,14.08,0,0-1.76,12.32,5.28,20.68,0,0-4.4,23.32,7,36.08s41.37,39.6,50.61,46.2,18.48,11.88,30.36,5.72,39.6-38.72,66-44c25-5,55.41-1.35,81-32.53Z" transform="translate(-197.21 -67.92)"/><path class="cls-23" d="M1486,1671c.46-28.93,61.13-52.12,12.32-71.16,0,0-18.34-8.67-52,9.38s-115,24.31-115,24.31L1368.63,1778a84.23,84.23,0,0,0,26.29-8.06C1436.15,1750,1485.58,1700,1486,1671Z" transform="translate(-197.21 -67.92)"/><path class="cls-20" d="M1516.77,1646c.54.22,9.76,7.18,8.39,24.62,0,0-16.72-14.15-20.61-16.22s4.35-8.74,4.84-8.72Z" transform="translate(-197.21 -67.92)"/><path class="cls-24" d="M1519.28,1638.58s.38-14-10.21-16.66-12.6,9.11-12.56,11.15-.47,7.79-4.31,7.17-7.32-13.12-9.81-11.65-10.46,17.34.54,21.1-.69,3.64-4.2,12.09-5.51,18.08,8.85,17,19.91-23.17,22.46-27.46,10.31,2.88,18.22,2.23,17.44-17.83,15-25.22-3.75-15-6.07-22-.27-10.72-11.12-13.22-17.83-18.95-28.36-13.89-16.5,11.3-12.24,19,7,9.32,7,9.32S1517.09,1615.64,1519.28,1638.58Z" transform="translate(-197.21 -67.92)"/><path class="cls-22" d="M1396.51,1663.32s-5.5,67.32-41.58,70.84-70.62,28.16-93.5,22.44-38.29-13.86-47.09-44.44c0,0,10.56,29,34.77,33.44s56.1-13.42,70.84-15,33.63-.34,44.44-8.8C1390.82,1701.16,1393.46,1676.31,1396.51,1663.32Z" transform="translate(-197.21 -67.92)"/><path class="cls-11" d="M692.65,1586.65c.29,0,3,3.88,10.43,10.76,0,0-11.93,2.32-14.05,2.11s.16-7.23.38-7.31S692.65,1586.65,692.65,1586.65Z" transform="translate(-197.21 -67.92)"/><path class="cls-20" d="M624.26,1684.83s-4.84,18.72-4.21,19.57-4.85,5.06-5.69,6.74c0,0,4.85-2.81,6.88-3s9.77,3.51,17.71,4.15c0,0-5.34-1.55-7.87-3.38s-5.48-2.1-5.13-2.25a20.23,20.23,0,0,1,8.36.5c4,1.12,9.56-.14,9.56-.14s-7-.56-9.84-1.62-10.19-.91-10.19-.91l4.43-19.17Z" transform="translate(-197.21 -67.92)"/><path class="cls-20" d="M649.76,1685.41s10.14,17.5,10.82,18.4-5.2,5.44-6.11,7.25c0,0,5.21-3,7.4-3.25s10.48,3.78,19,4.46c0,0-5.73-1.66-8.45-3.63s-5.89-2.26-5.51-2.41a21.55,21.55,0,0,1,9,.53c4.3,1.2,10.26-.15,10.26-.15s-7.47-.61-10.56-1.74-10.94-1-10.94-1l-9.49-19.06Z" transform="translate(-197.21 -67.92)"/><path class="cls-14" d="M657.75,1579.74s-7.81,2.88-10.48,14.4-3.91,17.68-12.75,20.35-36.4,11.31-39.89,23.65a26.77,26.77,0,0,1-5.72,10.77,12.34,12.34,0,0,0-1.22,14.77c4.53,7.25,12.39,16.07,24.41,18,21.18,3.5,10.49,14,40.1,4.94s16.66-15.63,32.9-34.75,1-32.49,8-49.15S684.89,1565.14,657.75,1579.74Z" transform="translate(-197.21 -67.92)"/><path class="cls-12" d="M634.44,1639.14a46.91,46.91,0,0,0-6.43,1.63,15.17,15.17,0,0,0-5.49,2.86,3.5,3.5,0,0,0-1.2,2,3.15,3.15,0,0,0,.1,1.09,3,3,0,0,0,.2.57l.29.73a31,31,0,0,1,1.72,6.77,5.84,5.84,0,0,0,.85,2.37,3.84,3.84,0,0,0,1.67,1.34,20.92,20.92,0,0,0,5.71,1.45l3.21.4c1.18.2,2.35.27,3.53.59a24.87,24.87,0,0,1,6.89,2.53c1.08.59,2.06,1.27,2.94,1.84a5.64,5.64,0,0,0,2,.93c1,.17,2.89-.7,4.63-1.76.9-.49,1.79-1.11,2.69-1.69a8.24,8.24,0,0,0,1.22-.91l1.13-.92a25.24,25.24,0,0,0,2-2.15c.54-.81,1.09-1.63,1.57-2.51a28.28,28.28,0,0,0,2.49-12.16,59.78,59.78,0,0,0-1.53-13.08,42.94,42.94,0,0,1,4,12.91,28.15,28.15,0,0,1-1.38,14,31.92,31.92,0,0,1-1.67,3.3,26.42,26.42,0,0,1-2.36,2.9l-1.39,1.27a10.84,10.84,0,0,1-1.39,1.15c-.93.68-1.83,1.38-2.85,2a20.55,20.55,0,0,1-3.26,1.79,10.4,10.4,0,0,1-2,.64c-.39.07-.77.15-1.15.19s-.85,0-1.27,0a10,10,0,0,1-4.1-1.61c-1-.62-1.86-1.19-2.73-1.65a20,20,0,0,0-5.54-2.14c-1-.29-2-.36-3-.56s-2.26-.32-3.39-.53a24.57,24.57,0,0,1-7-2.27,7.93,7.93,0,0,1-3.2-3.06,10.09,10.09,0,0,1-1.11-3.94,33.94,33.94,0,0,0-.93-6.26,12.43,12.43,0,0,1-.44-1.89,5.83,5.83,0,0,1,.13-2.23,6.07,6.07,0,0,1,2.49-3.35,16.06,16.06,0,0,1,6.7-2.28A33.24,33.24,0,0,1,634.44,1639.14Z" transform="translate(-197.21 -67.92)"/><path class="cls-11" d="M1804.88,1648.64c.19,0,2,2.61,7,7.22,0,0-8,1.55-9.41,1.41s.1-4.84.25-4.9S1804.88,1648.64,1804.88,1648.64Z" transform="translate(-197.21 -67.92)"/><path class="cls-20" d="M1759,1714.45s-3.24,12.55-2.82,13.11-3.25,3.39-3.81,4.52c0,0,3.25-1.88,4.61-2s6.55,2.35,11.87,2.78a22.47,22.47,0,0,1-5.27-2.26,14.34,14.34,0,0,0-3.44-1.51,13.59,13.59,0,0,1,5.6.33,15.78,15.78,0,0,0,6.41-.1,36.44,36.44,0,0,1-6.6-1.08c-1.93-.7-6.83-.61-6.83-.61l3-12.84Z" transform="translate(-197.21 -67.92)"/><path class="cls-20" d="M1776.13,1714.84s6.8,11.73,7.26,12.33-3.49,3.64-4.1,4.86c0,0,3.49-2,5-2.18s7,2.53,12.74,3a24.29,24.29,0,0,1-5.66-2.43c-1.82-1.31-3.95-1.52-3.69-1.62a14.52,14.52,0,0,1,6,.36c2.88.81,6.87-.11,6.87-.11a39.41,39.41,0,0,1-7.08-1.16c-2.07-.76-7.33-.66-7.33-.66l-6.36-12.77Z" transform="translate(-197.21 -67.92)"/><path class="cls-14" d="M1781.49,1644s-5.24,1.93-7,9.64-2.62,11.86-8.54,13.65-24.39,7.58-26.74,15.85a17.91,17.91,0,0,1-3.83,7.21,8.28,8.28,0,0,0-.82,9.9c3,4.86,8.3,10.77,16.37,12.1,14.19,2.34,7,9.37,26.87,3.31s11.16-10.47,22-23.29.69-21.77,5.38-32.94S1799.68,1634.23,1781.49,1644Z" transform="translate(-197.21 -67.92)"/><path class="cls-12" d="M1765.87,1683.83a30.2,30.2,0,0,0-4.31,1.09,10.21,10.21,0,0,0-3.68,1.91,2.4,2.4,0,0,0-.81,1.37,2.53,2.53,0,0,0,.2,1.11l.2.49a20.94,20.94,0,0,1,1.15,4.53,4.05,4.05,0,0,0,.57,1.6,2.52,2.52,0,0,0,1.12.89,13.85,13.85,0,0,0,3.83,1l2.15.27c.79.14,1.58.18,2.37.4a16.43,16.43,0,0,1,4.61,1.69c.73.4,1.38.85,2,1.23a3.52,3.52,0,0,0,1.33.63,6.16,6.16,0,0,0,3.11-1.18c.6-.33,1.2-.74,1.8-1.14a6.22,6.22,0,0,0,.82-.6l.75-.62a16.45,16.45,0,0,0,1.32-1.44,16.92,16.92,0,0,0,1-1.68,18.83,18.83,0,0,0,1.68-8.15,40.53,40.53,0,0,0-1-8.77,28.57,28.57,0,0,1,2.69,8.65,19,19,0,0,1-.92,9.35,20.9,20.9,0,0,1-1.13,2.21,17.48,17.48,0,0,1-1.58,1.95l-.93.85a7,7,0,0,1-.93.77c-.62.46-1.23.93-1.91,1.35a13.67,13.67,0,0,1-2.18,1.2,7.48,7.48,0,0,1-1.36.44c-.26,0-.51.09-.77.12l-.85,0a6.73,6.73,0,0,1-2.75-1.08c-.67-.41-1.25-.79-1.83-1.11a13.54,13.54,0,0,0-3.71-1.43c-.65-.19-1.36-.24-2-.38s-1.51-.21-2.26-.35a16.5,16.5,0,0,1-4.72-1.52,5.25,5.25,0,0,1-2.14-2,6.58,6.58,0,0,1-.74-2.64,22.49,22.49,0,0,0-.63-4.2,7.84,7.84,0,0,1-.29-1.27,4,4,0,0,1,.08-1.49,4.05,4.05,0,0,1,1.67-2.24,10.82,10.82,0,0,1,4.49-1.53A22.2,22.2,0,0,1,1765.87,1683.83Z" transform="translate(-197.21 -67.92)"/><path class="cls-11" d="M1639.71,1745.89c.27,0,2.76,3.6,9.67,10,0,0-11.06,2.15-13,2s.14-6.7.35-6.78S1639.71,1745.89,1639.71,1745.89Z" transform="translate(-197.21 -67.92)"/><path class="cls-20" d="M1576.27,1837s-4.49,17.37-3.9,18.15-4.5,4.69-5.28,6.26c0,0,4.49-2.61,6.38-2.81s9.07,3.26,16.43,3.85c0,0-5-1.43-7.3-3.13s-5.08-2-4.76-2.08a18.65,18.65,0,0,1,7.76.45c3.71,1,8.86-.13,8.86-.13s-6.45-.52-9.12-1.5-9.45-.84-9.45-.84l4.11-17.78Z" transform="translate(-197.21 -67.92)"/><path class="cls-20" d="M1599.92,1837.5s9.41,16.23,10,17.07-4.83,5-5.67,6.72c0,0,4.84-2.8,6.87-3s9.72,3.5,17.63,4.13c0,0-5.32-1.54-7.84-3.36s-5.45-2.1-5.11-2.24a20,20,0,0,1,8.33.49c4,1.12,9.52-.14,9.52-.14s-6.93-.56-9.8-1.61-10.14-.91-10.14-.91L1605,1837Z" transform="translate(-197.21 -67.92)"/><path class="cls-14" d="M1607.34,1739.48s-7.25,2.67-9.73,13.35-3.62,16.41-11.82,18.89-33.76,10.49-37,21.93a24.82,24.82,0,0,1-5.3,10,11.45,11.45,0,0,0-1.13,13.7c4.21,6.73,11.49,14.9,22.65,16.75,19.64,3.24,9.72,13,37.19,4.57s15.45-14.49,30.52-32.23,1-30.14,7.44-45.59S1632.52,1725.94,1607.34,1739.48Z" transform="translate(-197.21 -67.92)"/><path class="cls-12" d="M1585.71,1794.58a43.32,43.32,0,0,0-6,1.51,14.07,14.07,0,0,0-5.09,2.65,3.2,3.2,0,0,0-1.11,1.89,2.65,2.65,0,0,0,.09,1,2.21,2.21,0,0,0,.18.53l.28.68a29.84,29.84,0,0,1,1.59,6.28,5.43,5.43,0,0,0,.79,2.21,3.55,3.55,0,0,0,1.55,1.24,19.78,19.78,0,0,0,5.29,1.34l3,.37c1.09.19,2.18.25,3.28.55a23.2,23.2,0,0,1,6.39,2.34c1,.55,1.91,1.18,2.73,1.71a5,5,0,0,0,1.85.86c.89.16,2.68-.64,4.3-1.63.83-.45,1.66-1,2.49-1.57a8.09,8.09,0,0,0,1.13-.84l1-.86a21.59,21.59,0,0,0,1.82-2c.5-.75,1-1.51,1.46-2.32a26.2,26.2,0,0,0,2.31-11.29,55.46,55.46,0,0,0-1.42-12.13,39.61,39.61,0,0,1,3.72,12,26.09,26.09,0,0,1-1.28,12.94,31.37,31.37,0,0,1-1.55,3.06,23.59,23.59,0,0,1-2.19,2.69l-1.28,1.18a12,12,0,0,1-1.29,1.07c-.86.63-1.7,1.27-2.65,1.86a18.43,18.43,0,0,1-3,1.66,9,9,0,0,1-1.88.6c-.36.07-.71.14-1.07.18s-.78,0-1.18,0a9,9,0,0,1-3.8-1.49c-.92-.57-1.72-1.1-2.53-1.53a18.28,18.28,0,0,0-5.14-2,28.44,28.44,0,0,0-2.81-.52c-1-.16-2.1-.29-3.14-.49a22.71,22.71,0,0,1-6.52-2.11,7.21,7.21,0,0,1-3-2.84,9.43,9.43,0,0,1-1-3.65,30.33,30.33,0,0,0-.87-5.81,14.16,14.16,0,0,1-.4-1.75,5.19,5.19,0,0,1,2.43-5.17,14.93,14.93,0,0,1,6.21-2.12A31.34,31.34,0,0,1,1585.71,1794.58Z" transform="translate(-197.21 -67.92)"/><path class="cls-11" d="M1269.64,1530.57c-.15,0-1.47,1.91-5.14,5.3a61,61,0,0,0,6.92,1c1-.1-.08-3.56-.19-3.6S1269.64,1530.57,1269.64,1530.57Z" transform="translate(-197.21 -67.92)"/><path class="cls-20" d="M1303.32,1578.93s2.39,9.22,2.07,9.64,2.39,2.49,2.81,3.32a14.64,14.64,0,0,0-3.39-1.49c-1-.1-4.81,1.73-8.73,2a16.49,16.49,0,0,0,3.88-1.66,10.84,10.84,0,0,1,2.53-1.11,10,10,0,0,0-4.12.25,11.66,11.66,0,0,1-4.71-.07,27.16,27.16,0,0,0,4.85-.8,20.71,20.71,0,0,1,5-.45l-2.19-9.44Z" transform="translate(-197.21 -67.92)"/><path class="cls-20" d="M1290.76,1579.22s-5,8.61-5.33,9.06,2.57,2.68,3,3.57a15.25,15.25,0,0,0-3.64-1.6c-1.08-.11-5.17,1.86-9.37,2.19a17.47,17.47,0,0,0,4.17-1.78,10.89,10.89,0,0,1,2.71-1.19,10.59,10.59,0,0,0-4.42.26,12.58,12.58,0,0,1-5.06-.07,28.92,28.92,0,0,0,5.2-.86,22.11,22.11,0,0,1,5.39-.48l4.67-9.39Z" transform="translate(-197.21 -67.92)"/><path class="cls-14" d="M1286.82,1527.17s3.85,1.42,5.17,7.09,1.92,8.71,6.28,10,17.92,5.57,19.65,11.64a13.06,13.06,0,0,0,2.81,5.31,6.06,6.06,0,0,1,.6,7.27c-2.23,3.57-6.1,7.92-12,8.89-10.43,1.73-5.17,6.89-19.75,2.43s-8.2-7.69-16.21-17.11-.5-16-3.94-24.21S1273.46,1520,1286.82,1527.17Z" transform="translate(-197.21 -67.92)"/><path class="cls-12" d="M1298.31,1556.43a22.15,22.15,0,0,1,3.16.8,7.35,7.35,0,0,1,2.71,1.41,1.74,1.74,0,0,1,.59,1,1.39,1.39,0,0,1,0,.53,1.57,1.57,0,0,1-.1.28l-.14.36a15.47,15.47,0,0,0-.85,3.34,2.93,2.93,0,0,1-.42,1.17,1.87,1.87,0,0,1-.82.66,10.7,10.7,0,0,1-2.81.71l-1.58.2a17.54,17.54,0,0,0-1.74.29,12.21,12.21,0,0,0-3.4,1.24c-.53.29-1,.63-1.45.91a2.79,2.79,0,0,1-1,.46,4.55,4.55,0,0,1-2.28-.87c-.44-.24-.88-.54-1.32-.83a4.39,4.39,0,0,1-.61-.45l-.55-.45a13.84,13.84,0,0,1-1-1.06,14.27,14.27,0,0,1-.77-1.24,13.82,13.82,0,0,1-1.23-6,29.62,29.62,0,0,1,.75-6.44,21.31,21.31,0,0,0-2,6.36,13.89,13.89,0,0,0,.67,6.87,17.84,17.84,0,0,0,.83,1.63,13.18,13.18,0,0,0,1.16,1.43l.68.62a5.77,5.77,0,0,0,.69.57c.46.33.9.68,1.4,1a10.66,10.66,0,0,0,1.61.88,5.33,5.33,0,0,0,1,.32c.19,0,.37.07.56.09h.63a4.82,4.82,0,0,0,2-.8c.49-.3.91-.58,1.34-.81a9.79,9.79,0,0,1,2.73-1,15,15,0,0,1,1.49-.28c.53-.08,1.12-.15,1.67-.26a12.13,12.13,0,0,0,3.46-1.12,3.87,3.87,0,0,0,1.58-1.51,5,5,0,0,0,.55-1.93,15.69,15.69,0,0,1,.46-3.09,6.24,6.24,0,0,0,.21-.93,2.93,2.93,0,0,0-.06-1.1,3.05,3.05,0,0,0-1.23-1.65,7.91,7.91,0,0,0-3.3-1.12A16.08,16.08,0,0,0,1298.31,1556.43Z" transform="translate(-197.21 -67.92)"/><path class="cls-11" d="M463.92,1546.8c-.14,0-1.46,1.91-5.13,5.3a61,61,0,0,0,6.92,1c1-.1-.08-3.56-.19-3.6S463.92,1546.8,463.92,1546.8Z" transform="translate(-197.21 -67.92)"/><path class="cls-20" d="M497.61,1595.16s2.38,9.22,2.07,9.64,2.39,2.49,2.8,3.32a14,14,0,0,0-3.39-1.49c-1-.1-4.81,1.73-8.72,2a16.49,16.49,0,0,0,3.88-1.66,10.88,10.88,0,0,1,2.52-1.11,9.78,9.78,0,0,0-4.11.25,11.64,11.64,0,0,1-4.71-.07,27.09,27.09,0,0,0,4.84-.8,20.71,20.71,0,0,1,5-.45l-2.18-9.44Z" transform="translate(-197.21 -67.92)"/><path class="cls-20" d="M485.05,1595.45s-5,8.61-5.33,9.06,2.56,2.68,3,3.57a15.45,15.45,0,0,0-3.64-1.6c-1.08-.11-5.17,1.86-9.37,2.19a17.46,17.46,0,0,0,4.16-1.78,11,11,0,0,1,2.72-1.19,10.83,10.83,0,0,0-4.43.26,12.44,12.44,0,0,1-5.05-.08,28.62,28.62,0,0,0,5.2-.85,22.11,22.11,0,0,1,5.39-.48l4.67-9.39Z" transform="translate(-197.21 -67.92)"/><path class="cls-14" d="M481.11,1543.4s3.85,1.42,5.17,7.09,1.92,8.71,6.28,10,17.92,5.57,19.64,11.64a13.06,13.06,0,0,0,2.82,5.3,6.1,6.1,0,0,1,.6,7.28c-2.23,3.57-6.1,7.92-12,8.89-10.43,1.73-5.16,6.89-19.74,2.43s-8.21-7.69-16.21-17.11-.5-16-3.95-24.21S467.74,1536.21,481.11,1543.4Z" transform="translate(-197.21 -67.92)"/><path class="cls-12" d="M492.59,1572.66a22,22,0,0,1,3.17.8,7.3,7.3,0,0,1,2.7,1.41,1.7,1.7,0,0,1,.6,1,1.64,1.64,0,0,1-.05.53,1.57,1.57,0,0,1-.1.28l-.15.36a15.28,15.28,0,0,0-.84,3.34,2.93,2.93,0,0,1-.42,1.17,2,2,0,0,1-.83.66,10.52,10.52,0,0,1-2.8.71l-1.59.2a15,15,0,0,0-1.74.29,12.14,12.14,0,0,0-3.39,1.24c-.53.3-1,.63-1.45.91a2.79,2.79,0,0,1-1,.46,4.58,4.58,0,0,1-2.28-.87c-.45-.24-.89-.54-1.33-.83a6.25,6.25,0,0,1-.6-.45l-.55-.45a10.78,10.78,0,0,1-1-1.06c-.27-.4-.54-.81-.78-1.24a14,14,0,0,1-1.22-6,29,29,0,0,1,.75-6.44,20.75,20.75,0,0,0-2,6.36,13.89,13.89,0,0,0,.67,6.87,17.68,17.68,0,0,0,.83,1.62,11.5,11.5,0,0,0,1.16,1.43l.68.63a5.77,5.77,0,0,0,.69.57c.45.33.9.68,1.4,1a9.45,9.45,0,0,0,1.61.88,5.23,5.23,0,0,0,1,.32l.57.09c.21,0,.42,0,.63,0a4.78,4.78,0,0,0,2-.79c.49-.3.92-.58,1.35-.81a9.79,9.79,0,0,1,2.73-1,14,14,0,0,1,1.49-.28c.53-.09,1.11-.16,1.67-.26a12.23,12.23,0,0,0,3.46-1.12,3.87,3.87,0,0,0,1.58-1.51,4.83,4.83,0,0,0,.54-1.94,16.49,16.49,0,0,1,.46-3.08,7.61,7.61,0,0,0,.22-.93,3.15,3.15,0,0,0-.06-1.1,3.05,3.05,0,0,0-1.23-1.65,8,8,0,0,0-3.3-1.12A16.15,16.15,0,0,0,492.59,1572.66Z" transform="translate(-197.21 -67.92)"/><path class="cls-5" d="M354.28,1714.45c19.29-41.27,3.43-89.45-35.42-107.6-15.42-7.21-34.12.22-41.77,16.6l-9.9,22.28c-8.39,18-19.79,26-30.62,29.16a90.14,90.14,0,0,0-39.33,23.69l0,234.56s50.69-19,62.33-43.89l13.33-17.33c5.08-10.86,14.25-1.43,24.59-4.28A64,64,0,0,0,338.32,1833l7.43-15.91c5.25-11.23,4.41-24.35-2.49-33.95-7.6-10.57-9.26-25.33-3.08-38.55Z" transform="translate(-197.21 -67.92)"/><path class="cls-7" d="M197.21,1933.14s110.35-130.42,173.49-150.87,3.63,60.75,3.63,60.75,112-122.49,153.13-111.44c37.69,10.12,0,86,0,86s42.44-42,93.91-42S581.59,1933,581.59,1933Z" transform="translate(-197.21 -67.92)"/><path class="cls-5" d="M527.46,1933s68.6-183.43,153.55-162.22c68.84,17.19,19.89,109.49,24.09,105.29s41.12-66.84,100.86-66.84-18.34,84.55-18.34,84.55,127.28-39.75,137.25,2c8.27,34.64-38,37.23-38,37.23Z" transform="translate(-197.21 -67.92)"/><path class="cls-25" d="M2181.42,1541.94s29.71,52.19,26.73,56.21-45.42,71-49.19,59.94-22.41-83-19.87-88.11S2181.42,1541.94,2181.42,1541.94Z" transform="translate(-197.21 -67.92)"/><path class="cls-11" d="M2506.71,1209c-21.1,52.61-134.16,56.77-252.54,9.29s-197.23-128.6-176.13-181.21,134.16-56.76,252.53-9.29S2527.81,1156.39,2506.71,1209Z" transform="translate(-197.21 -67.92)"/><path class="cls-14" d="M2570.43,1529.74s-41.62-164.48-74.35-206.14-111.34-52.22-139.41-14.65,103.18,246.71,103.18,246.71Z" transform="translate(-197.21 -67.92)"/><path class="cls-4" d="M2162,1100.33c11.35-88.84,89.82-154.48,174.63-113.64,19.07,9.18,45.05,28.13,58.48,44.5,36.3,44.25,46.69,99.77,84.11,142.67A358.7,358.7,0,0,1,2431.3,1206l-23.38-29.59,8.74,37.44c-55.54,28.31-134.37,52.5-243,54.6C2158.51,1207.33,2155.94,1147.71,2162,1100.33Z" transform="translate(-197.21 -67.92)"/><path class="cls-12" d="M2160.21,1439.12c44.37-134.6,100.92-131.69,100.92-131.69l-45.31,285.79c-27.4-7.49-63.07-24.16-90.44-31.89C2134.45,1518.78,2149.28,1472.26,2160.21,1439.12Z" transform="translate(-197.21 -67.92)"/><path class="cls-14" d="M2403.94,1679.3c.06-1.16.14-2.28.27-3.31,5.88-45,110-324.45,77.63-359.79s-114.09-30.11-114.09-30.11-102.08,12.85-113.84,25.7-60.76,143.47-66.64,175.59c-2.66,14.53-8.81,105.4-14.75,200.56C2237.35,1683.39,2322.6,1679.58,2403.94,1679.3Z" transform="translate(-197.21 -67.92)"/><path class="cls-25" d="M2340.53,1176.61s.42,2.41,1.18,6.52c3.65,19.69,17.68,85,27.17,103,11.45,21.71-39.23,90.95-88,82.5-14.52-2.52,12.27-63.62,11-70.1-2.47-12.39-5.81-29.29-9.23-46.62-1.93-9.78-3.89-19.69-5.72-29-5.22-26.47-9.48-48.13-9.48-48.13Z" transform="translate(-197.21 -67.92)"/><path class="cls-24" d="M2341.71,1183.13c-.76-4.11-1.18-6.52-1.18-6.52l-73.11-1.83s4.26,21.66,9.48,48.13c1.82,9.27,3.77,19.12,5.69,28.85,11.28-1.67,23.08-7.17,34.9-17.54a92.43,92.43,0,0,0,26.44-39.42C2343,1190.17,2342.28,1186.18,2341.71,1183.13Z" transform="translate(-197.21 -67.92)"/><path class="cls-25" d="M2277.31,1018.33s34.35-4.85,56.64,22.6,47.75,113.42-4.71,161.83-106.79-3.53-116.07-59.81S2199.12,1018.26,2277.31,1018.33Z" transform="translate(-197.21 -67.92)"/><path class="cls-26" d="M2404.21,1676c1.14-8.7,6-26.2,12.75-49a60.48,60.48,0,0,1-36.3-8.73c-45.68-28,4.41-246.07,25.87-332.42-8.45-.81-15.39-1.52-23.78,0-8.15,48.09-40.75,164.48-40.75,164.48-17.79,2.54-115.65,6.93-116.66-4.42-1.33-15,50.37-143.21,50.42-143.32-13,3.28-17.78,3.54-21,7.08-11.77,12.85-61.59,145.59-67.47,177.71s-28.82,445.76-28.82,445.76h314.42S2398.33,1721,2404.21,1676Z" transform="translate(-197.21 -67.92)"/><path class="cls-25" d="M2197.28,1142.51c6.72,12.31,17.64,19,24.39,14.82s6.79-17.45.08-29.76-17.64-19-24.4-14.83S2190.57,1130.2,2197.28,1142.51Z" transform="translate(-197.21 -67.92)"/><path class="cls-4" d="M2273.23,1009.17s48.08,81.16,81.1,84.14,38.44,46.61,38.44,46.61-14.3-100.49-47.38-119.11S2273.23,1009.17,2273.23,1009.17Z" transform="translate(-197.21 -67.92)"/><ellipse class="cls-25" cx="2363.18" cy="1117.26" rx="26.92" ry="17.23" transform="translate(727.91 3232.2) rotate(-81.93)"/><path class="cls-27" d="M2265,1180.09l42.87-9.76s2.72,16.5-16,21.34C2269.06,1197.57,2265,1180.09,2265,1180.09Z" transform="translate(-197.21 -67.92)"/><path class="cls-12" d="M2330.57,1027.78c-109.2-43.8-213.89-43.65-246-2.06,40.18-31.67,136.38-28.41,236.38,11.7,118.37,47.47,197.23,128.6,176.14,181.21a48,48,0,0,1-6.52,11.35,50.79,50.79,0,0,0,16.15-21C2527.81,1156.39,2449,1075.26,2330.57,1027.78Z" transform="translate(-197.21 -67.92)"/><path class="cls-12" d="M2330.57,1027.78c45.23,18.14,84.68,41.19,115,65.69a142.36,142.36,0,0,0,1-16.62A140.86,140.86,0,0,0,2191,995.07C2232.35,997.07,2281,1007.9,2330.57,1027.78Z" transform="translate(-197.21 -67.92)"/><path class="cls-26" d="M2214.53,969.49A142.05,142.05,0,0,0,2191,995.07c41.34,2,90,12.83,139.56,32.71,45.23,18.14,84.68,41.19,115,65.69a142.36,142.36,0,0,0,1-16.62c0-3.71-.15-7.38-.43-11C2375.07,998.29,2271.51,976.49,2214.53,969.49Z" transform="translate(-197.21 -67.92)"/><path class="cls-4" d="M1851.31,1457.26h262.88c6.65,0,13.75,5.4,15.86,12l110.85,349.34c2.11,6.65-1.57,12-8.22,12H1969.81c-6.65,0-13.76-5.39-15.87-12l-110.85-349.34C1841,1462.66,1844.66,1457.26,1851.31,1457.26Z" transform="translate(-197.21 -67.92)"/><path class="cls-27" d="M2021.91,1569.38c2.72,10.41-2,20.65-10.45,22.87s-17.59-4.4-20.32-14.81,1.95-20.65,10.45-22.88S2019.18,1559,2021.91,1569.38Z" transform="translate(-197.21 -67.92)"/><path class="cls-25" d="M1922.81,1754.76c-3.27-6.5-5.84-23.23-7.6-28.91-.88-2.85-2-6.71-2.8-10.31a9.58,9.58,0,0,1,5.84-10.94c6-2.4,14.21-5.77,17.06-5.62,4.43.24,10.54,9.6,10,13.4,0,0,.33,1,2.57,1.29s6.61,3.61,7.69,6.35.91,8.14-2.62,10c0,0-1.51,1.27-1.38,2s3.22,3.65,4.11,7.24-.68,7.17-6.11,10.25c0,0,10.32,9.67-1.24,16.13l-5.3,3a11.24,11.24,0,0,1-15.41-4.55C1925.84,1760.63,1924,1757.18,1922.81,1754.76Z" transform="translate(-197.21 -67.92)"/><path class="cls-25" d="M2106.55,1709.83c1.73-1.59,1.42-2.63,1.42-2.63-2.72-2.93-3.08-14.58.57-17.43s23.32-6.09,25-7.38,4.66-4,7.5-4.5,22.72-10.87,26.74-11.58,17.91,4.63,26.14,5.61,21.26,8.42,25,10.2c2.79,1.33,56.84-7.37,70.8-9.44,15.15-2.24,26.77-4.9,26.77-4.9s88-22.94,180.4-40l-25-74.9,86.53-20.35c10.69,42.87,33.93,109.29,36.88,129.76,5.79,40.27-132.49,51.2-255.1,58.88h0c-13.49.85-26.21,1.57-37.82,2.2-15.75,1.45-41.91,6-54,8h0c-7.51,1.92-17.79,4.65-19,5.47-2,1.33-15.62,5.47-16.81,5.67s-5.73,3.46-7.69,4.79-29.81,5.29-34.31,6.09-14.78-.79-14.78-.79l-18.71,1.86c-13.73,1.36-10.67-13-10.67-13-6.49.6-10-1.53-11.35-5.13s-.5-8-.8-8.64-2.35-.87-2.35-.87c-4.11.55-7.48-4-8.19-7S2104.81,1711.42,2106.55,1709.83Z" transform="translate(-197.21 -67.92)"/><path class="cls-20" d="M1685.09,1497.91s10,38.74,8.7,40.48,10,10.47,11.78,14c0,0-10-5.81-14.25-6.25s-20.21,7.27-36.64,8.58c0,0,11-3.2,16.29-7s11.34-4.36,10.61-4.66-9-1.3-17.3,1-19.78-.29-19.78-.29,14.4-1.16,20.36-3.34,21.08-1.89,21.08-1.89l-9.16-39.66Z" transform="translate(-197.21 -67.92)"/><path class="cls-20" d="M1635.61,1500.23s-19.55,33.71-20.86,35.46,10,10.47,11.78,14c0,0-10-5.82-14.25-6.26s-20.21,7.27-36.64,8.58c0,0,11-3.2,16.28-7s11.35-4.36,10.62-4.65-9-1.31-17.3,1-19.78-.29-19.78-.29,14.4-1.17,20.36-3.35,21.08-1.89,21.08-1.89l18.27-36.71Z" transform="translate(-197.21 -67.92)"/><path class="cls-28" d="M1659.09,1485.74s-8.69,19.54-20.58,20.06-14.49,4.87-20-2.38-15.94-28.41-23.48-36.81S1653.88,1474.72,1659.09,1485.74Z" transform="translate(-197.21 -67.92)"/><path class="cls-11" d="M1563.14,1318.77s13.34.86,27,22,20.58,35.07,34.21,36.52,35.94-6.37,52.18-5.22,31-4.92,40-16.81,30.44-23.19,36.82-15.65,0,24.06,0,24.06,7.24.87.87,12.17-9,14.21-9,14.21,8.41-3.48,3.77,6.38a51.71,51.71,0,0,1-11.31,15.65s6.38,0-1.74,11c0,0,6.38,7.83-6.37,9.28,0,0,1.15,8.12-3.48,13.63,0,0,2.9,15.36-4.64,23.76s-27.25,26.09-33.34,30.44-12.17,7.83-20,3.77-26.09-25.51-43.48-29-38.85-.58-56.24-25.22-29.86-69.28-20.87-86.09S1528.94,1314.13,1563.14,1318.77Z" transform="translate(-197.21 -67.92)"/><path class="cls-11" d="M1539,1333.55c-.38,0-7.92,1-12.7,11.5,0,0,14.15-2.8,17.05-2.76s.29-6.42,0-6.57Z" transform="translate(-197.21 -67.92)"/><path class="cls-24" d="M1540,1328.48s4.25-8.17,11.21-6.33,4.35,9.27,3.67,10.43-2.22,4.64.2,5.51,8.4-5.22,9.37-3.57.48,13.33-7.06,12-.77,2.32-1.45,8.31-2.6,12.17-10.53,7-4.06-19.72-4.15-23-6.86-1.64-11.21-4.54-4.35-15.85-.58-19.33,7-7.44,10.53-10.72,3.58-6.09,10.63-4.06,16.33-5.22,20.78,1.06,5.89,11.79,1,14.88-7,3.14-7,3.14S1548.55,1316,1540,1328.48Z" transform="translate(-197.21 -67.92)"/><path class="cls-28" d="M1587.49,1397s3.63,44.35,27.4,46.67,46.52,18.55,61.6,14.78,25.22-9.13,31-29.28c0,0-7,19.13-22.9,22s-37-8.84-46.67-9.85-22.16-.23-29.28-5.8C1591.25,1422,1589.5,1405.59,1587.49,1397Z" transform="translate(-197.21 -67.92)"/><path class="cls-29" d="M1239,1156l-89.35,81.83s36.07-74.71,68.32-118.82C1218,1119,1234.44,1145.51,1239,1156Z" transform="translate(-197.21 -67.92)"/><rect class="cls-30" x="362.85" y="313.76" width="1353.88" height="862.87" rx="66.61"/><path class="cls-30" d="M1357.44,944.25c2.52-2,5-4.19,7.53-6.2a2.38,2.38,0,0,1,2-.3c3.49,1.42,6.9,3,10.39,4.43,1,.41,1.5.81,1.59,1.93.31,3.95.73,7.89,1.12,11.84.06.64.14,1.27.27,2.38l17.69-.14c.46-4.79,1-9.13,1.28-13.49a2.6,2.6,0,0,1,2.13-2.79c3.29-1.07,6.44-2.6,9.68-3.85a2.12,2.12,0,0,1,1.77.25c3.17,2.47,6.35,4.94,9.37,7.6,1.44,1.27,2.46,1.16,3.7-.11a10.88,10.88,0,0,1,1.69-1.19l6.54-6.52a5.77,5.77,0,0,1,.49-.92c2.26-2.77,2-2.17-.05-4.77-2.56-3.16-5.17-6.28-7.42-9l5.56-13.67,15-1.46a57,57,0,0,0-.14-17.63c-4.71-.45-9.3-.9-13.9-1.32a1.56,1.56,0,0,1-1.62-1.19c-1.32-3.65-2.75-7.28-4.32-10.83a1.84,1.84,0,0,1,.33-2.31c2.6-3.14,5.13-6.34,7.72-9.5a1.58,1.58,0,0,0,.11-2.3A50.46,50.46,0,0,0,1425,852.61c-.81-.6-1.34-.28-2,.27-3,2.56-6.12,5-9.14,7.62a2,2,0,0,1-2.59.33c-3.92-1.88-8-3.53-12.26-5.41-.43-4.39-.91-9.38-1.4-14.37a52.85,52.85,0,0,0-17.83,0c-.46,5.14-.92,10.15-1.33,14.68-3.87,1.73-7.51,3.25-11,5a2.54,2.54,0,0,1-3.28-.36c-3-2.55-6-5-9.05-7.44-.6-.48-1.24-1.27-2.12-.37l-10.83,11c-.77.78-.63,1.46.07,2.28,2.61,3.06,5.09,6.24,7.75,9.25,1,1.16.82,2,.25,3.27a91.51,91.51,0,0,0-3.83,9.5,2.22,2.22,0,0,1-2.37,1.89c-4.48.31-8.94.8-13.31,1.21-1,3.48-1,13.86.15,17.92,4.54.4,9.13.85,13.73,1.17,1.15.08,1.51.53,1.91,1.55,1.29,3.29,2.81,6.49,4.13,9.76a2.34,2.34,0,0,1-.2,2c-2.23,2.84-4.56,5.6-6.89,8.35-1.3,1.54-1.83,2.16-1.58,3l11.57,11.6C1354.64,946.52,1355.4,945.91,1357.44,944.25Zm13.18-26.13a26.52,26.52,0,0,1,.05-37.5h0a26.51,26.51,0,0,1,37.49,0h0a26.51,26.51,0,0,1-.05,37.49h0a26.51,26.51,0,0,1-37.49,0Z" transform="translate(-197.21 -67.92)"/><path class="cls-30" d="M1417.22,827.58c1.49-1.22,2.93-2.48,4.44-3.66a1.39,1.39,0,0,1,1.17-.18c2.05.84,4.06,1.79,6.13,2.62.6.23.88.47.93,1.13.18,2.33.43,4.66.66,7,0,.38.09.76.16,1.41l10.43-.09c.28-2.82.57-5.38.75-7.95a1.55,1.55,0,0,1,1.26-1.65c1.94-.63,3.8-1.53,5.71-2.26a1.25,1.25,0,0,1,1.05.14c1.87,1.46,3.74,2.91,5.52,4.48a1.34,1.34,0,0,0,2.18-.06,6.65,6.65,0,0,1,1-.71l3.85-3.84a3.55,3.55,0,0,1,.3-.54c1.32-1.64,1.2-1.28,0-2.81-1.51-1.87-3-3.71-4.37-5.31l3.28-8.06,8.83-.86a33.58,33.58,0,0,0-.08-10.4c-2.78-.26-5.49-.53-8.2-.77a.93.93,0,0,1-1-.71c-.78-2.15-1.62-4.29-2.55-6.38a1.08,1.08,0,0,1,.19-1.36c1.54-1.86,3-3.75,4.55-5.61a.92.92,0,0,0,.07-1.35,29.73,29.73,0,0,0-6.43-6.24c-.48-.36-.79-.17-1.18.16-1.79,1.5-3.61,3-5.38,4.49a1.17,1.17,0,0,1-1.53.19c-2.31-1.11-4.69-2.08-7.23-3.18-.25-2.6-.54-5.54-.83-8.48a30.91,30.91,0,0,0-10.51,0c-.27,3-.54,6-.79,8.65-2.28,1-4.42,1.92-6.5,2.95a1.49,1.49,0,0,1-1.93-.21c-1.75-1.51-3.55-2.94-5.34-4.39-.36-.28-.73-.74-1.25-.22L1408.2,780c-.45.46-.37.86,0,1.34,1.54,1.81,3,3.68,4.57,5.46a1.49,1.49,0,0,1,.15,1.93,56.3,56.3,0,0,0-2.26,5.59,1.3,1.3,0,0,1-1.4,1.12c-2.63.19-5.27.47-7.84.71-.62,2.06-.56,8.18.08,10.57,2.68.24,5.39.5,8.1.69.68,0,.89.32,1.13.92.76,1.94,1.66,3.82,2.44,5.75a1.38,1.38,0,0,1-.13,1.16c-1.31,1.67-2.68,3.3-4.06,4.92-.77.91-1.08,1.27-.93,1.76l6.82,6.84C1415.57,828.92,1416,828.56,1417.22,827.58Zm7.78-15.42a15.64,15.64,0,0,1,0-22.11h0a15.64,15.64,0,0,1,22.11,0h0a15.63,15.63,0,0,1,0,22.11h0a15.61,15.61,0,0,1-22.1,0Z" transform="translate(-197.21 -67.92)"/><rect class="cls-31" x="1422.54" y="868.06" width="53.32" height="275.46"/><rect class="cls-31" x="1348.08" y="950.53" width="53.32" height="191.44"/><rect class="cls-31" x="1498.07" y="927.74" width="53.32" height="215.78"/><rect class="cls-31" x="1273.62" y="917.7" width="53.32" height="224.27"/><rect class="cls-31" x="1199.17" y="984.2" width="53.32" height="157.78"/><g class="cls-32"><rect class="cls-27" x="1422.54" y="930" width="53.32" height="213.53"/><rect class="cls-27" x="1348.08" y="994.65" width="53.32" height="147.32"/><rect class="cls-27" x="1498.07" y="975.92" width="53.32" height="167.6"/><rect class="cls-27" x="1273.62" y="969.39" width="53.32" height="172.58"/><rect class="cls-27" x="1199.17" y="1020.56" width="53.32" height="121.41"/></g><polygon class="cls-27" points="1185.7 1147.9 1173.59 1143.71 1207.69 1099.78 1227.36 1110.42 1267.27 1059.67 1316.75 1095.51 1406.53 963.91 1456.83 1017.56 1548.13 922.81 1559.6 927.74 1456.66 1034.55 1408.43 983.1 1320.65 1111.77 1270.35 1075.34 1231.7 1124.49 1212.1 1113.88 1185.7 1147.9"/><polygon class="cls-27" points="1557.06 947.09 1544.72 934.96 1523.09 932.48 1566.01 912.9 1557.06 947.09"/><path class="cls-31" d="M1303.14,824a174,174,0,0,0-29.84.9c-64.55,8-119.88,59-166.1,114.39-10,12-20.78,24.92-34.65,27.37-16.76,2.94-32.36-10.35-44.84-24.27-21.81-24.33-45.43-55.15-74.81-50.94-21,3-36.92,23.45-52.32,41.11s-35.42,34.73-56,28.79c-18.34-5.29-31.93-23.55-47-37.31-33.95-31-73.19-2.13-97,26v43.81h602.63Z" transform="translate(-197.21 -67.92)"/><rect class="cls-30" x="533.41" y="728.18" width="42.98" height="6.06"/><rect class="cls-30" x="533.41" y="741.99" width="39.47" height="6.06"/><rect class="cls-30" x="1010.21" y="764.11" width="34.04" height="6.06" transform="translate(1857.27 1466.35) rotate(180)"/><rect class="cls-30" x="1001.28" y="777.91" width="42.98" height="6.06" transform="translate(1848.33 1493.97) rotate(180)"/><rect class="cls-30" x="975.41" y="659.37" width="42.98" height="6.06"/><rect class="cls-30" x="989.44" y="673.18" width="28.95" height="6.06"/><polygon class="cls-30" points="593.92 779.22 578.87 748.53 579.52 748.05 594.58 778.74 593.92 779.22"/><polygon class="cls-30" points="784.8 747.22 799.86 716.53 799.2 716.05 784.14 746.75 784.8 747.22"/><polygon class="cls-30" points="973.36 713.93 988.42 683.24 987.76 682.76 972.71 713.45 973.36 713.93"/><rect class="cls-31" x="866.97" y="516.28" width="176.23" height="22.43"/><rect class="cls-31" x="866.97" y="549.57" width="176.23" height="22.43"/><rect class="cls-31" x="866.97" y="582.86" width="176.23" height="22.43"/><rect class="cls-30" x="866.97" y="516.28" width="33.31" height="22.43"/><rect class="cls-30" x="866.97" y="549.57" width="81.71" height="22.43"/><rect class="cls-30" x="866.97" y="582.86" width="39.23" height="22.43"/><circle class="cls-31" cx="1339.77" cy="609.3" r="63.91" transform="matrix(0.16, -0.99, 0.99, 0.16, 326.53, 1766.25)"/><path class="cls-30" d="M1498.35,545.6a63.89,63.89,0,0,0,0,127.39Z" transform="translate(-197.21 -67.92)"/><path class="cls-31" d="M1508.3,545.6V673a63.89,63.89,0,0,0,0-127.39Z" transform="translate(-197.21 -67.92)"/><path class="cls-30" d="M1662.89,545.52a63.9,63.9,0,0,0,0,127.55Z" transform="translate(-197.21 -67.92)"/><path class="cls-27" d="M1670.88,608.17l51.86-29.94a63.91,63.91,0,0,0-51.86-32.71Z" transform="translate(-197.21 -67.92)"/><path class="cls-31" d="M1670.88,617.41v55.66a63.91,63.91,0,0,0,55.31-87.59Z" transform="translate(-197.21 -67.92)"/><rect class="cls-30" x="1310.51" y="678.97" width="250.44" height="15.64"/><rect class="cls-30" x="1310.51" y="706.93" width="250.44" height="3.83"/><rect class="cls-30" x="1310.51" y="721.6" width="250.44" height="3.83"/><rect class="cls-30" x="1310.51" y="736.28" width="250.44" height="3.83"/><rect class="cls-30" x="1310.51" y="750.95" width="250.44" height="3.83"/><rect class="cls-30" x="1310.51" y="765.62" width="250.44" height="3.83"/><rect class="cls-30" x="1310.51" y="780.29" width="250.44" height="3.83"/><rect class="cls-30" x="1310.51" y="794.97" width="250.44" height="3.83"/><rect class="cls-30" x="1310.51" y="809.64" width="250.44" height="3.83"/><rect class="cls-30" x="1310.51" y="824.31" width="250.44" height="3.83"/><rect class="cls-30" x="1310.51" y="838.98" width="250.44" height="3.83"/><rect class="cls-30" x="1518" y="433.69" width="48.01" height="5.56"/><rect class="cls-30" x="1357.76" y="630.46" width="48.01" height="5.56"/><rect class="cls-30" x="1357.76" y="619.84" width="24.01" height="5.56"/><rect class="cls-30" x="1375.91" y="448.89" width="48.01" height="5.56"/><rect class="cls-30" x="1375.91" y="438.27" width="24.01" height="5.56"/><rect class="cls-30" x="1533.67" y="446.36" width="32.35" height="5.56"/><rect class="cls-30" x="1704.56" y="536.94" width="32.8" height="0.85" transform="translate(179.93 1671.37) rotate(-59.15)"/><rect class="cls-30" x="1589.49" y="680.45" width="32.8" height="0.85" transform="translate(0.64 1642.46) rotate(-59.15)"/><rect class="cls-30" x="1206.47" y="635.77" width="48.01" height="5.56"/><rect class="cls-30" x="1206.47" y="625.15" width="24.01" height="5.56"/><rect class="cls-30" x="1431.79" y="686.43" width="32.8" height="0.85" transform="translate(-81.3 1510.04) rotate(-59.15)"/><rect class="cls-30" x="1541.79" y="530.87" width="32.8" height="0.85" transform="translate(105.81 1528.65) rotate(-59.15)"/><rect class="cls-30" x="1208.29" y="448.89" width="48.01" height="5.56"/><rect class="cls-30" x="1208.29" y="438.27" width="24.01" height="5.56"/><rect class="cls-30" x="1208.29" y="460.6" width="34.56" height="5.56"/><rect class="cls-30" x="1374.17" y="530.87" width="32.8" height="0.85" transform="translate(24.15 1384.75) rotate(-59.15)"/><g class="cls-32"><rect class="cls-27" x="527.4" y="1014.45" width="14" height="80.15"/><rect class="cls-27" x="552.63" y="1024.47" width="14" height="60.12"/><rect class="cls-27" x="577.85" y="1014.45" width="14" height="80.15"/><rect class="cls-31" x="603.08" y="977.53" width="14" height="151.52"/><rect class="cls-27" x="628.3" y="999.15" width="14" height="110.74"/><rect class="cls-31" x="856.26" y="977.53" width="14" height="151.52"/><rect class="cls-27" x="881.49" y="1007.06" width="14" height="94.92"/><rect class="cls-27" x="904.96" y="1032.38" width="14" height="44.29"/><rect class="cls-27" x="927.68" y="1019.19" width="14" height="70.66"/><rect class="cls-31" x="950.89" y="981.94" width="14" height="145.16"/><rect class="cls-27" x="974.82" y="1024.47" width="14" height="60.12"/><rect class="cls-27" x="999.61" y="1007.06" width="14" height="94.92"/><rect class="cls-31" x="1022.69" y="977.53" width="14" height="153.98"/><rect class="cls-27" x="1045.37" y="1007.06" width="14" height="90.17"/><rect class="cls-27" x="1069.05" y="1029.09" width="14" height="46.11"/><rect class="cls-27" x="1091.93" y="1038.53" width="14" height="27.25"/><rect class="cls-27" x="503.3" y="1032.38" width="14" height="39.55"/><rect class="cls-31" x="752.98" y="977.53" width="14" height="151.52"/><rect class="cls-27" x="778.2" y="999.15" width="14" height="110.74"/><rect class="cls-27" x="653.52" y="1024.47" width="14" height="60.12"/><rect class="cls-27" x="678.75" y="1032.38" width="14" height="44.29"/><rect class="cls-27" x="805.49" y="1024.47" width="14" height="60.12"/><rect class="cls-27" x="830.71" y="1007.06" width="14" height="94.92"/><rect class="cls-27" x="703.97" y="1019.19" width="14" height="70.66"/><rect class="cls-27" x="729.2" y="1007.06" width="14" height="94.92"/></g><g class="cls-32"><path class="cls-27" d="M636.49,525.48l15.07-4.05q.68,5.52,3.15,8.52a7.79,7.79,0,0,0,6.3,3,6.93,6.93,0,0,0,5.49-2.42,9.34,9.34,0,0,0,2.1-6.35,12.65,12.65,0,0,0-2.16-7q-2.16-3.31-9.93-9.9-10.68-9-14.45-15.21a25,25,0,0,1-3.77-13.25q0-10.29,6.33-16.59t16.62-6.3q9.84,0,15.83,4.93t7.79,14.53l-14,4.84q-.61-5.34-2.78-8.1a6.92,6.92,0,0,0-5.71-2.76,7,7,0,0,0-5.37,2.2,8.12,8.12,0,0,0-2,5.79q0,6.3,11.19,15.52c1.8,1.5,3.18,2.65,4.16,3.43q8,7,11.33,12.94a26.29,26.29,0,0,1,3.29,13q0,11.6-6.61,18.36t-17.91,6.78q-10,0-16.22-5.76T636.49,525.48Z" transform="translate(-197.21 -67.92)"/><path class="cls-27" d="M694.76,545.62v-88H714l9.34,41.51q1.35,5.67,2.13,10.18t1.3,8.88l.84.06c.53-3.71,1.07-7.1,1.63-10.15s1.13-5.71,1.69-8l10.74-42.52H760.5v88H744.75l.23-30.2q.06-8.55.81-18.79T748,474.42h-1q-1.69,9.27-3,16c-.88,4.49-1.57,7.79-2.05,9.89l-8.1,34.08H720.57l-8.32-36q-1.25-5.13-2.39-11t-2.34-13h-1q1.41,12.87,2.19,23.39t.9,17.61l.57,30.2Z" transform="translate(-197.21 -67.92)"/><path class="cls-27" d="M768.94,545.62l20-88h18.39l19.46,88H808.81l-2.42-14.29H788.9L786,545.62ZM791.43,518h12.43l-4.05-27.73q-.45-3.37-.87-8.49t-.7-11.42h-1.07q-.55,7.49-1.07,13.1t-.79,7.15Z" transform="translate(-197.21 -67.92)"/><path class="cls-27" d="M836.2,545.62v-88h21.2q13.89,0,21,6.24t7.11,18.45q0,8.43-3.71,14.2a19.31,19.31,0,0,1-10.57,8l15.86,41.11H869.38l-14.84-41.45H852.9v41.45Zm16.7-50.34q.35,0,1,.06c.43,0,.76.05,1,.05q6.52,0,10.13-3.29t3.6-9.25q0-6-3.55-9t-10.4-3.07H852.9Z" transform="translate(-197.21 -67.92)"/><path class="cls-27" d="M905.32,545.62V472.34H891.88V457.6H936v14.74H922.36v73.28Z" transform="translate(-197.21 -67.92)"/></g><g class="cls-32"><path class="cls-27" d="M642.12,666.34v-88h37v13.83H659.16v21.09h19.91v13.61H659.16v39.48Z" transform="translate(-197.21 -67.92)"/><path class="cls-27" d="M683,666.34l20-88H721.3l19.46,88H722.82l-2.42-14.28H702.91L700,666.34Zm22.49-27.67h12.43l-4-27.72q-.45-3.37-.87-8.5t-.7-11.41h-1.07q-.57,7.47-1.07,13.1t-.79,7.14Z" transform="translate(-197.21 -67.92)"/><path class="cls-27" d="M750.21,666.34v-88h21.2q13.89,0,21,6.24T799.53,603q0,8.43-3.71,14.2a19.29,19.29,0,0,1-10.57,8l15.86,41.11H783.39l-14.85-41.45h-1.63v41.45ZM766.91,616c.23,0,.56,0,1,0s.76.06,1,.06q6.52,0,10.13-3.29t3.59-9.25c0-4-1.18-7-3.54-9s-5.83-3.06-10.4-3.06h-1.75Z" transform="translate(-197.21 -67.92)"/><path class="cls-27" d="M811.74,666.34v-88H831l9.34,41.5q1.35,5.68,2.13,10.18t1.3,8.89l.84.05q.79-5.57,1.63-10.15c.56-3,1.13-5.71,1.69-8l10.74-42.51h18.84v88H861.73l.23-30.2q.06-8.55.81-18.78t2.17-22.22h-1q-1.7,9.29-3,16c-.88,4.5-1.57,7.8-2,9.9l-8.1,34.08H837.55l-8.32-36q-1.25-5.11-2.39-11t-2.34-13h-1q1.41,12.89,2.19,23.4t.9,17.6l.57,30.2Z" transform="translate(-197.21 -67.92)"/><path class="cls-27" d="M909.43,666.34h-17v-88h17Z" transform="translate(-197.21 -67.92)"/><path class="cls-27" d="M924.05,666.34v-88h17l11.64,41.95q.9,3.09,2.76,11t4.38,19.65H961q-2.09-16-3.26-28.34t-1.18-18.34V578.33H972v88H955.26L944,627.14c-.15-.56-.42-1.5-.79-2.81a248.92,248.92,0,0,1-6.8-28.57h-1q2,15.86,3.1,28.35t1.07,20.8v21.43Z" transform="translate(-197.21 -67.92)"/><path class="cls-27" d="M1009.42,627.42V613.48h27.28v18.67q0,17.43-6.86,26.68t-19.74,9.26q-13.17,0-19.55-11.14t-6.38-34.14q0-23.85,6.69-35.06t20.81-11.22q9.17,0,14.74,4.44t8.43,13.95l-15.18,5.28q-1.08-4.89-3.07-7.14a6.69,6.69,0,0,0-5.26-2.25q-5.22,0-7.39,6.86t-2.17,25.14q0,17.67,2.08,24.27t7.15,6.61c2.77,0,4.91-1.59,6.41-4.75s2.25-7.7,2.25-13.59v-7.93Z" transform="translate(-197.21 -67.92)"/></g><path class="cls-27" d="M1844.66,1256.5H629.32a81.32,81.32,0,0,1-81.23-81.23V450.94a81.32,81.32,0,0,1,81.23-81.23H1844.66a81.32,81.32,0,0,1,81.23,81.23v724.33A81.32,81.32,0,0,1,1844.66,1256.5ZM629.32,393.63A57.38,57.38,0,0,0,572,450.94v724.33a57.38,57.38,0,0,0,57.31,57.31H1844.66a57.38,57.38,0,0,0,57.31-57.31V450.94a57.38,57.38,0,0,0-57.31-57.31Z" transform="translate(-197.21 -67.92)"/><path class="cls-30" d="M1273.3,756.47c-64.55,8-119.88,59-166.1,114.39-10,12-20.78,24.93-34.65,27.37-16.76,2.94-32.36-10.35-44.84-24.27-21.81-24.33-45.43-55.15-74.81-50.94-21,3-36.92,23.45-52.32,41.11s-35.42,34.73-56,28.79c-18.34-5.29-31.93-23.54-47-37.31-33.95-31-73.19-2.13-97,26v68.46c23.86-28.13,63.1-57,97-26,15.08,13.76,28.67,32,47,37.31,20.59,5.94,40.62-11.12,56-28.79s31.32-38.1,52.32-41.11c29.38-4.21,53,26.61,74.81,50.94,12.48,13.92,28.08,27.21,44.84,24.27,13.87-2.45,24.67-15.39,34.65-27.37,46.22-55.43,101.55-106.44,166.1-114.39a174,174,0,0,1,29.84-.9V755.57A174,174,0,0,0,1273.3,756.47Z" transform="translate(-197.21 -67.92)"/><polygon class="cls-27" points="1612.54 1171.93 1699.67 1326.42 1689.47 1163.75 1612.54 1171.93"/><path class="cls-30" d="M1257,309.22A39.37,39.37,0,0,0,1208.73,280a58,58,0,0,0-69.7-30.79,71.41,71.41,0,0,0-128.27,12.47A49,49,0,0,0,938,304.47c0,1.6.08,3.19.23,4.75Z" transform="translate(-197.21 -67.92)"/><path class="cls-30" d="M364.79,732a19,19,0,0,1,18.47-14.7,19.32,19.32,0,0,1,4.78.61,27.91,27.91,0,0,1,33.57-14.82,34.38,34.38,0,0,1,61.76,6,23.6,23.6,0,0,1,35.06,20.62c0,.77,0,1.53-.11,2.29Z" transform="translate(-197.21 -67.92)"/><path class="cls-30" d="M1493.76,242.63a23.3,23.3,0,0,0-22.7-18.06,23.75,23.75,0,0,0-5.88.75,34.33,34.33,0,0,0-41.25-18.22,42.25,42.25,0,0,0-75.9,7.39,29,29,0,0,0-43.09,25.33c0,1,0,1.89.14,2.81Z" transform="translate(-197.21 -67.92)"/><path class="cls-30" d="M490,868.59a31.48,31.48,0,0,0-38.58-23.37,46.31,46.31,0,0,0-55.71-24.61,57.07,57.07,0,0,0-102.51,10A39.14,39.14,0,0,0,235,864.79c0,1.29.06,2.55.18,3.8Z" transform="translate(-197.21 -67.92)"/></g></g></svg>