<svg id="OBJECTS" xmlns="http://www.w3.org/2000/svg" xmlns:xlink="http://www.w3.org/1999/xlink" viewBox="0 0 419.22 399.2"><defs><style>.cls-1,.cls-4{fill:#fff;}.cls-1{opacity:0.34;}.cls-2{fill:#9ee47d;}.cls-3{fill:#e8fdff;}.cls-5{fill:#95e271;}.cls-6{fill:#17906d;}.cls-7{fill:#c0e2b0;}.cls-8{fill:#d9ffc7;}.cls-9{fill:#0a433a;}.cls-10{fill:#005344;}.cls-11{fill:#7cc55a;}.cls-12{fill:#8cdf66;}.cls-13{fill:#1baa81;}.cls-14{fill:#0e5d50;}.cls-15{fill:#57b553;}.cls-16{fill:#f1ffeb;}.cls-17{fill:#ecff80;}.cls-18{opacity:0.24;fill:url(#linear-gradient);}</style><linearGradient id="linear-gradient" x1="252.1" y1="344.26" x2="160.39" y2="198.81" gradientUnits="userSpaceOnUse"><stop offset="0" stop-color="#fff" stop-opacity="0"/><stop offset="1" stop-color="#ecff80"/></linearGradient></defs><path class="cls-1" d="M455.88,148.75c-1.47-9-9-15.92-18-15.92-10.1,0-18.28,8.58-18.28,19.16a19.91,19.91,0,0,0,1.78,8.27A70,70,0,0,0,397.06,190a61,61,0,0,0-53.5,9.12,11.71,11.71,0,0,0-9.46-4.93c-6.58,0-11.91,5.59-11.91,12.48a12.85,12.85,0,0,0,2.41,7.5,19.69,19.69,0,0,0-12.82,18.71,20.19,20.19,0,0,0,4.65,13c-.2,1.72-.35,3.46-.43,5.22-23.62-4.16-41.15,13.66-36,34.57-15.49-31.57-62.44-34.05-83.52-2.93-6.72-18.7-16.77-31.24-37.19-32.91,1.35-28.36-9.75-53.36-30.64-63-9.92-4.59-20.77-5.14-31.49-2.3q0-1.09,0-2.19c0-1.57,0-3.14-.12-4.69-1.94-36.55-56.68-34.72-56.68,1.88V314.7a28.37,28.37,0,0,0,28.37,28.37H419.05A39.92,39.92,0,0,0,459,302.51C458.07,245.54,456.44,148.73,455.88,148.75Z" transform="translate(-40.39 -50.4)"/><path class="cls-2" d="M459.61,306.67V376.6a72.73,72.73,0,0,1-20.73,50.95,71,71,0,0,1-6.68,6.06c-.74.6-1.49,1.18-2.25,1.73a71.16,71.16,0,0,1-11.42,6.92,72.57,72.57,0,0,1-31.93,7.34H113.4a73,73,0,0,1-73-73V346.85A48.88,48.88,0,0,1,85,298.12a163.24,163.24,0,0,1,36.43,1,109.51,109.51,0,0,0,57.82-7.46c21.8-9.15,50.47-9.55,73.13-4.1a106.28,106.28,0,0,0,69.37-6.94A266.27,266.27,0,0,1,406.07,258,48.87,48.87,0,0,1,459.61,306.67Z" transform="translate(-40.39 -50.4)"/><polygon class="cls-3" points="334.68 182.75 332.11 235.3 338.91 235.3 336.33 182.75 334.68 182.75"/><path class="cls-3" d="M374.07,235.23c-1.28-.07-8.34-.74-9.06-1.83a1.14,1.14,0,0,1,0-1.25c.72-1.09,7.78-1.76,9.06-1.83.58,0,2.09.43,2.09,1v2.89C376.16,234.8,374.65,235.25,374.07,235.23Z" transform="translate(-40.39 -50.4)"/><path class="cls-3" d="M378.34,230.27c1.72-10-4.7-16.4-13.1-22a.27.27,0,0,0-.36.39l4.42,4.87a22.78,22.78,0,0,1,4,8.49c1,4.29,1.56,8.24,3.78,9.66Z" transform="translate(-40.39 -50.4)"/><path class="cls-3" d="M377.71,232.19l.32,1.89c-3,3.92-9.35,1-22.77,13.22-.29.27-.71-.15-.48-.46C361.54,237.65,371.93,228.9,377.71,232.19Z" transform="translate(-40.39 -50.4)"/><path class="cls-3" d="M377.62,234.19l1.59-1c4.79,1.14,4.67,8.16,21.26,15.54a.34.34,0,0,1-.24.63C389.11,246.81,376.92,240.81,377.62,234.19Z" transform="translate(-40.39 -50.4)"/><path class="cls-3" d="M377.55,235.23a4.47,4.47,0,0,0,3.39-1.83,1.18,1.18,0,0,0,0-1.25,4.47,4.47,0,0,0-3.39-1.83,1,1,0,0,0-1.06,1v2.89A1,1,0,0,0,377.55,235.23Z" transform="translate(-40.39 -50.4)"/><polygon class="cls-4" points="363.49 135.46 359.88 239.53 369.41 239.53 365.8 135.46 363.49 135.46"/><path class="cls-4" d="M402.48,188.77c-1.79-.09-11.68-1-12.69-2.56a1.61,1.61,0,0,1,0-1.74c1-1.53,10.9-2.48,12.69-2.56.81,0,2.93.59,2.93,1.4v4.05C405.41,188.17,403.29,188.81,402.48,188.77Z" transform="translate(-40.39 -50.4)"/><path class="cls-4" d="M408.46,181.83c2.4-14-6.58-23-18.34-30.74a.38.38,0,0,0-.5.55l6.18,6.81a31.55,31.55,0,0,1,5.64,11.88c1.42,6,2.19,11.54,5.29,13.52Z" transform="translate(-40.39 -50.4)"/><path class="cls-4" d="M407.58,184.53l.44,2.63c-4.15,5.5-13.08,1.4-31.86,18.51-.41.37-1-.21-.68-.65C385,192.16,399.49,179.91,407.58,184.53Z" transform="translate(-40.39 -50.4)"/><path class="cls-4" d="M407.44,187.32l2.24-1.46c6.7,1.6,6.53,11.42,29.74,21.75a.47.47,0,0,1-.32.88C423.52,205,406.46,196.59,407.44,187.32Z" transform="translate(-40.39 -50.4)"/><path class="cls-4" d="M407.36,188.77a6.19,6.19,0,0,0,4.73-2.56,1.61,1.61,0,0,0,0-1.74,6.16,6.16,0,0,0-4.73-2.56,1.41,1.41,0,0,0-1.49,1.4v4.05A1.41,1.41,0,0,0,407.36,188.77Z" transform="translate(-40.39 -50.4)"/><polygon class="cls-4" points="389.33 196.58 387.38 255.47 392.53 255.47 390.58 196.58 389.33 196.58"/><path class="cls-4" d="M430.33,249.66c-.58,0-3.75-.44-4.08-1.09a.87.87,0,0,1,0-.74c.33-.65,3.5-1.06,4.08-1.09.26,0,.94.25.94.6v1.72C431.27,249.41,430.59,249.68,430.33,249.66Z" transform="translate(-40.39 -50.4)"/><path class="cls-4" d="M431.27,247.34s-2.16-12.35-5.77-16.5c-.3-.35-.64-.1-.46.33a45.92,45.92,0,0,1,1.7,4.4c.49,1.72.91,7.09,1.39,8.54a11.9,11.9,0,0,0,2.48,3.4Z" transform="translate(-40.39 -50.4)"/><path class="cls-4" d="M432.22,247.37l20.33-4.87a.1.1,0,0,0,0-.2c-4.43.44-17.61,1.86-20.73,3.51C429.24,247.16,432.22,247.37,432.22,247.37Z" transform="translate(-40.39 -50.4)"/><path class="cls-4" d="M431.25,247.8c-3,8.7-6.17,16.79-11.28,20.36,0,0,4.34-7,5-10.18S428.6,247.42,431.25,247.8Z" transform="translate(-40.39 -50.4)"/><path class="cls-4" d="M431.88,249.66a2.66,2.66,0,0,0,2-1.09.66.66,0,0,0,0-.74,2.63,2.63,0,0,0-2-1.09.6.6,0,0,0-.63.6v1.72A.6.6,0,0,0,431.88,249.66Z" transform="translate(-40.39 -50.4)"/><polygon class="cls-5" points="91.65 171.7 111.49 151.86 137.04 151.86 137.04 173.47 151.74 173.47 163.5 161.71 200.34 161.71 211.79 173.16 211.79 219.5 224 219.5 224 158.01 239.17 142.84 252.9 156.57 252.9 237 261.85 237 261.85 174.1 293.85 174.1 293.85 201.01 322.42 201.01 322.42 222.46 348.59 222.46 348.59 250.12 362.53 250.12 362.53 260.12 381.19 260.12 381.19 288.76 50.12 288.76 50.12 252.49 80.45 252.49 80.45 260.12 91.65 260.12 91.65 171.7"/><polygon class="cls-6" points="317.55 241.99 307.38 252.95 266.56 252.95 276.74 241.99 317.55 241.99"/><polygon class="cls-6" points="308.46 231.77 301.92 238.82 275.66 238.82 282.2 231.77 308.46 231.77"/><polygon class="cls-7" points="301.92 238.82 301.92 249.04 308.46 241.99 310.69 241.99 310.69 234.18 308.46 231.77 301.92 238.82"/><rect class="cls-8" x="275.66" y="238.83" width="26.26" height="10.22"/><rect class="cls-7" x="266.56" y="252.95" width="40.82" height="36.03"/><polygon class="cls-8" points="317.55 241.99 328.2 252.64 328.2 288.98 307.38 288.98 307.38 252.95 317.55 241.99"/><rect class="cls-9" x="361.44" y="307.48" width="4.3" height="7.16" transform="translate(686.8 571.73) rotate(180)"/><rect class="cls-9" x="352.9" y="307.48" width="4.3" height="7.16" transform="translate(669.71 571.73) rotate(180)"/><rect class="cls-9" x="361.44" y="318.63" width="4.3" height="7.16" transform="translate(686.8 594.02) rotate(180)"/><rect class="cls-9" x="352.9" y="318.63" width="4.3" height="7.16" transform="translate(669.71 594.02) rotate(180)"/><polygon class="cls-9" points="306.94 235.56 306.94 241.68 304.66 244.15 304.66 238.02 306.94 235.56"/><path class="cls-9" d="M355.05,339.38h9.24V334a4.62,4.62,0,0,0-4.62-4.62h0a4.62,4.62,0,0,0-4.62,4.62Z" transform="translate(-40.39 -50.4)"/><polygon class="cls-6" points="212.1 207.36 199.25 221.29 177.46 221.29 190.31 207.36 212.1 207.36"/><polygon class="cls-6" points="194.19 236.71 199.32 231.15 177.53 231.15 172.4 236.71 194.19 236.71"/><rect class="cls-7" x="177.46" y="221.29" width="21.74" height="9.85"/><polygon class="cls-8" points="199.2 221.29 212.1 207.36 225.01 221.29 225.01 231.15 230.02 236.71 230.02 280.51 172.4 280.51 172.4 236.71 194.19 236.71 199.2 231.15 199.2 221.29"/><rect class="cls-7" x="172.4" y="236.71" width="21.8" height="43.8"/><path class="cls-10" d="M211.45,214.88h1.31a1.6,1.6,0,0,1,1.6,1.6V224a0,0,0,0,1,0,0h-4.5a0,0,0,0,1,0,0v-7.57A1.6,1.6,0,0,1,211.45,214.88Z"/><path class="cls-10" d="M204.3,234.53h.91a1.1,1.1,0,0,1,1.1,1.1v8.62a0,0,0,0,1,0,0h-3.11a0,0,0,0,1,0,0v-8.62a1.1,1.1,0,0,1,1.1-1.1Z"/><path class="cls-10" d="M215.78,246h.91a1.1,1.1,0,0,1,1.1,1.1v8.62a0,0,0,0,1,0,0h-3.11a0,0,0,0,1,0,0v-8.62A1.1,1.1,0,0,1,215.78,246Z"/><path class="cls-11" d="M432.2,380.77v52.84c-.74.6-1.49,1.18-2.25,1.73a71.16,71.16,0,0,1-11.42,6.92,72.57,72.57,0,0,1-31.93,7.34H113.4a73,73,0,0,1-73-73V332.87c.81-.47,1.62-.92,2.46-1.37,22.62-12.18,55.2-18,91.18-19.19,2.08-.08,4.19-.14,6.3-.18,66.65-1.33,143.41,12.2,189.66,29l3.37,1.25h0c11.65,4.42,21.17,9,27.82,13.65l6.54,2.28,21.35,7.44,6.95,2.42Z" transform="translate(-40.39 -50.4)"/><path class="cls-12" d="M140.33,312.13c-30,23.21-45.72,41.45-52,65.88l-22.64-2c17.64-27.5,39.94-49.36,68.36-63.74C136.11,312.23,138.22,312.17,140.33,312.13Z" transform="translate(-40.39 -50.4)"/><path class="cls-4" d="M348.81,175.88H277.22c7.53-2.21,14.75-3.45,21.45-3-.87-5.36,9.93-7.12,10.8-1.77-1.76-11.71,9.87-10.18,10.35-1.28-1.59-16.29,18.68-13.54,16.19,2.51C337.52,163.69,352.69,168.28,348.81,175.88Z" transform="translate(-40.39 -50.4)"/><polygon class="cls-3" points="73.05 198.5 75.63 251.05 68.82 251.05 71.4 198.5 73.05 198.5"/><path class="cls-3" d="M114.44,251c1.28-.07,8.34-.74,9.07-1.83a1.18,1.18,0,0,0,0-1.25c-.73-1.09-7.79-1.76-9.07-1.83-.58,0-2.09.43-2.09,1V250C112.35,250.55,113.86,251,114.44,251Z" transform="translate(-40.39 -50.4)"/><path class="cls-3" d="M110.17,246c-1.72-10,4.7-16.4,13.1-22a.27.27,0,0,1,.36.39l-4.42,4.87a22.78,22.78,0,0,0-4,8.49c-1,4.29-1.56,8.24-3.78,9.66Z" transform="translate(-40.39 -50.4)"/><path class="cls-3" d="M110.8,248l-.32,1.88c3,3.92,9.35,1,22.77,13.22.29.27.71-.15.48-.46C127,253.4,116.58,244.65,110.8,248Z" transform="translate(-40.39 -50.4)"/><path class="cls-3" d="M110.89,249.94l-1.59-1c-4.79,1.14-4.67,8.16-21.25,15.54a.34.34,0,0,0,.23.63C99.4,262.56,111.59,256.56,110.89,249.94Z" transform="translate(-40.39 -50.4)"/><path class="cls-3" d="M111,251a4.47,4.47,0,0,1-3.39-1.83,1.18,1.18,0,0,1,0-1.25,4.47,4.47,0,0,1,3.39-1.83,1,1,0,0,1,1.06,1V250A1,1,0,0,1,111,251Z" transform="translate(-40.39 -50.4)"/><polygon class="cls-9" points="247.2 216.76 242.04 222.38 226.06 222.38 231.22 216.76 247.2 216.76"/><polygon class="cls-9" points="277.93 249.44 267.62 260.69 242.04 260.69 252.35 249.44 277.93 249.44"/><polygon class="cls-8" points="252.35 249.44 252.35 222.38 247.2 216.76 242.04 222.38 242.04 260.69 252.35 249.44"/><polygon class="cls-7" points="267.62 260.69 277.93 249.44 288.24 260.69 288.24 297.33 226.06 297.33 226.06 222.38 242.04 222.38 242.04 260.69 267.62 260.69"/><rect class="cls-10" x="228.44" y="226.11" width="1.8" height="6.59"/><rect class="cls-10" x="235.34" y="226.11" width="1.8" height="6.59"/><rect class="cls-10" x="228.44" y="236.89" width="1.8" height="6.59"/><rect class="cls-10" x="235.34" y="236.89" width="1.8" height="6.59"/><rect class="cls-10" x="228.44" y="247.68" width="1.8" height="6.59"/><rect class="cls-10" x="235.34" y="247.68" width="1.8" height="6.59"/><rect class="cls-10" x="246.22" y="263.2" width="3.48" height="6.59"/><rect class="cls-10" x="253.26" y="263.2" width="3.48" height="6.59"/><rect class="cls-10" x="260.3" y="263.2" width="3.48" height="6.59"/><polygon class="cls-8" points="267.62 260.69 267.62 297.33 288.24 297.33 288.24 260.69 277.93 249.44 267.62 260.69"/><path class="cls-1" d="M286.26,96c1.12-21.58,46.13-18.6,43.29,13.23,2.55-3.56,7.11-1.75,5.66,5.49,4.44-8.16,16.42-5,15.68,6.61,1.78-7.26,15-4,13.22,3.24H248.2c-6.56-7.48,9.54-21.58,16.1-14.09C251.9,100.41,275.67,73.4,286.26,96Z" transform="translate(-40.39 -50.4)"/><path class="cls-4" d="M180.7,144.83c.89-17.18,36.71-14.8,34.45,10.53,2-2.84,5.66-1.39,4.5,4.36,3.54-6.48,13.08-4,12.48,5.27,1.42-5.78,12-3.2,10.53,2.58H150.41c-5.22-6,7.59-17.18,12.81-11.22C153.36,148.31,172.27,126.81,180.7,144.83Z" transform="translate(-40.39 -50.4)"/><path class="cls-1" d="M220.05,76.44H148.46c7.53-2.21,14.74-3.45,21.45-3-.88-5.36,9.93-7.12,10.8-1.77-1.76-11.71,9.87-10.18,10.34-1.29-1.58-16.28,18.69-13.53,16.19,2.52C208.75,64.25,223.93,68.84,220.05,76.44Z" transform="translate(-40.39 -50.4)"/><polygon class="cls-6" points="384.51 254.57 373.45 266.48 326.12 266.48 337.18 254.57 384.51 254.57"/><polygon class="cls-7" points="373.45 266.48 384.51 254.57 395.57 266.48 395.57 289.24 326.12 289.24 326.12 266.48 373.45 266.48"/><polygon class="cls-8" points="373.45 266.48 373.45 289.24 395.57 289.24 395.57 266.48 384.51 254.57 373.45 266.48"/><rect class="cls-10" x="376.92" y="283.45" width="15.19" height="2.34"/><rect class="cls-10" x="381.2" y="260.05" width="6.61" height="2.34"/><rect class="cls-10" x="328.39" y="271.11" width="6.17" height="1.82"/><rect class="cls-10" x="339.53" y="271.11" width="6.17" height="1.82"/><rect class="cls-10" x="350.66" y="271.11" width="6.17" height="1.82"/><rect class="cls-10" x="361.8" y="271.11" width="6.17" height="1.82"/><rect class="cls-10" x="328.39" y="278.34" width="6.17" height="1.82"/><rect class="cls-10" x="339.53" y="278.34" width="6.17" height="1.82"/><rect class="cls-10" x="350.66" y="278.34" width="6.17" height="1.82"/><rect class="cls-10" x="361.8" y="278.34" width="6.17" height="1.82"/><polygon class="cls-6" points="104.28 247.51 113.29 257.22 151.86 257.22 142.85 247.51 104.28 247.51"/><polygon class="cls-7" points="113.29 257.22 104.28 247.51 95.27 257.22 95.27 275.76 151.86 275.76 151.86 257.22 113.29 257.22"/><polygon class="cls-8" points="113.29 257.22 113.29 275.76 95.27 275.76 95.27 257.22 104.28 247.51 113.29 257.22"/><rect class="cls-10" x="138.48" y="321.45" width="12.38" height="1.91" transform="translate(248.95 594.4) rotate(180)"/><rect class="cls-10" x="141.97" y="302.38" width="5.39" height="1.91" transform="translate(248.95 556.27) rotate(180)"/><rect class="cls-10" x="185.37" y="311.39" width="5.03" height="1.48" transform="translate(335.38 573.87) rotate(180)"/><rect class="cls-10" x="176.3" y="311.39" width="5.03" height="1.48" transform="translate(317.23 573.87) rotate(180)"/><rect class="cls-10" x="167.22" y="311.39" width="5.03" height="1.48" transform="translate(299.08 573.87) rotate(180)"/><rect class="cls-10" x="158.15" y="311.39" width="5.03" height="1.48" transform="translate(280.93 573.87) rotate(180)"/><rect class="cls-10" x="185.37" y="317.29" width="5.03" height="1.48" transform="translate(335.38 585.66) rotate(180)"/><rect class="cls-10" x="176.3" y="317.29" width="5.03" height="1.48" transform="translate(317.23 585.66) rotate(180)"/><rect class="cls-10" x="167.22" y="317.29" width="5.03" height="1.48" transform="translate(299.08 585.66) rotate(180)"/><rect class="cls-10" x="158.15" y="317.29" width="5.03" height="1.48" transform="translate(280.93 585.66) rotate(180)"/><path class="cls-6" d="M459.61,345.9v30.7a72.73,72.73,0,0,1-20.73,50.95,71,71,0,0,1-6.68,6.06c-.74.6-1.49,1.18-2.25,1.73a71.16,71.16,0,0,1-11.42,6.92,72.57,72.57,0,0,1-31.93,7.34H113.4a73,73,0,0,1-66.91-43.77c20.39-13.94,53-27.72,90.87-35.64q5.19-1.1,10.49-2c6.73-1.18,13.6-2.17,20.57-2.94l1.25-.13c5.48-.58,11-1,16.6-1.31.6,0,1.21-.07,1.82-.09l1.25-.05c1,0,2.11-.09,3.17-.12,1.26,0,2.51-.07,3.77-.09h.37c3-.06,5.95-.06,8.94,0h.73c3.18.05,6.37.15,9.57.32l.36,0,.35,0c1.79.09,3.57.21,5.36.35,1.17.08,2.34.17,3.51.28l.43,0a244.62,244.62,0,0,1,26,3.7q6.33,1.24,12.61,2.86,1.59-1.45,3.37-2.86c.65-.53,1.31-1,2-1.55.31-.23.62-.46.94-.68s.79-.58,1.2-.86a1.43,1.43,0,0,1,.22-.15c.25-.19.49-.36.75-.52h0c1-.66,2-1.31,3-1.95l.32-.2.34-.21c1.22-.76,2.49-1.51,3.79-2.24l.36-.21.36-.2c.9-.5,1.81-1,2.75-1.49l.38-.2c11.77-6.16,26.17-11.54,41.95-15.64,1.24-.32,2.49-.64,3.75-.94,1.87-.46,3.77-.9,5.68-1.33C376.42,330.8,424.29,330.33,459.61,345.9Z" transform="translate(-40.39 -50.4)"/><path class="cls-13" d="M438.88,427.55a71,71,0,0,1-6.68,6.06c-.74.6-1.49,1.18-2.25,1.73a71.16,71.16,0,0,1-11.42,6.92l-6.17-1.57-4.7-14.5a39,39,0,0,1-12-4.33c-7.74-4.23-17-12.38-20.47-27.84-2.54-11.26-3.64-19.52-4.8-25.85a47.64,47.64,0,0,0-2.64-9.86c-1.66-3.93-4.17-6.83-8.63-9.5-4.94-2.95-16.22-5.54-25.73-6.43h0a69.89,69.89,0,0,0-7.12-.31c1.24-.32,2.49-.64,3.75-.94,1.87-.46,3.77-.9,5.68-1.33,5,1,32.67-2,44,9.23,3.48,3.44,6.78,10,9.44,16.73.32.8.63,1.61.94,2.42a119.31,119.31,0,0,1,5,16.63c3.35,18.31,25.44,20.68,37.17,33.54A53.43,53.43,0,0,1,438.88,427.55Z" transform="translate(-40.39 -50.4)"/><path class="cls-9" d="M407.66,426.19q11.23,4.24,22.29,9.15a71.16,71.16,0,0,1-11.42,6.92,72.57,72.57,0,0,1-31.93,7.34H113.4a73,73,0,0,1-73-73v-20a423.93,423.93,0,0,1,88.92,11.55c2.69.64,5.38,1.32,8.05,2a424,424,0,0,1,98.36,39.66,285.86,285.86,0,0,1,87-4.37h0a304.41,304.41,0,0,1,33.4,5.33,348.69,348.69,0,0,1,39.47,11.05C399.67,423.23,403.68,424.68,407.66,426.19Z" transform="translate(-40.39 -50.4)"/><path class="cls-14" d="M356.19,410.81C329.84,422.23,307,434.29,302.1,449.6H220.77c19.39-25.81,56.22-38.36,102-44.12h0A304.41,304.41,0,0,1,356.19,410.81Z" transform="translate(-40.39 -50.4)"/><polygon class="cls-15" points="55.41 276.78 55.41 266.66 54.46 266.66 54.46 275.38 50.17 272.4 48.98 272.48 54.46 276.68 55.41 276.78"/><polygon class="cls-15" points="70.26 276.78 70.26 266.66 69.32 266.66 69.32 275.38 65.03 272.4 63.83 272.48 69.32 276.68 70.26 276.78"/><polygon class="cls-4" points="75.35 267.54 68.04 267.54 65.41 264.71 72.72 264.71 75.35 267.54"/><polygon class="cls-15" points="68.13 267.34 65.89 264.92 72.63 264.92 74.88 267.34 68.13 267.34"/><polygon class="cls-4" points="68.04 267.54 60.02 267.54 57.4 264.71 65.41 264.71 68.04 267.54"/><polygon class="cls-15" points="60.11 267.34 57.87 264.92 65.32 264.92 67.57 267.34 60.11 267.34"/><polygon class="cls-4" points="60.02 267.54 52.25 267.54 49.62 264.71 57.4 264.71 60.02 267.54"/><polygon class="cls-15" points="52.34 267.34 50.09 264.92 57.3 264.92 59.55 267.34 52.34 267.34"/><polygon class="cls-4" points="72.72 264.71 65.41 264.71 62.95 262.06 70.26 262.06 72.72 264.71"/><polygon class="cls-15" points="65.5 264.51 63.42 262.26 70.17 262.26 72.25 264.51 65.5 264.51"/><polygon class="cls-4" points="57.4 264.71 49.62 264.71 47.16 262.06 54.94 262.06 57.4 264.71"/><polygon class="cls-15" points="49.71 264.51 47.63 262.26 54.84 262.26 56.92 264.51 49.71 264.51"/><polygon class="cls-4" points="70.26 262.06 62.95 262.06 61.19 260.16 68.5 260.16 70.26 262.06"/><polygon class="cls-15" points="63.04 261.85 61.67 260.37 68.41 260.37 69.79 261.85 63.04 261.85"/><polygon class="cls-4" points="62.95 262.06 54.94 262.06 53.17 260.16 61.19 260.16 62.95 262.06"/><polygon class="cls-15" points="55.02 261.85 53.65 260.37 61.1 260.37 62.48 261.85 55.02 261.85"/><polygon class="cls-4" points="54.94 262.06 47.16 262.06 45.4 260.16 53.17 260.16 54.94 262.06"/><polygon class="cls-15" points="47.25 261.85 45.88 260.37 53.09 260.37 54.46 261.85 47.25 261.85"/><polygon class="cls-4" points="65.41 264.71 57.4 264.71 54.94 262.06 62.95 262.06 65.41 264.71"/><polygon class="cls-15" points="57.48 264.51 55.41 262.26 62.86 262.26 64.94 264.51 57.48 264.51"/><polygon class="cls-15" points="35.06 282.75 35.06 272.63 34.11 272.63 34.11 281.35 29.82 278.36 28.62 278.44 34.11 282.65 35.06 282.75"/><polygon class="cls-15" points="49.91 282.75 49.91 272.63 48.97 272.63 48.97 281.35 44.67 278.36 43.48 278.44 48.97 282.65 49.91 282.75"/><polygon class="cls-4" points="55 273.51 47.69 273.51 45.06 270.68 52.37 270.68 55 273.51"/><polygon class="cls-15" points="47.78 273.3 45.53 270.88 52.28 270.88 54.53 273.3 47.78 273.3"/><polygon class="cls-4" points="47.69 273.51 39.67 273.51 37.04 270.68 45.06 270.68 47.69 273.51"/><polygon class="cls-15" points="39.76 273.3 37.52 270.88 44.97 270.88 47.22 273.3 39.76 273.3"/><polygon class="cls-4" points="39.67 273.51 31.9 273.51 29.27 270.68 37.04 270.68 39.67 273.51"/><polygon class="cls-15" points="31.99 273.3 29.74 270.88 36.95 270.88 39.2 273.3 31.99 273.3"/><polygon class="cls-4" points="52.37 270.68 45.06 270.68 42.6 268.02 49.91 268.02 52.37 270.68"/><polygon class="cls-15" points="45.15 270.47 43.08 268.23 49.82 268.23 51.9 270.47 45.15 270.47"/><polygon class="cls-4" points="37.04 270.68 29.27 270.68 26.81 268.02 34.58 268.02 37.04 270.68"/><polygon class="cls-15" points="29.36 270.47 27.28 268.23 34.49 268.23 36.57 270.47 29.36 270.47"/><polygon class="cls-4" points="49.91 268.02 42.6 268.02 40.84 266.13 48.15 266.13 49.91 268.02"/><polygon class="cls-15" points="42.69 267.82 41.32 266.33 48.06 266.33 49.44 267.82 42.69 267.82"/><polygon class="cls-4" points="42.6 268.02 34.58 268.02 32.82 266.13 40.84 266.13 42.6 268.02"/><polygon class="cls-15" points="34.67 267.82 33.3 266.33 40.75 266.33 42.13 267.82 34.67 267.82"/><polygon class="cls-4" points="34.58 268.02 26.81 268.02 25.05 266.13 32.82 266.13 34.58 268.02"/><polygon class="cls-15" points="26.9 267.82 25.52 266.33 32.73 266.33 34.11 267.82 26.9 267.82"/><polygon class="cls-4" points="45.06 270.68 37.04 270.68 34.58 268.02 42.6 268.02 45.06 270.68"/><polygon class="cls-15" points="37.13 270.47 35.06 268.23 42.51 268.23 44.59 270.47 37.13 270.47"/><polygon class="cls-15" points="14.71 288.71 14.71 278.59 13.76 278.59 13.76 287.31 9.47 284.33 8.27 284.4 13.76 288.61 14.71 288.71"/><polygon class="cls-15" points="29.56 288.71 29.56 278.59 28.62 278.59 28.62 287.31 24.32 284.33 23.13 284.4 28.62 288.61 29.56 288.71"/><polygon class="cls-4" points="34.65 279.48 27.34 279.48 24.71 276.64 32.02 276.64 34.65 279.48"/><polygon class="cls-15" points="27.43 279.27 25.18 276.85 31.93 276.85 34.18 279.27 27.43 279.27"/><polygon class="cls-4" points="27.34 279.48 19.32 279.48 16.69 276.64 24.71 276.64 27.34 279.48"/><polygon class="cls-15" points="19.41 279.27 17.16 276.85 24.62 276.85 26.87 279.27 19.41 279.27"/><polygon class="cls-4" points="19.32 279.48 11.55 279.48 8.92 276.64 16.69 276.64 19.32 279.48"/><polygon class="cls-15" points="11.64 279.27 9.39 276.85 16.6 276.85 18.85 279.27 11.64 279.27"/><polygon class="cls-4" points="32.02 276.64 24.71 276.64 22.25 273.99 29.56 273.99 32.02 276.64"/><polygon class="cls-15" points="24.8 276.44 22.73 274.19 29.47 274.19 31.55 276.44 24.8 276.44"/><polygon class="cls-4" points="16.69 276.64 8.92 276.64 6.46 273.99 14.23 273.99 16.69 276.64"/><polygon class="cls-15" points="9.01 276.44 6.93 274.19 14.14 274.19 16.22 276.44 9.01 276.44"/><polygon class="cls-4" points="29.56 273.99 22.25 273.99 20.49 272.09 27.8 272.09 29.56 273.99"/><polygon class="cls-15" points="22.34 273.78 20.96 272.3 27.71 272.3 29.09 273.78 22.34 273.78"/><polygon class="cls-4" points="22.25 273.99 14.23 273.99 12.47 272.09 20.49 272.09 22.25 273.99"/><polygon class="cls-15" points="14.32 273.78 12.95 272.3 20.4 272.3 21.78 273.78 14.32 273.78"/><polygon class="cls-4" points="14.23 273.99 6.46 273.99 4.7 272.09 12.47 272.09 14.23 273.99"/><polygon class="cls-15" points="6.55 273.78 5.17 272.3 12.38 272.3 13.76 273.78 6.55 273.78"/><polygon class="cls-4" points="24.71 276.64 16.69 276.64 14.23 273.99 22.25 273.99 24.71 276.64"/><polygon class="cls-15" points="16.78 276.44 14.71 274.19 22.16 274.19 24.24 276.44 16.78 276.44"/><polygon class="cls-6" points="207.61 250.92 195.26 264.22 182.61 264.22 194.96 250.92 207.61 250.92"/><rect class="cls-8" x="182.61" y="264.22" width="12.65" height="38.43"/><polygon class="cls-16" points="207.61 250.92 220.54 263.84 220.54 302.65 195.26 302.65 195.26 264.22 207.61 250.92"/><rect class="cls-10" x="252.25" y="319.64" width="5.22" height="8.69" transform="translate(469.34 597.57) rotate(180)"/><rect class="cls-10" x="241.88" y="319.64" width="5.22" height="8.69" transform="translate(448.59 597.57) rotate(180)"/><rect class="cls-10" x="252.25" y="333.16" width="5.22" height="8.69" transform="translate(469.34 624.62) rotate(180)"/><rect class="cls-10" x="241.88" y="333.16" width="5.22" height="8.69" transform="translate(448.59 624.62) rotate(180)"/><polygon class="cls-4" points="52.57 152.97 56.18 257.05 46.65 257.05 50.26 152.97 52.57 152.97"/><path class="cls-4" d="M94.35,206.28c1.79-.09,11.69-1,12.7-2.56a1.61,1.61,0,0,0,0-1.74c-1-1.53-10.91-2.47-12.7-2.56-.8,0-2.92.6-2.92,1.41v4C91.43,205.68,93.55,206.32,94.35,206.28Z" transform="translate(-40.39 -50.4)"/><path class="cls-4" d="M88.38,199.34c-2.4-14,6.58-23,18.33-30.74a.38.38,0,0,1,.51.55L101,176a31.68,31.68,0,0,0-5.63,11.88c-1.43,6-2.19,11.54-5.29,13.52Z" transform="translate(-40.39 -50.4)"/><path class="cls-4" d="M89.26,202l-.44,2.63c4.15,5.5,13.08,1.4,31.86,18.51.41.37,1-.21.68-.65C111.89,209.68,97.35,197.42,89.26,202Z" transform="translate(-40.39 -50.4)"/><path class="cls-4" d="M89.4,204.83l-2.24-1.45c-6.7,1.59-6.53,11.41-29.74,21.75a.47.47,0,0,0,.32.88C73.31,222.5,90.37,214.1,89.4,204.83Z" transform="translate(-40.39 -50.4)"/><path class="cls-4" d="M89.48,206.28a6.19,6.19,0,0,1-4.73-2.56,1.57,1.57,0,0,1,0-1.74,6.19,6.19,0,0,1,4.73-2.56A1.41,1.41,0,0,1,91,200.83v4A1.41,1.41,0,0,1,89.48,206.28Z" transform="translate(-40.39 -50.4)"/><polygon class="cls-4" points="27.16 198.9 29.11 257.8 23.95 257.8 25.9 198.9 27.16 198.9"/><path class="cls-4" d="M66.93,252c.57,0,3.75-.44,4.08-1.09a.89.89,0,0,0,0-.75c-.33-.65-3.51-1.05-4.08-1.09-.26,0-.94.26-.94.6v1.73C66,251.73,66.67,252,66.93,252Z" transform="translate(-40.39 -50.4)"/><path class="cls-4" d="M66,249.66s2.16-12.35,5.76-16.5c.31-.35.65-.09.47.33a45.92,45.92,0,0,0-1.7,4.4c-.49,1.72-.91,7.09-1.39,8.54a11.84,11.84,0,0,1-2.48,3.41Z" transform="translate(-40.39 -50.4)"/><path class="cls-4" d="M65,249.7,44.7,244.82a.1.1,0,0,1,0-.2c4.43.44,17.61,1.87,20.72,3.51C68,249.48,65,249.7,65,249.7Z" transform="translate(-40.39 -50.4)"/><path class="cls-4" d="M66,250.12c2.95,8.71,6.17,16.79,11.28,20.37,0,0-4.34-7-5-10.19S68.66,249.75,66,250.12Z" transform="translate(-40.39 -50.4)"/><path class="cls-4" d="M65.38,252a2.66,2.66,0,0,1-2-1.09.68.68,0,0,1,0-.75,2.66,2.66,0,0,1,2-1.09.61.61,0,0,1,.63.6v1.73A.61.61,0,0,1,65.38,252Z" transform="translate(-40.39 -50.4)"/><polygon class="cls-9" points="125.3 262.1 135.47 273.06 176.29 273.06 166.12 262.1 125.3 262.1"/><polygon class="cls-9" points="134.39 251.88 140.94 258.93 167.19 258.93 160.65 251.88 134.39 251.88"/><polygon class="cls-7" points="140.94 258.93 140.94 269.15 134.39 262.1 132.16 262.1 132.16 254.28 134.39 251.88 140.94 258.93"/><rect class="cls-8" x="140.94" y="258.93" width="26.26" height="10.22"/><rect class="cls-8" x="135.47" y="273.06" width="40.82" height="36.03"/><polygon class="cls-7" points="125.3 262.1 114.65 272.75 114.65 309.08 135.47 309.08 135.47 273.06 125.3 262.1"/><rect class="cls-9" x="117.49" y="277.19" width="4.3" height="7.16"/><rect class="cls-9" x="126.04" y="277.19" width="4.3" height="7.16"/><rect class="cls-9" x="117.49" y="288.33" width="4.3" height="7.16"/><rect class="cls-9" x="126.04" y="288.33" width="4.3" height="7.16"/><polygon class="cls-9" points="135.91 255.67 135.91 261.79 138.19 264.25 138.19 258.13 135.91 255.67"/><path class="cls-9" d="M168.58,359.49h-9.25v-5.41a4.62,4.62,0,0,1,4.63-4.62h0a4.62,4.62,0,0,1,4.62,4.62Z" transform="translate(-40.39 -50.4)"/><polygon class="cls-15" points="147.7 325.62 147.7 312.22 148.95 312.22 148.95 323.76 154.63 319.82 156.21 319.92 148.95 325.49 147.7 325.62"/><polygon class="cls-15" points="128.03 325.62 128.03 312.22 129.28 312.22 129.28 323.76 134.97 319.82 136.55 319.92 129.28 325.49 128.03 325.62"/><polygon class="cls-4" points="121.3 313.39 130.98 313.39 134.45 309.64 124.78 309.64 121.3 313.39"/><polygon class="cls-15" points="130.86 313.12 133.83 309.92 124.9 309.92 121.93 313.12 130.86 313.12"/><polygon class="cls-4" points="130.98 313.39 141.59 313.39 145.07 309.64 134.45 309.64 130.98 313.39"/><polygon class="cls-15" points="141.47 313.12 144.44 309.92 134.57 309.92 131.6 313.12 141.47 313.12"/><polygon class="cls-4" points="141.59 313.39 151.88 313.39 155.35 309.64 145.07 309.64 141.59 313.39"/><polygon class="cls-15" points="151.76 313.12 154.73 309.92 145.19 309.92 142.22 313.12 151.76 313.12"/><polygon class="cls-4" points="124.78 309.64 134.45 309.64 137.71 306.13 128.03 306.13 124.78 309.64"/><polygon class="cls-15" points="134.34 309.37 137.09 306.4 128.15 306.4 125.4 309.37 134.34 309.37"/><polygon class="cls-4" points="145.07 309.64 155.35 309.64 158.61 306.13 148.32 306.13 145.07 309.64"/><polygon class="cls-15" points="155.24 309.37 157.99 306.4 148.44 306.4 145.69 309.37 155.24 309.37"/><polygon class="cls-4" points="128.03 306.13 137.71 306.13 140.04 303.62 130.37 303.62 128.03 306.13"/><polygon class="cls-15" points="137.59 305.86 139.41 303.89 130.48 303.89 128.66 305.86 137.59 305.86"/><polygon class="cls-4" points="137.71 306.13 148.32 306.13 150.65 303.62 140.04 303.62 137.71 306.13"/><polygon class="cls-15" points="148.21 305.86 150.03 303.89 140.16 303.89 138.34 305.86 148.21 305.86"/><polygon class="cls-4" points="148.32 306.13 158.61 306.13 160.94 303.62 150.65 303.62 148.32 306.13"/><polygon class="cls-15" points="158.49 305.86 160.32 303.89 150.77 303.89 148.95 305.86 158.49 305.86"/><polygon class="cls-4" points="134.45 309.64 145.07 309.64 148.32 306.13 137.71 306.13 134.45 309.64"/><polygon class="cls-15" points="144.95 309.37 147.7 306.4 137.83 306.4 135.08 309.37 144.95 309.37"/><polygon class="cls-15" points="174.64 333.52 174.64 320.12 175.89 320.12 175.89 331.66 181.57 327.71 183.15 327.81 175.89 333.38 174.64 333.52"/><polygon class="cls-15" points="154.97 333.52 154.97 320.12 156.22 320.12 156.22 331.66 161.91 327.71 163.49 327.81 156.22 333.38 154.97 333.52"/><polygon class="cls-4" points="148.24 321.29 157.91 321.29 161.39 317.54 151.72 317.54 148.24 321.29"/><polygon class="cls-15" points="157.8 321.01 160.77 317.81 151.83 317.81 148.87 321.01 157.8 321.01"/><polygon class="cls-4" points="157.91 321.29 168.53 321.29 172 317.54 161.39 317.54 157.91 321.29"/><polygon class="cls-15" points="168.41 321.01 171.38 317.81 161.51 317.81 158.54 321.01 168.41 321.01"/><polygon class="cls-4" points="168.53 321.29 178.82 321.29 182.29 317.54 172 317.54 168.53 321.29"/><polygon class="cls-15" points="178.7 321.01 181.67 317.81 172.12 317.81 169.15 321.01 178.7 321.01"/><polygon class="cls-4" points="151.72 317.54 161.39 317.54 164.65 314.02 154.97 314.02 151.72 317.54"/><polygon class="cls-15" points="161.27 317.27 164.02 314.3 155.09 314.3 152.34 317.27 161.27 317.27"/><polygon class="cls-4" points="172 317.54 182.29 317.54 185.55 314.02 175.26 314.02 172 317.54"/><polygon class="cls-15" points="182.17 317.27 184.93 314.3 175.38 314.3 172.63 317.27 182.17 317.27"/><polygon class="cls-4" points="154.97 314.02 164.65 314.02 166.98 311.52 157.3 311.52 154.97 314.02"/><polygon class="cls-15" points="164.53 313.75 166.35 311.79 157.42 311.79 155.6 313.75 164.53 313.75"/><polygon class="cls-4" points="164.65 314.02 175.26 314.02 177.59 311.52 166.98 311.52 164.65 314.02"/><polygon class="cls-15" points="175.14 313.75 176.97 311.79 167.09 311.79 165.27 313.75 175.14 313.75"/><polygon class="cls-4" points="175.26 314.02 185.55 314.02 187.88 311.52 177.59 311.52 175.26 314.02"/><polygon class="cls-15" points="185.43 313.75 187.25 311.79 177.71 311.79 175.89 313.75 185.43 313.75"/><polygon class="cls-4" points="161.39 317.54 172 317.54 175.26 314.02 164.65 314.02 161.39 317.54"/><polygon class="cls-15" points="171.89 317.27 174.64 314.3 164.76 314.3 162.01 317.27 171.89 317.27"/><polygon class="cls-15" points="201.57 341.42 201.57 328.01 202.82 328.01 202.82 339.56 208.51 335.61 210.09 335.71 202.82 341.28 201.57 341.42"/><polygon class="cls-15" points="181.91 341.42 181.91 328.01 183.16 328.01 183.16 339.56 188.84 335.61 190.42 335.71 183.16 341.28 181.91 341.42"/><polygon class="cls-4" points="175.18 329.18 184.85 329.18 188.33 325.44 178.65 325.44 175.18 329.18"/><polygon class="cls-15" points="184.73 328.91 187.7 325.71 178.77 325.71 175.8 328.91 184.73 328.91"/><polygon class="cls-4" points="184.85 329.18 195.47 329.18 198.94 325.44 188.33 325.44 184.85 329.18"/><polygon class="cls-15" points="195.35 328.91 198.32 325.71 188.45 325.71 185.48 328.91 195.35 328.91"/><polygon class="cls-4" points="195.47 329.18 205.75 329.18 209.23 325.44 198.94 325.44 195.47 329.18"/><polygon class="cls-15" points="205.64 328.91 208.61 325.71 199.06 325.71 196.09 328.91 205.64 328.91"/><polygon class="cls-4" points="178.65 325.44 188.33 325.44 191.58 321.92 181.91 321.92 178.65 325.44"/><polygon class="cls-15" points="188.21 325.16 190.96 322.19 182.03 322.19 179.28 325.16 188.21 325.16"/><polygon class="cls-4" points="198.94 325.44 209.23 325.44 212.49 321.92 202.2 321.92 198.94 325.44"/><polygon class="cls-15" points="209.11 325.16 211.86 322.19 202.32 322.19 199.57 325.16 209.11 325.16"/><polygon class="cls-4" points="181.91 321.92 191.58 321.92 193.91 319.41 184.24 319.41 181.91 321.92"/><polygon class="cls-15" points="191.47 321.65 193.29 319.69 184.36 319.69 182.54 321.65 191.47 321.65"/><polygon class="cls-4" points="191.58 321.92 202.2 321.92 204.53 319.41 193.91 319.41 191.58 321.92"/><polygon class="cls-15" points="202.08 321.65 203.9 319.69 194.03 319.69 192.21 321.65 202.08 321.65"/><polygon class="cls-4" points="202.2 321.92 212.49 321.92 214.82 319.41 204.53 319.41 202.2 321.92"/><polygon class="cls-15" points="212.37 321.65 214.19 319.69 204.65 319.69 202.82 321.65 212.37 321.65"/><polygon class="cls-4" points="188.33 325.44 198.94 325.44 202.2 321.92 191.58 321.92 188.33 325.44"/><polygon class="cls-15" points="198.82 325.16 201.57 322.19 191.7 322.19 188.95 325.16 198.82 325.16"/><polygon class="cls-15" points="228.51 349.31 228.51 335.91 229.76 335.91 229.76 347.45 235.44 343.5 237.03 343.61 229.76 349.18 228.51 349.31"/><polygon class="cls-15" points="208.85 349.31 208.85 335.91 210.1 335.91 210.1 347.45 215.78 343.5 217.36 343.61 210.1 349.18 208.85 349.31"/><polygon class="cls-4" points="202.12 337.08 211.79 337.08 215.26 333.33 205.59 333.33 202.12 337.08"/><polygon class="cls-15" points="211.67 336.81 214.64 333.61 205.71 333.61 202.74 336.81 211.67 336.81"/><polygon class="cls-4" points="211.79 337.08 222.41 337.08 225.88 333.33 215.26 333.33 211.79 337.08"/><polygon class="cls-15" points="222.29 336.81 225.26 333.61 215.38 333.61 212.41 336.81 222.29 336.81"/><polygon class="cls-4" points="222.41 337.08 232.69 337.08 236.17 333.33 225.88 333.33 222.41 337.08"/><polygon class="cls-15" points="232.57 336.81 235.54 333.61 226 333.61 223.03 336.81 232.57 336.81"/><polygon class="cls-4" points="205.59 333.33 215.26 333.33 218.52 329.82 208.85 329.82 205.59 333.33"/><polygon class="cls-15" points="215.15 333.06 217.9 330.09 208.97 330.09 206.21 333.06 215.15 333.06"/><polygon class="cls-4" points="225.88 333.33 236.17 333.33 239.42 329.82 229.14 329.82 225.88 333.33"/><polygon class="cls-15" points="236.05 333.06 238.8 330.09 229.25 330.09 226.5 333.06 236.05 333.06"/><polygon class="cls-4" points="208.85 329.82 218.52 329.82 220.85 327.31 211.18 327.31 208.85 329.82"/><polygon class="cls-15" points="218.4 329.54 220.23 327.58 211.3 327.58 209.47 329.54 218.4 329.54"/><polygon class="cls-4" points="218.52 329.82 229.14 329.82 231.47 327.31 220.85 327.31 218.52 329.82"/><polygon class="cls-15" points="229.02 329.54 230.84 327.58 220.97 327.58 219.15 329.54 229.02 329.54"/><polygon class="cls-4" points="229.14 329.82 239.42 329.82 241.75 327.31 231.47 327.31 229.14 329.82"/><polygon class="cls-15" points="239.31 329.54 241.13 327.58 231.59 327.58 229.76 329.54 239.31 329.54"/><polygon class="cls-4" points="215.26 333.33 225.88 333.33 229.14 329.82 218.52 329.82 215.26 333.33"/><polygon class="cls-15" points="225.76 333.06 228.51 330.09 218.64 330.09 215.89 333.06 225.76 333.06"/><polygon class="cls-15" points="244.35 323.92 244.35 313.79 245.29 313.79 245.29 322.51 249.59 319.53 250.78 319.61 245.29 323.81 244.35 323.92"/><polygon class="cls-15" points="229.49 323.92 229.49 313.79 230.44 313.79 230.44 322.51 234.73 319.53 235.93 319.61 230.44 323.81 229.49 323.92"/><polygon class="cls-4" points="224.41 314.68 231.72 314.68 234.34 311.85 227.03 311.85 224.41 314.68"/><polygon class="cls-15" points="231.63 314.47 233.87 312.05 227.12 312.05 224.88 314.47 231.63 314.47"/><polygon class="cls-4" points="231.72 314.68 239.74 314.68 242.36 311.85 234.34 311.85 231.72 314.68"/><polygon class="cls-15" points="239.65 314.47 241.89 312.05 234.43 312.05 232.19 314.47 239.65 314.47"/><polygon class="cls-4" points="239.74 314.68 247.51 314.68 250.13 311.85 242.36 311.85 239.74 314.68"/><polygon class="cls-15" points="247.42 314.47 249.66 312.05 242.45 312.05 240.21 314.47 247.42 314.47"/><polygon class="cls-4" points="227.03 311.85 234.34 311.85 236.8 309.19 229.49 309.19 227.03 311.85"/><polygon class="cls-15" points="234.25 311.64 236.33 309.4 229.58 309.4 227.5 311.64 234.25 311.64"/><polygon class="cls-4" points="242.36 311.85 250.13 311.85 252.59 309.19 244.82 309.19 242.36 311.85"/><polygon class="cls-15" points="250.04 311.64 252.12 309.4 244.91 309.4 242.83 311.64 250.04 311.64"/><polygon class="cls-4" points="229.49 309.19 236.8 309.19 238.56 307.3 231.25 307.3 229.49 309.19"/><polygon class="cls-15" points="236.71 308.98 238.09 307.5 231.34 307.5 229.97 308.98 236.71 308.98"/><polygon class="cls-4" points="236.8 309.19 244.82 309.19 246.58 307.3 238.56 307.3 236.8 309.19"/><polygon class="cls-15" points="244.73 308.98 246.11 307.5 238.65 307.5 237.28 308.98 244.73 308.98"/><polygon class="cls-4" points="244.82 309.19 252.59 309.19 254.35 307.3 246.58 307.3 244.82 309.19"/><polygon class="cls-15" points="252.5 308.98 253.88 307.5 246.67 307.5 245.29 308.98 252.5 308.98"/><polygon class="cls-4" points="234.34 311.85 242.36 311.85 244.82 309.19 236.8 309.19 234.34 311.85"/><polygon class="cls-15" points="242.27 311.64 244.35 309.4 236.89 309.4 234.81 311.64 242.27 311.64"/><polygon class="cls-15" points="264.7 329.88 264.7 319.76 265.64 319.76 265.64 328.48 269.94 325.5 271.13 325.57 265.64 329.78 264.7 329.88"/><polygon class="cls-15" points="249.84 329.88 249.84 319.76 250.79 319.76 250.79 328.48 255.08 325.5 256.27 325.57 250.79 329.78 249.84 329.88"/><polygon class="cls-4" points="244.76 320.64 252.07 320.64 254.69 317.81 247.38 317.81 244.76 320.64"/><polygon class="cls-15" points="251.98 320.44 254.22 318.02 247.47 318.02 245.23 320.44 251.98 320.44"/><polygon class="cls-4" points="252.07 320.64 260.09 320.64 262.71 317.81 254.69 317.81 252.07 320.64"/><polygon class="cls-15" points="260 320.44 262.24 318.02 254.78 318.02 252.54 320.44 260 320.44"/><polygon class="cls-4" points="260.09 320.64 267.86 320.64 270.48 317.81 262.71 317.81 260.09 320.64"/><polygon class="cls-15" points="267.77 320.44 270.01 318.02 262.8 318.02 260.56 320.44 267.77 320.44"/><polygon class="cls-4" points="247.38 317.81 254.69 317.81 257.15 315.16 249.84 315.16 247.38 317.81"/><polygon class="cls-15" points="254.6 317.61 256.68 315.36 249.93 315.36 247.85 317.61 254.6 317.61"/><polygon class="cls-4" points="262.71 317.81 270.48 317.81 272.94 315.16 265.17 315.16 262.71 317.81"/><polygon class="cls-15" points="270.39 317.61 272.47 315.36 265.26 315.36 263.18 317.61 270.39 317.61"/><polygon class="cls-4" points="249.84 315.16 257.15 315.16 258.91 313.26 251.6 313.26 249.84 315.16"/><polygon class="cls-15" points="257.06 314.95 258.44 313.47 251.69 313.47 250.32 314.95 257.06 314.95"/><polygon class="cls-4" points="257.15 315.16 265.17 315.16 266.93 313.26 258.91 313.26 257.15 315.16"/><polygon class="cls-15" points="265.08 314.95 266.46 313.47 259 313.47 257.63 314.95 265.08 314.95"/><polygon class="cls-4" points="265.17 315.16 272.94 315.16 274.7 313.26 266.93 313.26 265.17 315.16"/><polygon class="cls-15" points="272.85 314.95 274.23 313.47 267.02 313.47 265.64 314.95 272.85 314.95"/><polygon class="cls-4" points="254.69 317.81 262.71 317.81 265.17 315.16 257.15 315.16 254.69 317.81"/><polygon class="cls-15" points="262.62 317.61 264.7 315.36 257.24 315.36 255.16 317.61 262.62 317.61"/><polygon class="cls-15" points="285.05 335.85 285.05 325.72 286 325.72 286 334.44 290.29 331.46 291.48 331.54 286 335.75 285.05 335.85"/><polygon class="cls-15" points="270.19 335.85 270.19 325.72 271.14 325.72 271.14 334.44 275.43 331.46 276.63 331.54 271.14 335.75 270.19 335.85"/><polygon class="cls-4" points="265.11 326.61 272.42 326.61 275.04 323.78 267.73 323.78 265.11 326.61"/><polygon class="cls-15" points="272.33 326.4 274.57 323.98 267.82 323.98 265.58 326.4 272.33 326.4"/><polygon class="cls-4" points="272.42 326.61 280.44 326.61 283.06 323.78 275.04 323.78 272.42 326.61"/><polygon class="cls-15" points="280.35 326.4 282.59 323.98 275.13 323.98 272.89 326.4 280.35 326.4"/><polygon class="cls-4" points="280.44 326.61 288.21 326.61 290.83 323.78 283.06 323.78 280.44 326.61"/><polygon class="cls-15" points="288.12 326.4 290.36 323.98 283.15 323.98 280.91 326.4 288.12 326.4"/><polygon class="cls-4" points="267.73 323.78 275.04 323.78 277.5 321.12 270.19 321.12 267.73 323.78"/><polygon class="cls-15" points="274.95 323.57 277.03 321.33 270.28 321.33 268.2 323.57 274.95 323.57"/><polygon class="cls-4" points="283.06 323.78 290.83 323.78 293.29 321.12 285.52 321.12 283.06 323.78"/><polygon class="cls-15" points="290.75 323.57 292.82 321.33 285.61 321.33 283.53 323.57 290.75 323.57"/><polygon class="cls-4" points="270.19 321.12 277.5 321.12 279.26 319.23 271.95 319.23 270.19 321.12"/><polygon class="cls-15" points="277.41 320.92 278.79 319.43 272.04 319.43 270.67 320.92 277.41 320.92"/><polygon class="cls-4" points="277.5 321.12 285.52 321.12 287.28 319.23 279.26 319.23 277.5 321.12"/><polygon class="cls-15" points="285.43 320.92 286.81 319.43 279.35 319.43 277.98 320.92 285.43 320.92"/><polygon class="cls-4" points="285.52 321.12 293.29 321.12 295.06 319.23 287.28 319.23 285.52 321.12"/><polygon class="cls-15" points="293.2 320.92 294.58 319.43 287.37 319.43 286 320.92 293.2 320.92"/><polygon class="cls-4" points="275.04 323.78 283.06 323.78 285.52 321.12 277.5 321.12 275.04 323.78"/><polygon class="cls-15" points="282.97 323.57 285.05 321.33 277.59 321.33 275.51 323.57 282.97 323.57"/><polygon class="cls-15" points="305.4 341.81 305.4 331.69 306.35 331.69 306.35 340.41 310.64 337.43 311.83 337.5 306.35 341.71 305.4 341.81"/><polygon class="cls-15" points="290.54 341.81 290.54 331.69 291.49 331.69 291.49 340.41 295.78 337.43 296.98 337.5 291.49 341.71 290.54 341.81"/><polygon class="cls-4" points="285.46 332.57 292.77 332.57 295.39 329.74 288.08 329.74 285.46 332.57"/><polygon class="cls-15" points="292.68 332.37 294.92 329.95 288.17 329.95 285.93 332.37 292.68 332.37"/><polygon class="cls-4" points="292.77 332.57 300.79 332.57 303.41 329.74 295.39 329.74 292.77 332.57"/><polygon class="cls-15" points="300.7 332.37 302.94 329.95 295.48 329.95 293.24 332.37 300.7 332.37"/><polygon class="cls-4" points="300.79 332.57 308.56 332.57 311.18 329.74 303.41 329.74 300.79 332.57"/><polygon class="cls-15" points="308.47 332.37 310.71 329.95 303.5 329.95 301.26 332.37 308.47 332.37"/><polygon class="cls-4" points="288.08 329.74 295.39 329.74 297.85 327.09 290.54 327.09 288.08 329.74"/><polygon class="cls-15" points="295.3 329.54 297.38 327.29 290.63 327.29 288.56 329.54 295.3 329.54"/><polygon class="cls-4" points="303.41 329.74 311.18 329.74 313.64 327.09 305.87 327.09 303.41 329.74"/><polygon class="cls-15" points="311.1 329.54 313.17 327.29 305.96 327.29 303.88 329.54 311.1 329.54"/><polygon class="cls-4" points="290.54 327.09 297.85 327.09 299.61 325.19 292.31 325.19 290.54 327.09"/><polygon class="cls-15" points="297.76 326.88 299.14 325.4 292.39 325.4 291.02 326.88 297.76 326.88"/><polygon class="cls-4" points="297.85 327.09 305.87 327.09 307.63 325.19 299.61 325.19 297.85 327.09"/><polygon class="cls-15" points="305.78 326.88 307.16 325.4 299.7 325.4 298.33 326.88 305.78 326.88"/><polygon class="cls-4" points="305.87 327.09 313.64 327.09 315.4 325.19 307.63 325.19 305.87 327.09"/><polygon class="cls-15" points="313.56 326.88 314.93 325.4 307.72 325.4 306.35 326.88 313.56 326.88"/><polygon class="cls-4" points="295.39 329.74 303.41 329.74 305.87 327.09 297.85 327.09 295.39 329.74"/><polygon class="cls-15" points="303.32 329.54 305.4 327.29 297.94 327.29 295.87 329.54 303.32 329.54"/><circle class="cls-17" cx="89.45" cy="82.55" r="32.15" transform="translate(-51.62 100.54) rotate(-76.89)"/><path class="cls-18" d="M117.67,67.14l233.85,288.1C292.89,379.3,227.2,371,156.34,339.09L60.94,96.94Z" transform="translate(-40.39 -50.4)"/></svg>