<svg id="_ëîé_1" data-name="‘ëîé_1" xmlns="http://www.w3.org/2000/svg" viewBox="0 0 2916.62 1527.17"><defs><style>.cls-1,.cls-16,.cls-20{fill:#f8fcff;}.cls-1{opacity:0.5;}.cls-2{fill:#dceaff;}.cls-3{fill:#ffcf83;}.cls-4{fill:#adc8fe;}.cls-5{fill:#f7c274;}.cls-6{fill:#82b378;}.cls-7{fill:#6e9e63;}.cls-8{fill:#365da4;}.cls-9{fill:#fff3e9;}.cls-10{fill:#ed9f4a;}.cls-11{fill:#f9ddbf;}.cls-12{fill:#efcdaf;}.cls-13{fill:#e58638;}.cls-14{fill:#2b478b;}.cls-15{fill:#aec3ff;}.cls-17{fill:#edbd77;}.cls-18{fill:#cca283;}.cls-19{fill:#ffe7d7;}.cls-20{opacity:0.6;}.cls-21{fill:#7fa4f4;}.cls-22{fill:#f99746;}.cls-23{fill:#fff;}.cls-24{fill:#ffb27d;}.cls-25{fill:#2c3a64;}.cls-26{fill:#e2af64;}.cls-27{fill:#233862;}.cls-28{fill:#ed985f;}.cls-29{fill:#ed7d2b;}.cls-30{fill:#fff2e9;}.cls-31{fill:#a4c9ff;}.cls-32{fill:#71a4ff;}.cls-33{fill:#2e3552;}</style></defs><path class="cls-1" d="M880.1,941.74s16.4-45.88,55.63-40.78c0,0,56.94-76.48,117.67-10.2,0,0,64.55-16.42,112.35,14.22,31.88,20.43,42.4,41.86,42.4,41.86Z" transform="translate(-156.1 -216.42)"/><path class="cls-1" d="M642.61,781.51S662.48,725.92,710,732.1c0,0,69-92.65,142.56-12.36,0,0,78.21-19.89,136.13,17.23,38.61,24.75,51.37,50.71,51.37,50.71Z" transform="translate(-156.1 -216.42)"/><path class="cls-1" d="M1308.42,733.82s26.38-48.67,89.47-43.26c0,0,91.59-81.13,189.26-10.82,0,0,103.82-17.42,180.71,15.08,51.27,21.68,68.2,44.41,68.2,44.41Z" transform="translate(-156.1 -216.42)"/><path class="cls-2" d="M2901.71,1617c-1.88,8-4,16.25-6.35,24.49-2.13,8.24-5,17-8,25.67-1.42,4.23-3.06,8.48-4.47,12.71-5,13.43-10.59,27.31-17.43,41.68-2.12,4.71-4.24,9.66-6.59,14.37-.6,1.47-1.28,3-2,4.42-.42.88-.88,1.76-1.31,2.63h-280l-82-.22H1759.88l-103.68-.11h-.32l-109.24-.13h-566l-235.94-.23H318s-.14-.39-.44-1.15c-.08-.23-.17-.49-.28-.79q-.53-1.36-1.41-3.72l-.23-.47v-.23a.85.85,0,0,1-.23-.47,66,66,0,0,1-2.59-6.59c-.48-1.19-.94-2.6-1.65-4v-.48l-.24-.23c-3.23-8.4-7.24-19.34-11.87-32.57-.41-1.2-.83-2.41-1.27-3.63-3.47-10-7.28-21.18-11.34-33.5-9.66-29.9-20.73-66.41-31.56-107.61-4.24-16.25-8.48-33.2-12.49-50.87-2.35-10.2-4.73-20.82-7-31.54-.66-3.15-1.31-6.29-1.95-9.44-4.16-20.08-8.08-40.77-11.61-61.9-4.66-27.77-8.65-56.3-11.69-85.28-1.51-14.21-2.79-28.55-3.81-42.94,0-.38-.06-.76-.07-1.14s-.07-.77-.09-1.16c-1.4-20.28-2.27-40.71-2.53-61.13q-.31-24.64.61-49.26c.46-11.07,1.17-22.14,1.88-33.22,1.88-23.54,4.7-47.09,8.71-69.93,2.59-15.55,5.88-31.09,9.65-46.16a524.5,524.5,0,0,1,38.14-105.73c5.89-11.53,12-22.83,18.85-33.91,15.3-25.19,30.84-48.74,46.63-70.87h.23c8.24-11.77,16.49-22.84,24.72-33.45a875.68,875.68,0,0,1,93.73-104.08c387.35-362.4,831.47-12.71,1106.29-256,268.67-237.6,771.43-241.13,996.3-21.9,4.24,4.24,8.71,8.48,13,13.19,36.41,38.64,64.5,83.76,81.75,135.31,13.28,39.68,20.14,83.17,19.41,130.42-.08,5-.24,10-.48,15a502.11,502.11,0,0,1-7.88,66.89q-4.18,22.89-10.62,46.78c-10.36,38.15-24.95,78-44.26,120.09q-2.84,6-5.66,12c-61.45,128.57-10.82,205.56,66.65,276,47.79,43.56,105.5,84.53,153.54,133.51,6.35,6.59,12.47,13.19,18.6,20,2.34,2.72,4.65,5.44,6.93,8.2q9.63,11.61,18.5,23.82,4.48,6.33,8.66,12.88a288.8,288.8,0,0,1,21.7,40.64,265.82,265.82,0,0,1,11.15,31,260.9,260.9,0,0,1,8.67,42.92C2913,1538.77,2911.08,1575.6,2901.71,1617Z" transform="translate(-156.1 -216.42)"/><path class="cls-3" d="M2175.91,1742.46H1324.73l-354.83-.23H328.21l-1.1-1.94c-.51-.91-1.21-2.15-2.11-3.72l-.35-.47v-.23s-.35-.24-.35-.47a56.92,56.92,0,0,1-3.89-6.59,40.86,40.86,0,0,0-2.49-4v-.48l-.34-.23c-4.86-8.4-10.89-19.34-17.85-32.57-.64-1.2-1.27-2.41-1.91-3.63-3.47-10-7.28-21.18-11.34-33.5-9.66-29.9-20.73-66.41-31.56-107.61-4.24-16.25-8.48-33.2-12.49-50.87-2.35-10.2-4.73-20.82-7-31.54-.66-3.15-1.31-6.29-1.95-9.44-4.16-20.08-8.08-40.77-11.61-61.9-6.94-41.39-12.42-84.52-15.5-128.22C482,1279,1013.3,1316.4,1412.93,1405.66c563.91,125.94,703.26,146.27,942.15,168.87C2488.76,1587.17,2336.22,1671,2175.91,1742.46Z" transform="translate(-156.1 -216.42)"/><polygon class="cls-4" points="1537.03 975.86 1517.04 1366.7 1537.03 1366.7 1546.02 975.86 1537.03 975.86"/><polygon class="cls-4" points="1538.61 940.48 1543.69 964.54 1634.61 856.63 1538.61 940.48"/><polygon class="cls-4" points="1571.28 969.37 1546.76 967.54 1625.05 1084.93 1571.28 969.37"/><polygon class="cls-4" points="1521.13 988.55 1535.37 968.5 1394.41 974.89 1521.13 988.55"/><circle class="cls-4" cx="1697.05" cy="1183.96" r="10.99" transform="translate(-480.01 523.14) rotate(-22.5)"/><path class="cls-5" d="M1633.63,1527.92s-729.46-200-959.42-220.17-9.67,26.94-9.67,26.94,624.27,164.23,770.32,231.94S1633.63,1527.92,1633.63,1527.92Z" transform="translate(-156.1 -216.42)"/><path class="cls-5" d="M1411.17,1687.52s-630.72-302.63-836.69-359.43-13.28,22.6-13.28,22.6,540.93,252.73,662.6,338.2S1411.17,1687.52,1411.17,1687.52Z" transform="translate(-156.1 -216.42)"/><polygon class="cls-4" points="1025.35 1049.04 1009 1368.95 1025.35 1368.95 1032.71 1049.04 1025.35 1049.04"/><polygon class="cls-4" points="1026.65 1020.07 1030.8 1039.77 1105.22 951.45 1026.65 1020.07"/><polygon class="cls-4" points="1053.39 1043.72 1033.32 1042.22 1097.4 1138.31 1053.39 1043.72"/><polygon class="cls-4" points="1012.34 1059.43 1024 1043.01 908.62 1048.24 1012.34 1059.43"/><path class="cls-4" d="M1175.67,1258.64a9,9,0,1,1,9,9A9,9,0,0,1,1175.67,1258.64Z" transform="translate(-156.1 -216.42)"/><path class="cls-6" d="M2909,1505.56q-2.23,29.25-7.33,60.9c-.08.48-.15.94-.24,1.43-1.82,10.79-3.86,21.85-6.11,32.91-2.13,11.56-5,23.76-8,36-1.42,5.93-3.06,11.89-4.47,17.81-5,18.84-10.59,38.29-17.43,58.43-2.12,6.6-4.24,13.53-6.59,20.15-.6,2.06-1.28,4.13-2,6.2H317.31c-.35-1.29-.82-3-1.41-5.22l-.23-.66v-.32a1.47,1.47,0,0,1-.23-.67c-.94-2.63-1.65-5.62-2.59-9.23-.48-1.67-.94-3.65-1.65-5.62V1717l-.24-.32c-3.23-11.78-7.24-27.12-11.87-45.66-3.81-15.27-8-32.67-12.61-52.06-9.66-41.91-20.73-93.07-31.56-150.84-4.24-22.77-8.48-46.54-12.49-71.3-2.35-14.29-4.73-29.18-7-44.21,232.78,88.43,831.45,287.16,1259,176,76.83-20,161.6-37.84,250.55-53.83q29.8-5.37,60.22-10.44c230.62-38.59,482.75-65.33,694-83.76h.05c2.44-.21,4.86-.43,7.3-.63l7.14-.62,8.65-.75c6-.5,11.92-1,17.83-1.51l2.31-.19,13.55-1.14q24.9-2.09,48.83-4l10.71-.85,11.75-.94c5.24-.41,10.45-.81,15.62-1.23l9.52-.73,16.8-1.29,8.14-.62c3.73-.28,7.43-.55,11.1-.84.3,0,.59,0,.9-.06l17.87-1.34,5.6-.41.25,0h.14c47.65-3.53,90.44-6.52,127.06-9.06q9.63,11.61,18.5,23.82,4.48,6.33,8.66,12.88a288.8,288.8,0,0,1,21.7,40.64,265.82,265.82,0,0,1,11.15,31A260.9,260.9,0,0,1,2909,1505.56Z" transform="translate(-156.1 -216.42)"/><path class="cls-7" d="M1805.2,1464.35c-60.35,33.93-190.46,120.78-270.42,275-.56,1.07-1.12,2.15-1.67,3.24l-60.79-3.24-19-1c1.83-5.15,86.62-133.67,291.67-263.56Q1774.79,1469.44,1805.2,1464.35Z" transform="translate(-156.1 -216.42)"/><path class="cls-7" d="M1580.79,1738.57c1.93-5.42,100.52-155.4,344.11-291.12l19.18,15s-187.37,82.33-287.9,280.16Z" transform="translate(-156.1 -216.42)"/><path class="cls-7" d="M1756.89,1738.57c1.93-5.42,100.53-155.4,344.12-291.12l19.17,15s-187.37,82.33-287.89,280.16Z" transform="translate(-156.1 -216.42)"/><path class="cls-7" d="M2713.3,1363.41s-341.3,34.73-554.43,254.29l-134.47-38.53c3.71-5.42,149.7-119.17,474.84-198.58h.05c77.93-6.79,150.31-12.46,214-17.18Z" transform="translate(-156.1 -216.42)"/><path class="cls-7" d="M2889.22,1431.69c-153.31,37-398.74,121.84-582.27,307.68h-117.5l-86.34-25c5.48-8.46,239.48-204.25,764.41-323.32A288.8,288.8,0,0,1,2889.22,1431.69Z" transform="translate(-156.1 -216.42)"/><path class="cls-7" d="M1665,1735.86l1.75-.45c-.71-3.12-2.45-66.05,17.29-102.74l-1.6-.85C1662.4,1669,1664.28,1733.28,1665,1735.86Z" transform="translate(-156.1 -216.42)"/><path class="cls-3" d="M1687.38,1599s6.21,13,2.43,18.87S1682.9,1607,1687.38,1599Z" transform="translate(-156.1 -216.42)"/><path class="cls-3" d="M1691.25,1654s-6.21-13-2.42-18.88S1695.73,1645.91,1691.25,1654Z" transform="translate(-156.1 -216.42)"/><path class="cls-3" d="M1674.94,1603s11.51,8.71,10.84,15.63S1674.67,1612.15,1674.94,1603Z" transform="translate(-156.1 -216.42)"/><path class="cls-3" d="M1703.7,1650s-11.52-8.71-10.85-15.64S1704,1640.77,1703.7,1650Z" transform="translate(-156.1 -216.42)"/><path class="cls-3" d="M1665.83,1612.32s14.22,2.54,16.76,9S1669.77,1620.65,1665.83,1612.32Z" transform="translate(-156.1 -216.42)"/><path class="cls-3" d="M1712.8,1641.18s-14.21-2.54-16.76-9S1708.86,1632.85,1712.8,1641.18Z" transform="translate(-156.1 -216.42)"/><path class="cls-3" d="M1662.89,1635.18s11.38-8.88,17.9-6.45S1671.71,1637.81,1662.89,1635.18Z" transform="translate(-156.1 -216.42)"/><path class="cls-3" d="M1716.82,1624.15s-12.75,6.79-18.75,3.27S1708.58,1620,1716.82,1624.15Z" transform="translate(-156.1 -216.42)"/><path class="cls-3" d="M1669.17,1645.1s7.08-12.59,14-12.86S1678.32,1644.12,1669.17,1645.1Z" transform="translate(-156.1 -216.42)"/><path class="cls-3" d="M1711.9,1610.27s-7.08,12.59-14,12.85S1702.74,1611.24,1711.9,1610.27Z" transform="translate(-156.1 -216.42)"/><path class="cls-3" d="M1678.49,1652.52s.93-14.41,7.08-17.67S1686.32,1647.67,1678.49,1652.52Z" transform="translate(-156.1 -216.42)"/><path class="cls-3" d="M1701.92,1602.62s-.94,14.41-7.09,17.66S1694.08,1607.46,1701.92,1602.62Z" transform="translate(-156.1 -216.42)"/><path class="cls-3" d="M1662.16,1625.88s13.48-5.16,19-.92S1669.82,1631,1662.16,1625.88Z" transform="translate(-156.1 -216.42)"/><path class="cls-8" d="M1699.37,1626.75a10,10,0,1,0-10,10A10.05,10.05,0,0,0,1699.37,1626.75Z" transform="translate(-156.1 -216.42)"/><path class="cls-7" d="M1668.42,1677.92s8.74-8.9,20.8-9.5,15.77,0,15.77,0-7.42,7.84-16.27,9.5S1668.42,1677.92,1668.42,1677.92Z" transform="translate(-156.1 -216.42)"/><path class="cls-7" d="M1670.23,1669.28c-1.53-1.33-2.68-12.17-12-14.89a88.32,88.32,0,0,0-16-3.23s8.1,14.09,14,16.2S1670.23,1669.28,1670.23,1669.28Z" transform="translate(-156.1 -216.42)"/><path class="cls-7" d="M1617.71,1735.86l2.06-.53c-.83-3.68-2.88-77.73,20.35-120.9l-1.88-1C1614.7,1657.17,1616.92,1732.82,1617.71,1735.86Z" transform="translate(-156.1 -216.42)"/><path class="cls-3" d="M1644.1,1574.76s7.31,15.34,2.86,22.21S1638.83,1584.23,1644.1,1574.76Z" transform="translate(-156.1 -216.42)"/><path class="cls-3" d="M1648.66,1639.47s-7.31-15.34-2.86-22.21S1653.93,1630,1648.66,1639.47Z" transform="translate(-156.1 -216.42)"/><path class="cls-3" d="M1629.46,1579.44s13.55,10.25,12.76,18.4S1629.14,1590.28,1629.46,1579.44Z" transform="translate(-156.1 -216.42)"/><path class="cls-3" d="M1663.3,1634.79s-13.55-10.25-12.76-18.4S1663.62,1624,1663.3,1634.79Z" transform="translate(-156.1 -216.42)"/><path class="cls-3" d="M1618.74,1590.48s16.73,3,19.73,10.6S1623.38,1600.27,1618.74,1590.48Z" transform="translate(-156.1 -216.42)"/><path class="cls-3" d="M1674,1624.43s-16.73-3-19.73-10.6S1669.38,1614.64,1674,1624.43Z" transform="translate(-156.1 -216.42)"/><path class="cls-3" d="M1615.27,1617.37s13.41-10.45,21.08-7.58S1625.66,1620.47,1615.27,1617.37Z" transform="translate(-156.1 -216.42)"/><path class="cls-3" d="M1678.74,1604.4s-15,8-22.06,3.85S1669,1599.56,1678.74,1604.4Z" transform="translate(-156.1 -216.42)"/><path class="cls-3" d="M1622.66,1629.05s8.34-14.81,16.52-15.13S1633.44,1627.9,1622.66,1629.05Z" transform="translate(-156.1 -216.42)"/><path class="cls-3" d="M1673,1588.06s-8.33,14.81-16.51,15.13S1662.18,1589.21,1673,1588.06Z" transform="translate(-156.1 -216.42)"/><path class="cls-3" d="M1633.63,1637.78s1.1-17,8.34-20.79S1642.85,1632.08,1633.63,1637.78Z" transform="translate(-156.1 -216.42)"/><path class="cls-3" d="M1661.21,1579.05s-1.1,17-8.34,20.79S1652,1584.75,1661.21,1579.05Z" transform="translate(-156.1 -216.42)"/><path class="cls-3" d="M1614.41,1606.43s15.88-6.06,22.37-1.08S1623.43,1612.44,1614.41,1606.43Z" transform="translate(-156.1 -216.42)"/><path class="cls-8" d="M1658.21,1607.46a11.83,11.83,0,1,0-11.83,11.82A11.83,11.83,0,0,0,1658.21,1607.46Z" transform="translate(-156.1 -216.42)"/><path class="cls-7" d="M1618.47,1697.53s10.29-10.47,24.48-11.18,18.56,0,18.56,0-8.73,9.23-19.14,11.18S1618.47,1697.53,1618.47,1697.53Z" transform="translate(-156.1 -216.42)"/><path class="cls-7" d="M1620.6,1687.37c-1.8-1.56-3.15-14.32-14.15-17.52a104.58,104.58,0,0,0-18.81-3.81s9.54,16.59,16.48,19.07S1620.6,1687.37,1620.6,1687.37Z" transform="translate(-156.1 -216.42)"/><path class="cls-7" d="M1674.71,1735.86l1.23-.32c-.49-2.2-1.73-46.63,12.21-72.54l-1.12-.61C1672.9,1688.65,1674.23,1734,1674.71,1735.86Z" transform="translate(-156.1 -216.42)"/><path class="cls-3" d="M1690.54,1639.2s4.39,9.2,1.72,13.32S1687.38,1644.88,1690.54,1639.2Z" transform="translate(-156.1 -216.42)"/><path class="cls-3" d="M1693.28,1678s-4.39-9.21-1.72-13.33S1696.44,1672.34,1693.28,1678Z" transform="translate(-156.1 -216.42)"/><path class="cls-3" d="M1681.75,1642s8.14,6.15,7.66,11S1681.57,1648.51,1681.75,1642Z" transform="translate(-156.1 -216.42)"/><path class="cls-3" d="M1702.06,1675.22s-8.13-6.15-7.66-11S1702.25,1668.72,1702.06,1675.22Z" transform="translate(-156.1 -216.42)"/><path class="cls-3" d="M1675.32,1648.63s10,1.79,11.84,6.36S1678.11,1654.51,1675.32,1648.63Z" transform="translate(-156.1 -216.42)"/><path class="cls-3" d="M1708.49,1669s-10-1.79-11.83-6.36S1705.71,1663.13,1708.49,1669Z" transform="translate(-156.1 -216.42)"/><path class="cls-3" d="M1673.25,1664.76s8-6.26,12.64-4.54S1679.48,1666.63,1673.25,1664.76Z" transform="translate(-156.1 -216.42)"/><path class="cls-3" d="M1711.33,1657s-9,4.8-13.24,2.31S1705.51,1654.08,1711.33,1657Z" transform="translate(-156.1 -216.42)"/><path class="cls-3" d="M1677.68,1671.77s5-8.89,9.91-9.07S1684.14,1671.08,1677.68,1671.77Z" transform="translate(-156.1 -216.42)"/><path class="cls-3" d="M1707.85,1647.18s-5,8.89-9.91,9.07S1701.39,1647.87,1707.85,1647.18Z" transform="translate(-156.1 -216.42)"/><path class="cls-3" d="M1684.26,1677s.66-10.18,5-12.47S1689.79,1673.59,1684.26,1677Z" transform="translate(-156.1 -216.42)"/><path class="cls-3" d="M1700.8,1641.77s-.65,10.18-5,12.48S1695.27,1645.19,1700.8,1641.77Z" transform="translate(-156.1 -216.42)"/><path class="cls-3" d="M1672.73,1658.2s9.52-3.64,13.42-.65S1678.14,1661.8,1672.73,1658.2Z" transform="translate(-156.1 -216.42)"/><path class="cls-8" d="M1699,1658.82a7.1,7.1,0,1,0-7.1,7.09A7.1,7.1,0,0,0,1699,1658.82Z" transform="translate(-156.1 -216.42)"/><path class="cls-7" d="M1675.16,1712.86s6.18-6.28,14.69-6.7,11.14,0,11.14,0-5.24,5.53-11.49,6.7S1675.16,1712.86,1675.16,1712.86Z" transform="translate(-156.1 -216.42)"/><path class="cls-7" d="M1676.44,1706.77c-1.08-.94-1.89-8.6-8.49-10.52a62.78,62.78,0,0,0-11.28-2.28s5.72,10,9.88,11.44A32.92,32.92,0,0,0,1676.44,1706.77Z" transform="translate(-156.1 -216.42)"/><path class="cls-7" d="M1743.44,1735.86l2.07-.53c-.83-3.68-2.89-77.73,20.34-120.9l-1.87-1C1740.44,1657.17,1742.65,1732.82,1743.44,1735.86Z" transform="translate(-156.1 -216.42)"/><path class="cls-3" d="M1769.83,1574.76s7.32,15.34,2.86,22.21S1764.57,1584.23,1769.83,1574.76Z" transform="translate(-156.1 -216.42)"/><path class="cls-3" d="M1774.39,1639.47s-7.31-15.34-2.85-22.21S1779.66,1630,1774.39,1639.47Z" transform="translate(-156.1 -216.42)"/><path class="cls-3" d="M1755.19,1579.44s13.56,10.25,12.77,18.4S1754.88,1590.28,1755.19,1579.44Z" transform="translate(-156.1 -216.42)"/><path class="cls-3" d="M1789,1634.79s-13.56-10.25-12.77-18.4S1789.35,1624,1789,1634.79Z" transform="translate(-156.1 -216.42)"/><path class="cls-3" d="M1744.47,1590.48s16.74,3,19.73,10.6S1749.11,1600.27,1744.47,1590.48Z" transform="translate(-156.1 -216.42)"/><path class="cls-3" d="M1799.75,1624.43s-16.73-3-19.72-10.6S1795.12,1614.64,1799.75,1624.43Z" transform="translate(-156.1 -216.42)"/><path class="cls-3" d="M1741,1617.37s13.4-10.45,21.07-7.58S1751.39,1620.47,1741,1617.37Z" transform="translate(-156.1 -216.42)"/><path class="cls-3" d="M1804.48,1604.4s-15,8-22.06,3.85S1794.78,1599.56,1804.48,1604.4Z" transform="translate(-156.1 -216.42)"/><path class="cls-3" d="M1748.4,1629.05s8.33-14.81,16.51-15.13S1759.18,1627.9,1748.4,1629.05Z" transform="translate(-156.1 -216.42)"/><path class="cls-3" d="M1798.69,1588.06s-8.33,14.81-16.52,15.13S1787.91,1589.21,1798.69,1588.06Z" transform="translate(-156.1 -216.42)"/><path class="cls-3" d="M1759.37,1637.78s1.09-17,8.33-20.79S1768.58,1632.08,1759.37,1637.78Z" transform="translate(-156.1 -216.42)"/><path class="cls-3" d="M1786.94,1579.05s-1.1,17-8.33,20.79S1777.72,1584.75,1786.94,1579.05Z" transform="translate(-156.1 -216.42)"/><path class="cls-3" d="M1740.15,1606.43s15.87-6.06,22.37-1.08S1749.17,1612.44,1740.15,1606.43Z" transform="translate(-156.1 -216.42)"/><circle class="cls-8" cx="1616.01" cy="1391.04" r="11.83"/><path class="cls-7" d="M1747.52,1667.67s10.29-10.47,24.48-11.18,18.56,0,18.56,0-8.73,9.23-19.15,11.18S1747.52,1667.67,1747.52,1667.67Z" transform="translate(-156.1 -216.42)"/><path class="cls-7" d="M1749.65,1657.51c-1.8-1.57-3.15-14.33-14.15-17.52a103.5,103.5,0,0,0-18.81-3.81s9.53,16.58,16.48,19.07S1749.65,1657.51,1749.65,1657.51Z" transform="translate(-156.1 -216.42)"/><path class="cls-7" d="M1705.37,1735.86l2.06-.57c-.83-4-2.88-84.1,20.35-130.81l-1.88-1.09C1702.36,1650.72,1704.58,1732.57,1705.37,1735.86Z" transform="translate(-156.1 -216.42)"/><path class="cls-3" d="M1731.76,1561.56s7.31,16.6,2.86,24S1726.49,1571.81,1731.76,1561.56Z" transform="translate(-156.1 -216.42)"/><path class="cls-3" d="M1736.32,1631.58s-7.31-16.6-2.86-24S1741.59,1621.33,1736.32,1631.58Z" transform="translate(-156.1 -216.42)"/><path class="cls-3" d="M1717.12,1566.63s13.55,11.09,12.76,19.91S1716.8,1578.35,1717.12,1566.63Z" transform="translate(-156.1 -216.42)"/><path class="cls-3" d="M1751,1626.51s-13.55-11.09-12.76-19.91S1751.28,1614.79,1751,1626.51Z" transform="translate(-156.1 -216.42)"/><path class="cls-3" d="M1706.4,1578.57s16.73,3.22,19.73,11.47S1711,1589.17,1706.4,1578.57Z" transform="translate(-156.1 -216.42)"/><path class="cls-3" d="M1761.68,1615.31s-16.73-3.23-19.73-11.48S1757,1604.71,1761.68,1615.31Z" transform="translate(-156.1 -216.42)"/><path class="cls-3" d="M1702.93,1607.67s13.41-11.31,21.08-8.21S1713.32,1611,1702.93,1607.67Z" transform="translate(-156.1 -216.42)"/><path class="cls-3" d="M1766.4,1593.63s-15,8.65-22.06,4.16S1756.71,1588.39,1766.4,1593.63Z" transform="translate(-156.1 -216.42)"/><path class="cls-3" d="M1710.32,1620.3s8.34-16,16.52-16.37S1721.1,1619.06,1710.32,1620.3Z" transform="translate(-156.1 -216.42)"/><path class="cls-3" d="M1760.61,1576s-8.33,16-16.51,16.36S1749.84,1577.19,1760.61,1576Z" transform="translate(-156.1 -216.42)"/><path class="cls-3" d="M1721.29,1629.74s1.1-18.34,8.34-22.49S1730.51,1623.58,1721.29,1629.74Z" transform="translate(-156.1 -216.42)"/><path class="cls-3" d="M1748.87,1566.21s-1.1,18.35-8.34,22.49S1739.65,1572.38,1748.87,1566.21Z" transform="translate(-156.1 -216.42)"/><path class="cls-3" d="M1702.07,1595.83s15.88-6.56,22.37-1.17S1711.09,1602.33,1702.07,1595.83Z" transform="translate(-156.1 -216.42)"/><path class="cls-8" d="M1745.87,1596.94c0-7.07-5.3-12.8-11.83-12.8s-11.83,5.73-11.83,12.8,5.3,12.79,11.83,12.79S1745.87,1604,1745.87,1596.94Z" transform="translate(-156.1 -216.42)"/><path class="cls-7" d="M1706.13,1694.39s10.29-11.32,24.48-12.09,18.56,0,18.56,0-8.73,10-19.14,12.09S1706.13,1694.39,1706.13,1694.39Z" transform="translate(-156.1 -216.42)"/><path class="cls-7" d="M1708.26,1683.4c-1.8-1.69-3.15-15.5-14.15-19a96.62,96.62,0,0,0-18.81-4.12s9.54,17.94,16.48,20.63S1708.26,1683.4,1708.26,1683.4Z" transform="translate(-156.1 -216.42)"/><path class="cls-7" d="M1754.92,1735.86l1.46-.37c-.59-2.6-2-54.89,14.36-85.38l-1.32-.71C1752.79,1680.3,1754.36,1733.71,1754.92,1735.86Z" transform="translate(-156.1 -216.42)"/><path class="cls-3" d="M1773.55,1622.1s5.17,10.84,2,15.69S1769.83,1628.79,1773.55,1622.1Z" transform="translate(-156.1 -216.42)"/><path class="cls-3" d="M1776.77,1667.8s-5.16-10.83-2-15.68S1780.49,1661.11,1776.77,1667.8Z" transform="translate(-156.1 -216.42)"/><path class="cls-3" d="M1763.21,1625.41s9.58,7.24,9,13S1763,1633.06,1763.21,1625.41Z" transform="translate(-156.1 -216.42)"/><path class="cls-3" d="M1787.11,1664.49s-9.57-7.24-9-13S1787.34,1656.84,1787.11,1664.49Z" transform="translate(-156.1 -216.42)"/><path class="cls-3" d="M1755.65,1633.2s11.81,2.11,13.93,7.49S1758.92,1640.12,1755.65,1633.2Z" transform="translate(-156.1 -216.42)"/><path class="cls-3" d="M1794.68,1657.18s-11.81-2.11-13.93-7.49S1791.41,1650.26,1794.68,1657.18Z" transform="translate(-156.1 -216.42)"/><path class="cls-3" d="M1753.2,1652.19s9.46-7.37,14.88-5.35S1760.53,1654.38,1753.2,1652.19Z" transform="translate(-156.1 -216.42)"/><path class="cls-3" d="M1798,1643s-10.59,5.65-15.58,2.72S1791.17,1639.62,1798,1643Z" transform="translate(-156.1 -216.42)"/><path class="cls-3" d="M1758.42,1660.44s5.88-10.46,11.66-10.68S1766,1659.63,1758.42,1660.44Z" transform="translate(-156.1 -216.42)"/><path class="cls-3" d="M1793.93,1631.5s-5.89,10.46-11.66,10.68S1786.32,1632.31,1793.93,1631.5Z" transform="translate(-156.1 -216.42)"/><path class="cls-3" d="M1766.16,1666.6s.78-12,5.89-14.68S1772.67,1662.58,1766.16,1666.6Z" transform="translate(-156.1 -216.42)"/><path class="cls-3" d="M1785.63,1625.14s-.77,12-5.88,14.67S1779.12,1629.16,1785.63,1625.14Z" transform="translate(-156.1 -216.42)"/><path class="cls-3" d="M1752.59,1644.47s11.21-4.29,15.8-.76S1759,1648.71,1752.59,1644.47Z" transform="translate(-156.1 -216.42)"/><path class="cls-8" d="M1783.52,1645.19a8.36,8.36,0,1,0-8.36,8.35A8.35,8.35,0,0,0,1783.52,1645.19Z" transform="translate(-156.1 -216.42)"/><path class="cls-7" d="M1755.46,1708.8s7.26-7.4,17.29-7.9,13.1,0,13.1,0-6.17,6.52-13.52,7.9S1755.46,1708.8,1755.46,1708.8Z" transform="translate(-156.1 -216.42)"/><path class="cls-7" d="M1757,1701.62c-1.27-1.1-2.22-10.11-10-12.37a74.15,74.15,0,0,0-13.28-2.69s6.73,11.71,11.63,13.47S1757,1701.62,1757,1701.62Z" transform="translate(-156.1 -216.42)"/><path class="cls-7" d="M1808.18,1735.86l1-.27c-.42-1.87-1.47-39.51,10.34-61.47l-1-.51C1806.65,1695.86,1807.78,1734.31,1808.18,1735.86Z" transform="translate(-156.1 -216.42)"/><path class="cls-3" d="M1821.6,1654s3.71,7.8,1.45,11.29S1818.92,1658.77,1821.6,1654Z" transform="translate(-156.1 -216.42)"/><path class="cls-3" d="M1823.91,1686.86s-3.71-7.8-1.45-11.29S1826.59,1682,1823.91,1686.86Z" transform="translate(-156.1 -216.42)"/><path class="cls-3" d="M1814.15,1656.34s6.89,5.21,6.49,9.35S1814,1661.85,1814.15,1656.34Z" transform="translate(-156.1 -216.42)"/><path class="cls-3" d="M1831.36,1684.48s-6.89-5.21-6.49-9.36S1831.52,1679,1831.36,1684.48Z" transform="translate(-156.1 -216.42)"/><path class="cls-3" d="M1808.7,1662s8.51,1.51,10,5.39S1811.06,1666.93,1808.7,1662Z" transform="translate(-156.1 -216.42)"/><path class="cls-3" d="M1836.81,1679.21s-8.51-1.51-10-5.39S1834.45,1674.23,1836.81,1679.21Z" transform="translate(-156.1 -216.42)"/><path class="cls-3" d="M1806.94,1675.62s6.81-5.31,10.71-3.85S1812.22,1677.2,1806.94,1675.62Z" transform="translate(-156.1 -216.42)"/><path class="cls-3" d="M1839.21,1669s-7.63,4.06-11.22,2S1834.28,1666.57,1839.21,1669Z" transform="translate(-156.1 -216.42)"/><path class="cls-3" d="M1810.7,1681.56s4.23-7.53,8.39-7.69S1816.18,1681,1810.7,1681.56Z" transform="translate(-156.1 -216.42)"/><path class="cls-3" d="M1836.26,1660.72s-4.23,7.53-8.39,7.69S1830.79,1661.3,1836.26,1660.72Z" transform="translate(-156.1 -216.42)"/><path class="cls-3" d="M1816.27,1686s.56-8.63,4.24-10.57S1821,1683.1,1816.27,1686Z" transform="translate(-156.1 -216.42)"/><path class="cls-3" d="M1830.29,1656.14s-.56,8.62-4.24,10.57S1825.61,1659,1830.29,1656.14Z" transform="translate(-156.1 -216.42)"/><path class="cls-3" d="M1806.5,1670.06s8.07-3.08,11.38-.55S1811.09,1673.11,1806.5,1670.06Z" transform="translate(-156.1 -216.42)"/><circle class="cls-8" cx="1666.65" cy="1454.16" r="6.01"/><path class="cls-7" d="M1810.25,1701.19s5.23-5.32,12.45-5.68,9.43,0,9.43,0-4.44,4.69-9.73,5.68S1810.25,1701.19,1810.25,1701.19Z" transform="translate(-156.1 -216.42)"/><path class="cls-7" d="M1811.33,1696c-.91-.8-1.6-7.29-7.19-8.91a53.52,53.52,0,0,0-9.56-1.94s4.84,8.44,8.37,9.7A27.93,27.93,0,0,0,1811.33,1696Z" transform="translate(-156.1 -216.42)"/><path class="cls-7" d="M1779.91,1735.86l1.24-.32c-.5-2.2-1.73-46.5,12.17-72.33l-1.12-.61C1778.11,1688.78,1779.44,1734,1779.91,1735.86Z" transform="translate(-156.1 -216.42)"/><path class="cls-3" d="M1795.7,1639.47s4.38,9.18,1.71,13.29S1792.55,1645.14,1795.7,1639.47Z" transform="translate(-156.1 -216.42)"/><path class="cls-3" d="M1798.43,1678.19s-4.38-9.17-1.71-13.29S1801.58,1672.53,1798.43,1678.19Z" transform="translate(-156.1 -216.42)"/><path class="cls-3" d="M1786.94,1642.28s8.11,6.13,7.64,11S1786.75,1648.76,1786.94,1642.28Z" transform="translate(-156.1 -216.42)"/><path class="cls-3" d="M1807.19,1675.39s-8.11-6.13-7.64-11S1807.38,1668.91,1807.19,1675.39Z" transform="translate(-156.1 -216.42)"/><path class="cls-3" d="M1780.53,1648.88s10,1.78,11.8,6.34S1783.3,1654.74,1780.53,1648.88Z" transform="translate(-156.1 -216.42)"/><path class="cls-3" d="M1813.6,1669.19s-10-1.78-11.8-6.34S1810.83,1663.33,1813.6,1669.19Z" transform="translate(-156.1 -216.42)"/><path class="cls-3" d="M1778.45,1665s8-6.25,12.61-4.54S1784.67,1666.83,1778.45,1665Z" transform="translate(-156.1 -216.42)"/><path class="cls-3" d="M1816.43,1657.21s-9,4.78-13.2,2.3S1810.63,1654.31,1816.43,1657.21Z" transform="translate(-156.1 -216.42)"/><path class="cls-3" d="M1782.88,1672s5-8.87,9.88-9S1789.32,1671.27,1782.88,1672Z" transform="translate(-156.1 -216.42)"/><path class="cls-3" d="M1813,1647.43s-5,8.86-9.88,9S1806.52,1648.12,1813,1647.43Z" transform="translate(-156.1 -216.42)"/><path class="cls-3" d="M1789.44,1677.18s.65-10.15,5-12.44S1795,1673.77,1789.44,1677.18Z" transform="translate(-156.1 -216.42)"/><path class="cls-3" d="M1805.94,1642s-.66,10.15-5,12.44S1800.42,1645.45,1805.94,1642Z" transform="translate(-156.1 -216.42)"/><path class="cls-3" d="M1777.94,1658.42s9.5-3.63,13.38-.64S1783.34,1662,1777.94,1658.42Z" transform="translate(-156.1 -216.42)"/><path class="cls-8" d="M1804.14,1659a7.08,7.08,0,1,0-7.08,7.07A7.08,7.08,0,0,0,1804.14,1659Z" transform="translate(-156.1 -216.42)"/><path class="cls-7" d="M1780.37,1712.93s6.15-6.26,14.65-6.69,11.1,0,11.1,0-5.23,5.52-11.46,6.69S1780.37,1712.93,1780.37,1712.93Z" transform="translate(-156.1 -216.42)"/><path class="cls-7" d="M1781.64,1706.85c-1.07-.93-1.88-8.57-8.47-10.48a62.42,62.42,0,0,0-11.25-2.28s5.71,9.92,9.86,11.41A32.93,32.93,0,0,0,1781.64,1706.85Z" transform="translate(-156.1 -216.42)"/><path class="cls-7" d="M1814,1735.86l.74-.19c-.29-1.32-1-27.9,7.31-43.4l-.68-.36C1812.93,1707.61,1813.73,1734.77,1814,1735.86Z" transform="translate(-156.1 -216.42)"/><path class="cls-3" d="M1823.49,1678s2.62,5.5,1,8S1821.6,1681.43,1823.49,1678Z" transform="translate(-156.1 -216.42)"/><path class="cls-3" d="M1825.12,1701.26s-2.62-5.51-1-8S1827,1697.86,1825.12,1701.26Z" transform="translate(-156.1 -216.42)"/><path class="cls-3" d="M1818.23,1679.71s4.87,3.68,4.58,6.6S1818.12,1683.6,1818.23,1679.71Z" transform="translate(-156.1 -216.42)"/><path class="cls-3" d="M1830.38,1699.58s-4.87-3.68-4.58-6.61S1830.49,1695.69,1830.38,1699.58Z" transform="translate(-156.1 -216.42)"/><path class="cls-3" d="M1814.38,1683.67s6,1.07,7.08,3.81S1816.05,1687.19,1814.38,1683.67Z" transform="translate(-156.1 -216.42)"/><path class="cls-3" d="M1834.23,1695.86s-6-1.07-7.08-3.81S1832.56,1692.34,1834.23,1695.86Z" transform="translate(-156.1 -216.42)"/><path class="cls-3" d="M1813.14,1693.32s4.81-3.75,7.56-2.72S1816.87,1694.44,1813.14,1693.32Z" transform="translate(-156.1 -216.42)"/><path class="cls-3" d="M1835.92,1688.67s-5.38,2.87-7.92,1.38S1832.44,1686.93,1835.92,1688.67Z" transform="translate(-156.1 -216.42)"/><path class="cls-3" d="M1815.79,1697.52s3-5.32,5.93-5.43S1819.66,1697.11,1815.79,1697.52Z" transform="translate(-156.1 -216.42)"/><path class="cls-3" d="M1833.84,1682.8s-3,5.32-5.92,5.43S1830,1683.21,1833.84,1682.8Z" transform="translate(-156.1 -216.42)"/><path class="cls-3" d="M1819.73,1700.65s.39-6.09,3-7.46S1823,1698.6,1819.73,1700.65Z" transform="translate(-156.1 -216.42)"/><path class="cls-3" d="M1829.63,1679.57s-.4,6.09-3,7.46S1826.32,1681.62,1829.63,1679.57Z" transform="translate(-156.1 -216.42)"/><path class="cls-3" d="M1812.83,1689.4s5.7-2.18,8-.39S1816.07,1691.55,1812.83,1689.4Z" transform="translate(-156.1 -216.42)"/><path class="cls-8" d="M1828.55,1689.77a4.25,4.25,0,1,0-4.25,4.24A4.25,4.25,0,0,0,1828.55,1689.77Z" transform="translate(-156.1 -216.42)"/><path class="cls-7" d="M1814.29,1722.1a14.69,14.69,0,0,1,8.78-4,38.38,38.38,0,0,1,6.67,0s-3.14,3.31-6.88,4A31.41,31.41,0,0,1,1814.29,1722.1Z" transform="translate(-156.1 -216.42)"/><path class="cls-7" d="M1815.05,1718.46c-.64-.57-1.13-5.15-5.08-6.29a37.19,37.19,0,0,0-6.75-1.37s3.42,6,5.91,6.84A19.52,19.52,0,0,0,1815.05,1718.46Z" transform="translate(-156.1 -216.42)"/><path class="cls-7" d="M1855.14,1735.86l1.23-.32c-.49-2.2-1.72-46.5,12.17-72.33l-1.12-.61C1853.34,1688.78,1854.66,1734,1855.14,1735.86Z" transform="translate(-156.1 -216.42)"/><path class="cls-3" d="M1870.93,1639.47s4.37,9.18,1.71,13.29S1867.78,1645.14,1870.93,1639.47Z" transform="translate(-156.1 -216.42)"/><path class="cls-3" d="M1873.66,1678.19s-4.38-9.17-1.71-13.29S1876.81,1672.53,1873.66,1678.19Z" transform="translate(-156.1 -216.42)"/><path class="cls-3" d="M1862.17,1642.28s8.11,6.13,7.63,11S1862,1648.76,1862.17,1642.28Z" transform="translate(-156.1 -216.42)"/><path class="cls-3" d="M1882.42,1675.39s-8.11-6.13-7.64-11S1882.61,1668.91,1882.42,1675.39Z" transform="translate(-156.1 -216.42)"/><path class="cls-3" d="M1855.75,1648.88s10,1.78,11.81,6.34S1858.53,1654.74,1855.75,1648.88Z" transform="translate(-156.1 -216.42)"/><path class="cls-3" d="M1888.83,1669.19s-10-1.78-11.8-6.34S1886.05,1663.33,1888.83,1669.19Z" transform="translate(-156.1 -216.42)"/><path class="cls-3" d="M1853.68,1665s8-6.25,12.61-4.54S1859.89,1666.83,1853.68,1665Z" transform="translate(-156.1 -216.42)"/><path class="cls-3" d="M1891.65,1657.21s-9,4.78-13.2,2.3S1885.85,1654.31,1891.65,1657.21Z" transform="translate(-156.1 -216.42)"/><path class="cls-3" d="M1858.1,1672s5-8.87,9.88-9S1864.55,1671.27,1858.1,1672Z" transform="translate(-156.1 -216.42)"/><path class="cls-3" d="M1888.19,1647.43s-5,8.86-9.88,9S1881.74,1648.12,1888.19,1647.43Z" transform="translate(-156.1 -216.42)"/><path class="cls-3" d="M1864.67,1677.18s.65-10.15,5-12.44S1870.18,1673.77,1864.67,1677.18Z" transform="translate(-156.1 -216.42)"/><path class="cls-3" d="M1881.16,1642s-.65,10.15-5,12.44S1875.65,1645.45,1881.16,1642Z" transform="translate(-156.1 -216.42)"/><path class="cls-3" d="M1853.17,1658.42s9.5-3.63,13.38-.64S1858.56,1662,1853.17,1658.42Z" transform="translate(-156.1 -216.42)"/><path class="cls-8" d="M1879.37,1659a7.08,7.08,0,1,0-7.08,7.07A7.08,7.08,0,0,0,1879.37,1659Z" transform="translate(-156.1 -216.42)"/><path class="cls-7" d="M1857.58,1695.06s6.15-6.26,14.64-6.69,11.11,0,11.11,0-5.23,5.52-11.46,6.69S1857.58,1695.06,1857.58,1695.06Z" transform="translate(-156.1 -216.42)"/><path class="cls-7" d="M1858.85,1689c-1.07-.93-1.88-8.57-8.47-10.48a62.42,62.42,0,0,0-11.25-2.28s5.71,9.92,9.86,11.41A32.54,32.54,0,0,0,1858.85,1689Z" transform="translate(-156.1 -216.42)"/><path class="cls-7" d="M1832.36,1735.86l1.23-.34c-.49-2.38-1.72-50.31,12.17-78.26l-1.12-.66C1830.56,1684.92,1831.88,1733.89,1832.36,1735.86Z" transform="translate(-156.1 -216.42)"/><path class="cls-3" d="M1848.15,1631.58s4.37,9.93,1.71,14.38S1845,1637.71,1848.15,1631.58Z" transform="translate(-156.1 -216.42)"/><path class="cls-3" d="M1850.88,1673.47s-4.38-9.93-1.71-14.38S1854,1667.34,1850.88,1673.47Z" transform="translate(-156.1 -216.42)"/><path class="cls-3" d="M1839.39,1634.61s8.11,6.64,7.63,11.91S1839.2,1641.62,1839.39,1634.61Z" transform="translate(-156.1 -216.42)"/><path class="cls-3" d="M1859.64,1670.44s-8.11-6.64-7.64-11.91S1859.83,1663.42,1859.64,1670.44Z" transform="translate(-156.1 -216.42)"/><path class="cls-3" d="M1833,1641.75s10,1.93,11.81,6.87S1835.75,1648.09,1833,1641.75Z" transform="translate(-156.1 -216.42)"/><path class="cls-3" d="M1866.05,1663.73s-10-1.93-11.8-6.86S1863.27,1657.39,1866.05,1663.73Z" transform="translate(-156.1 -216.42)"/><path class="cls-3" d="M1830.9,1659.16s8-6.76,12.61-4.91S1837.11,1661.17,1830.9,1659.16Z" transform="translate(-156.1 -216.42)"/><path class="cls-3" d="M1868.87,1650.76s-9,5.18-13.2,2.5S1863.07,1647.63,1868.87,1650.76Z" transform="translate(-156.1 -216.42)"/><path class="cls-3" d="M1835.32,1666.72s5-9.59,9.88-9.79S1841.77,1666,1835.32,1666.72Z" transform="translate(-156.1 -216.42)"/><path class="cls-3" d="M1865.41,1640.19s-5,9.59-9.88,9.79S1859,1640.93,1865.41,1640.19Z" transform="translate(-156.1 -216.42)"/><path class="cls-3" d="M1841.88,1672.37s.66-11,5-13.45S1847.4,1668.68,1841.88,1672.37Z" transform="translate(-156.1 -216.42)"/><path class="cls-3" d="M1858.38,1634.36s-.65,11-5,13.45S1852.87,1638.05,1858.38,1634.36Z" transform="translate(-156.1 -216.42)"/><path class="cls-3" d="M1830.39,1652.08s9.49-3.93,13.38-.7S1835.78,1656,1830.39,1652.08Z" transform="translate(-156.1 -216.42)"/><path class="cls-8" d="M1856.59,1652.74a7.1,7.1,0,1,0-14.16,0c0,4.23,3.17,7.66,7.08,7.66S1856.59,1657,1856.59,1652.74Z" transform="translate(-156.1 -216.42)"/><path class="cls-7" d="M1832.81,1711.05s6.16-6.78,14.65-7.23,11.11,0,11.11,0-5.23,6-11.46,7.23S1832.81,1711.05,1832.81,1711.05Z" transform="translate(-156.1 -216.42)"/><path class="cls-7" d="M1834.09,1704.47c-1.08-1-1.89-9.27-8.47-11.34a58.44,58.44,0,0,0-11.25-2.46s5.7,10.73,9.86,12.34S1834.09,1704.47,1834.09,1704.47Z" transform="translate(-156.1 -216.42)"/><path class="cls-7" d="M1862,1735.86l.88-.22c-.35-1.56-1.22-32.84,8.59-51.08l-.79-.43C1860.73,1702.62,1861.67,1734.58,1862,1735.86Z" transform="translate(-156.1 -216.42)"/><path class="cls-3" d="M1873.15,1667.8s3.09,6.48,1.21,9.38S1870.93,1671.8,1873.15,1667.8Z" transform="translate(-156.1 -216.42)"/><path class="cls-3" d="M1875.08,1695.14s-3.09-6.48-1.21-9.38S1877.3,1691.14,1875.08,1695.14Z" transform="translate(-156.1 -216.42)"/><path class="cls-3" d="M1867,1669.78s5.72,4.33,5.39,7.77S1866.83,1674.36,1867,1669.78Z" transform="translate(-156.1 -216.42)"/><path class="cls-3" d="M1881.27,1693.16s-5.73-4.33-5.4-7.77S1881.4,1688.58,1881.27,1693.16Z" transform="translate(-156.1 -216.42)"/><path class="cls-3" d="M1862.44,1674.44s7.07,1.26,8.33,4.48S1864.4,1678.58,1862.44,1674.44Z" transform="translate(-156.1 -216.42)"/><path class="cls-3" d="M1885.79,1688.79s-7.07-1.26-8.33-4.48S1883.83,1684.65,1885.79,1688.79Z" transform="translate(-156.1 -216.42)"/><path class="cls-3" d="M1861,1685.8s5.67-4.41,8.91-3.2S1865.36,1687.11,1861,1685.8Z" transform="translate(-156.1 -216.42)"/><path class="cls-3" d="M1887.79,1680.32s-6.34,3.38-9.32,1.63S1883.69,1678.28,1887.79,1680.32Z" transform="translate(-156.1 -216.42)"/><path class="cls-3" d="M1864.1,1690.74s3.52-6.26,7-6.39S1868.65,1690.25,1864.1,1690.74Z" transform="translate(-156.1 -216.42)"/><path class="cls-3" d="M1885.34,1673.42s-3.52,6.26-7,6.39S1880.79,1673.9,1885.34,1673.42Z" transform="translate(-156.1 -216.42)"/><path class="cls-3" d="M1868.73,1694.42s.46-7.16,3.52-8.78S1872.63,1692,1868.73,1694.42Z" transform="translate(-156.1 -216.42)"/><path class="cls-3" d="M1880.38,1669.61s-.46,7.17-3.52,8.79S1876.49,1672,1880.38,1669.61Z" transform="translate(-156.1 -216.42)"/><path class="cls-3" d="M1860.61,1681.18s6.71-2.56,9.45-.45S1864.42,1683.72,1860.61,1681.18Z" transform="translate(-156.1 -216.42)"/><path class="cls-8" d="M1879.11,1681.61a5,5,0,1,0-5,5A5,5,0,0,0,1879.11,1681.61Z" transform="translate(-156.1 -216.42)"/><path class="cls-7" d="M1862.32,1719.67s4.35-4.42,10.35-4.72a45.91,45.91,0,0,1,7.84,0s-3.69,3.89-8.09,4.72A37.23,37.23,0,0,1,1862.32,1719.67Z" transform="translate(-156.1 -216.42)"/><path class="cls-7" d="M1863.22,1715.38c-.75-.66-1.33-6.06-6-7.41a44.43,44.43,0,0,0-8-1.6s4,7,7,8.05A23.18,23.18,0,0,0,1863.22,1715.38Z" transform="translate(-156.1 -216.42)"/><path class="cls-9" d="M422.84,1263.67v477.41H317.52c0-.14-.1-.31-.17-.48s-.07-.2-.11-.31q-.53-1.36-1.41-3.72l-.23-.47v-.23a.85.85,0,0,1-.23-.47,66,66,0,0,1-2.59-6.59c-.48-1.19-.94-2.6-1.65-4v-.48l-.23-.23c-3.24-8.4-7.25-19.34-11.88-32.57-.41-1.2-.83-2.41-1.27-3.63-3.47-10-7.29-21.18-11.35-33.5q-2.81-8.69-5.76-18.11c-8.17-26.11-17.07-56.27-25.79-89.5-4.24-16.25-8.48-33.2-12.49-50.87-2.36-10.2-4.73-20.82-7-31.54-.66-3.15-1.3-6.29-2-9.44-4.16-20.08-8.08-40.77-11.61-61.9-4.66-27.77-8.65-56.3-11.7-85.28-1.5-14.21-2.78-28.55-3.8-42.94,0-.38-.06-.76-.07-1.14Z" transform="translate(-156.1 -216.42)"/><polygon class="cls-10" points="180.17 848.92 291.74 1078.59 630.69 1078.59 453.98 849.76 180.17 848.92"/><polygon class="cls-11" points="617.31 1078.59 607.24 1065.55 440.6 849.76 166.8 848.92 266.73 1054.64 266.73 1524.63 607.24 1524.63 607.24 1078.59 617.31 1078.59"/><path class="cls-12" d="M551.3,1180.18h93.27a0,0,0,0,1,0,0v112.68a42.36,42.36,0,0,1-42.36,42.36h-7.12a43.78,43.78,0,0,1-43.78-43.78V1180.18A0,0,0,0,1,551.3,1180.18Z" transform="translate(1039.76 2298.98) rotate(180)"/><path class="cls-10" d="M611,1065.34l-.76,1-6.6,8.79L444.25,1287.61l-15.11,20.14h-219c-1.5-14.21-2.78-28.55-3.8-42.94,0-.38-.06-.76-.07-1.14s-.07-.77-.1-1.16c-1.39-20.28-2.26-40.71-2.52-61.13l105-136h44.51l155.49,0Z" transform="translate(-156.1 -216.42)"/><polygon class="cls-10" points="477.55 1142.74 556.98 1306.25 798.29 1306.25 672.48 1143.34 477.55 1142.74"/><polygon class="cls-11" points="791.06 1306.25 665.25 1143.34 470.32 1142.74 549.75 1306.25 550.27 1306.25 550.27 1524.18 791.06 1524.65 791.06 1306.25 791.06 1306.25"/><rect class="cls-9" x="346.38" y="1306.25" width="203.9" height="217.93"/><polygon class="cls-10" points="323.97 1315.92 543.01 1315.92 672.48 1143.33 607.24 1143.34 457.21 1143.38 323.97 1315.92"/><path class="cls-12" d="M777.86,1559v182.1H879.31V1560.65a51.58,51.58,0,0,0-51.56-51.56A49.91,49.91,0,0,0,777.86,1559Z" transform="translate(-156.1 -216.42)"/><path class="cls-12" d="M840,1450.53a11.39,11.39,0,1,0-11.38,11.38A11.38,11.38,0,0,0,840,1450.53Z" transform="translate(-156.1 -216.42)"/><polygon class="cls-13" points="323.97 1315.92 365.54 1315.92 607.24 1143.34 457.21 1143.38 323.97 1315.92"/><polygon class="cls-14" points="285.78 1009.97 85.59 1009.97 191.19 880.46 391.38 880.46 285.78 1009.97"/><polygon class="cls-15" points="364.11 914.57 163.93 914.57 165.17 913.04 365.36 913.04 364.11 914.57"/><polygon class="cls-15" points="238.25 880.45 132.65 1009.97 131.12 1009.97 236.72 880.45 238.25 880.45"/><polygon class="cls-15" points="291.29 880.45 185.69 1009.97 184.16 1009.97 289.76 880.45 291.29 880.45"/><polygon class="cls-15" points="342.32 880.45 236.72 1009.97 235.2 1009.97 340.8 880.45 342.32 880.45"/><polygon class="cls-15" points="337.96 945.97 137.77 945.97 139.01 944.45 339.2 944.45 337.96 945.97"/><polygon class="cls-15" points="310.33 979.85 110.15 979.85 111.39 978.33 311.58 978.33 310.33 979.85"/><polygon class="cls-15" points="204.93 920.15 203.78 913.91 215.1 907.67 216.25 913.91 204.93 920.15"/><polygon class="cls-15" points="257.4 920.15 256.25 913.91 267.57 907.67 268.72 913.91 257.4 920.15"/><polygon class="cls-15" points="309.19 920.15 308.04 913.91 319.37 907.67 320.52 913.91 309.19 920.15"/><polygon class="cls-15" points="179.41 951.45 178.25 945.21 189.58 938.97 190.73 945.21 179.41 951.45"/><polygon class="cls-15" points="231.88 951.45 230.72 945.21 242.05 938.97 243.2 945.21 231.88 951.45"/><polygon class="cls-15" points="283.67 951.45 282.52 945.21 293.85 938.97 295 945.21 283.67 951.45"/><polygon class="cls-15" points="151.78 985.33 150.63 979.09 161.96 972.85 163.11 979.09 151.78 985.33"/><polygon class="cls-15" points="204.25 985.33 203.1 979.09 214.43 972.85 215.58 979.09 204.25 985.33"/><polygon class="cls-15" points="256.05 985.33 254.9 979.09 266.23 972.85 267.38 979.09 256.05 985.33"/><path class="cls-16" d="M2663.54,655.83c-.08,5-.24,10-.48,15a502.11,502.11,0,0,1-7.88,66.89L2342,733.64s28.35-66.91,96.14-59.47c0,0,98.42-111.53,203.37-14.87C2641.5,659.3,2649.8,657.52,2663.54,655.83Z" transform="translate(-156.1 -216.42)"/><path class="cls-16" d="M1645,443.49s14.68-35.33,49.78-31.4c0,0,51-58.89,105.31-7.86,0,0,57.77-12.64,100.55,10.95,28.52,15.74,37.94,32.24,37.94,32.24Z" transform="translate(-156.1 -216.42)"/><path class="cls-16" d="M464.19,956.59s15.68-37.74,53.19-33.55c0,0,54.45-62.92,112.51-8.39,0,0,61.72-13.51,107.43,11.7,30.48,16.81,40.54,34.44,40.54,34.44Z" transform="translate(-156.1 -216.42)"/><path class="cls-16" d="M382.46,841.11s12-28.89,40.71-25.68c0,0,41.66-48.15,86.1-6.42,0,0,47.23-10.34,82.21,9,23.32,12.86,31,26.36,31,26.36Z" transform="translate(-156.1 -216.42)"/><path class="cls-7" d="M2909.38,1570.19a377.71,377.71,0,0,1-7.67,46.76c-.08.33-.15.67-.24,1-82.79,30-168.13,69.79-244.11,122.33H2451.92C2481.7,1721.14,2626.82,1640.79,2909.38,1570.19Z" transform="translate(-156.1 -216.42)"/><path class="cls-17" d="M2453.06,1526.46s157.65-13.82,200.5,0,64.29,78.11,58.16,125-20.4,86.73-47.95,85.71-222.44,0-222.44,0Z" transform="translate(-156.1 -216.42)"/><path class="cls-17" d="M2485.26,1524.05s33.37-6.21,56.07-8.51c0,0-17.86,3.66-20.07,5.53,0,0,48.47-7.31,66.15-5.53s41.92,4.78,41.92,4.78l27-1.8s-22.45,2.72-21.26,3.06,21.94,2.89,28.57,7.14c0,0,20.57,6.46,25,10.37,0,0-16.5-8.33-23-7.82,0,0,37.38,25.93,37.48,50.63s-160.77-37.19-160.77-37.19Z" transform="translate(-156.1 -216.42)"/><path class="cls-3" d="M2475.61,1525.22s-62.75-4.77-102.54,45.74-7.65,167.45,44.38,167.9,116.13-7.55,130-75.48S2532.24,1526.93,2475.61,1525.22Z" transform="translate(-156.1 -216.42)"/><path class="cls-3" d="M2347.12,1626s22.45-25.84,24.83-33l3.4,7.15Z" transform="translate(-156.1 -216.42)"/><path class="cls-3" d="M2363.32,1587.73s2.85-18.54,11-25.34c0,0-7.42,12.43-5.5,22.79S2363.32,1587.73,2363.32,1587.73Z" transform="translate(-156.1 -216.42)"/><path class="cls-3" d="M2374.33,1718.84c.41,1-12.07-33.92-8-40.55l2.37,0S2370.33,1709.15,2374.33,1718.84Z" transform="translate(-156.1 -216.42)"/><path class="cls-3" d="M2364.3,1673.44s-9.35-3.06-14.63,0c0,0,8.67-2.43,13.95,2.72S2364.3,1673.44,2364.3,1673.44Z" transform="translate(-156.1 -216.42)"/><path class="cls-17" d="M2450.78,1737.09c-14.42,0-31.79-2.45-46.62-11.52-16-9.81-26.49-25.63-31.11-47-7.87-36.39-4-66.26,11.48-88.75,14.48-21,38.92-34.73,70.69-39.61,21.44-3.3,40,3.63,53.69,20,19.76,23.7,25.44,63.74,13.81,97.37-8.22,23.76-30.18,38.44-58.73,39.27l-2.44,0c-28.76,0-54.69-14.7-63.6-36.31-9.07-22-8.6-43.58,1.33-60.68,10.08-17.36,29.12-28.66,53.62-31.8,22.17-2.86,34.13,7.47,40.26,16.63,11.82,17.67,11.79,46.38,3.87,60.24-7.64,13.35-28.77,23.66-47.11,23-13.25-.48-23.35-6.61-28.46-17.26-6.58-13.7-6.15-27.85,1.18-38.82,5.9-8.83,15.43-14.22,24.27-13.74,10.15.55,14.48,9,15.11,16.13.54,6.25-1.59,13.2-6.72,14.4-9.55,2.23-12.93-3-13.07-3.21,0,0-5.16-8.51,1.25-9.73,7.35-1.4,5.42,4.3,5.42,4.3.1.16-1.82,7.86,5.8,6.08,3.14-.73,5.21-5.83,4.7-11.61-.55-6.34-4.17-13.28-12.63-13.74-7.95-.45-16.56,4.5-21.95,12.58-6.8,10.18-7.16,23.38-1,36.23,6,12.47,17.55,15.45,26.19,15.76,17.46.6,37.54-9.1,44.74-21.69,6.67-11.68,8.46-39.19-3.77-57.48-8.2-12.25-21.25-17.61-37.75-15.49-23.66,3-42,13.88-51.68,30.52-9.51,16.38-9.93,37.1-1.17,58.36s34.89,35.48,63.53,34.65c27.42-.79,48.48-14.81,56.33-37.5,11.35-32.8,5.86-71.8-13.35-94.83-9.1-10.92-25.39-23.1-51.27-19.13-31,4.77-54.87,18.08-68.93,38.5-15.06,21.88-18.78,51.06-11.08,86.72,4.47,20.65,14.53,35.9,29.92,45.32,31.1,19,80.15,7.51,80.58,7.4l-5.55,3A129.78,129.78,0,0,1,2450.78,1737.09Z" transform="translate(-156.1 -216.42)"/><path class="cls-17" d="M2696.94,1453.26s212-18.59,269.61,0,86.43,105,78.2,168.13-27.44,116.62-64.48,115.25-299.1,0-299.1,0Z" transform="translate(-156.1 -216.42)"/><path class="cls-17" d="M2740.23,1450s44.87-8.36,75.4-11.44c0,0-24,4.91-27,7.43,0,0,65.17-9.83,89-7.43S2934,1445,2934,1445l36.25-2.43s-30.19,3.66-28.59,4.12,29.5,3.88,38.42,9.6c0,0,27.67,8.69,33.61,14,0,0-22.18-11.21-30.87-10.52,0,0,50.27,34.87,50.4,68.08s-216.18-50-216.18-50Z" transform="translate(-156.1 -216.42)"/><path class="cls-3" d="M2727.26,1451.59s-84.38-6.42-137.88,61.49-10.29,225.17,59.68,225.77,156.15-10.14,174.8-101.49S2803.4,1453.89,2727.26,1451.59Z" transform="translate(-156.1 -216.42)"/><path class="cls-3" d="M2554.49,1587.09s30.18-34.76,33.38-44.36l4.58,9.6Z" transform="translate(-156.1 -216.42)"/><path class="cls-3" d="M2576.27,1535.63s3.83-24.92,14.8-34.06c0,0-10,16.7-7.4,30.64S2576.27,1535.63,2576.27,1535.63Z" transform="translate(-156.1 -216.42)"/><path class="cls-3" d="M2591.07,1711.94c.55,1.34-16.23-45.62-10.74-54.54l3.19,0S2585.7,1698.91,2591.07,1711.94Z" transform="translate(-156.1 -216.42)"/><path class="cls-3" d="M2577.58,1650.89s-12.58-4.12-19.66,0c0,0,11.65-3.26,18.75,3.65S2577.58,1650.89,2577.58,1650.89Z" transform="translate(-156.1 -216.42)"/><path class="cls-17" d="M2693.87,1736.47c-19.4,0-42.75-3.29-62.68-15.49-21.55-13.19-35.63-34.45-41.84-63.2-10.58-49-5.38-89.1,15.44-119.35,19.46-28.29,52.33-46.7,95.05-53.26,28.83-4.44,53.8,4.89,72.19,26.94,26.58,31.88,34.22,85.72,18.57,130.94-11,32-40.57,51.69-79,52.8-1.1,0-2.19,0-3.28,0-38.68,0-73.54-19.77-85.51-48.83-12.21-29.62-11.57-58.59,1.78-81.59,13.56-23.34,39.16-38.53,72.1-42.76,29.81-3.84,45.9,10,54.13,22.36,15.9,23.77,15.86,62.37,5.2,81-10.26,18-38.67,31.81-63.34,31-17.81-.64-31.4-8.88-38.27-23.2-8.84-18.43-8.27-37.45,1.59-52.2,7.93-11.88,20.74-19.13,32.64-18.48,13.65.74,19.47,12.14,20.31,21.68.73,8.41-2.13,17.76-9,19.37-12.84,3-17.39-4-17.58-4.31,0,0-6.93-11.45,1.69-13.09,9.88-1.88,7.28,5.78,7.28,5.78.14.21-2.44,10.58,7.81,8.18,4.22-1,7-7.84,6.31-15.62-.74-8.52-5.6-17.85-17-18.47-10.68-.61-22.26,6.06-29.51,16.92-9.14,13.69-9.63,31.44-1.34,48.71,8.05,16.77,23.59,20.78,35.21,21.2,23.49.8,50.48-12.25,60.16-29.18,9-15.69,11.39-52.69-5.07-77.28-11-16.48-28.57-23.68-50.75-20.83-31.82,4.09-56.5,18.66-69.5,41-12.79,22-13.35,49.89-1.57,78.47s46.92,47.71,85.43,46.6c36.87-1.07,65.18-19.92,75.74-50.43,15.26-44.11,7.88-96.55-17.95-127.52-12.24-14.68-34.14-31-68.94-25.72-41.74,6.41-73.79,24.32-92.69,51.78-20.24,29.42-25.26,68.65-14.89,116.6,6,27.77,19.53,48.27,40.23,60.94,41.81,25.59,107.77,10.1,108.34,10l-7.46,4A175.7,175.7,0,0,1,2693.87,1736.47Z" transform="translate(-156.1 -216.42)"/><path class="cls-18" d="M1162.41,1535.36s-36.38,140.38-33.12,151.47,21.54,48.79,21.54,48.79h-17.58a13.25,13.25,0,0,1-6.82-12.18c.29-8.7-24.36-42.63-24.36-42.63s9.67-53.89,0-75.12C1060.42,1514.27,1130.18,1515.14,1162.41,1535.36Z" transform="translate(-156.1 -216.42)"/><path class="cls-18" d="M1349.28,1583.94s-10.44,75.41-11,80-5.51,10.44-5.22,18,2.9,33.06,11,39.44,9,14.21,9,14.21h-22s-3.77-7.54-3.19-12.76-6.09-10.73-6.38-21.46,0-30.74-2.9-37.7-2-54.82-11.6-65.55S1349.28,1583.94,1349.28,1583.94Z" transform="translate(-156.1 -216.42)"/><path class="cls-12" d="M1109.46,1558.72c-.23,3.48-.35,6.72-.35,10,.59,81.64,81.39,57.19,84.27,55,3.12-2.16,8.75-1.92,8.75-1.92,40.4,16.07,97,1.32,108.73-3.48s43,7.08,57.54,6c5.88-.48,10.79-6.6,14.51-14.27a108.11,108.11,0,0,0,8.75-29.85c.24-2.75,4-13.3,9-26.25,2-5,4.32-10.55,6.72-16.18.47-1,.83-2,1.31-3-1.19-1.32-2.27-2.76-3.35-4.2-6.36-8.39-10.79-18.22-15.71-28-5-10.31-10.43-20.86-18.46-30.33-11.87-3.72-26,3-31.89,2.64a163.36,163.36,0,0,1-19.66-2.4c-2.51-.48-4.79-.84-6.95-1.2-12-1.8-84.63,7.56-135.94,9-10.55.36-20.14.24-28.17-.24-.6,0-1.2-.12-1.8-.12-21.46-1.2-32.85.12-38.84,2-6.6,2-6.72,4.56-6.72,4.56C1080.69,1506.46,1109.46,1558.72,1109.46,1558.72Z" transform="translate(-156.1 -216.42)"/><path class="cls-12" d="M1375.69,1583.94s-10.44,75.41-11,80-5.51,10.44-5.22,18,2.9,33.06,11,39.44,9,14.21,9,14.21h-22s-3.77-7.54-3.19-12.76-6.09-10.73-6.38-21.46,0-30.74-2.9-37.7-2-54.82-11.6-65.55S1375.69,1583.94,1375.69,1583.94Z" transform="translate(-156.1 -216.42)"/><path class="cls-12" d="M1185.1,1566.76s-29.36,109-26.1,120.07,21.53,48.79,21.53,48.79H1163a13.25,13.25,0,0,1-6.81-12.18c.29-8.7-24.37-42.63-24.37-42.63s-2-61.52-16.49-79.79S1152.87,1546.54,1185.1,1566.76Z" transform="translate(-156.1 -216.42)"/><path class="cls-12" d="M1484.23,1594.65c1.19,1.6,2.24,2.73,2.24,2.73a45.79,45.79,0,0,0,5.22.26,14.22,14.22,0,0,0,7-1.91,8.86,8.86,0,0,0,3.44-4.1s-1-2.57-6.22-3.25c-3.85-.5-7.63-3.17-10.85-3.51h0a4.64,4.64,0,0,0-3.24.77C1479.42,1587.34,1482.06,1591.75,1484.23,1594.65Z" transform="translate(-156.1 -216.42)"/><path class="cls-12" d="M1489.79,1604.82c.15-.07,2,.28,4.37.27,3.85,0,9.19-.94,11.33-6,0,0-1-2.57-6.22-3.25a5.25,5.25,0,0,1-.55-.09c-3.36-.6-6.67-2.71-9.56-3.3a4.93,4.93,0,0,0-4,.64,2.14,2.14,0,0,0-.94,1.58C1483.76,1598.25,1489.79,1604.82,1489.79,1604.82Z" transform="translate(-156.1 -216.42)"/><path class="cls-12" d="M1370.2,1494.71c1.44,37.4,8.39,109,12.71,115.32a167.63,167.63,0,0,1,26,2.88c21.58,4.43,27.58,12.58,29.61,16.42,3.84,7.68,21.82,25.18,24.94,25.78s5.15,4.79,8.51,11.63,9.71,7.31,15.1,7.67,9.83-6.24,10-7.79-2.75-6.72-2.27-13.43-4-26.73-.36-32.13c2.28-3.48,1-10.91-.24-15.94-.72-3-1.44-5-1.44-5a13.6,13.6,0,0,0-1.08-2.4c-.72-1.55-1.56-3.35-2.52-5.27-1.08-2.28-2.51-4.8-4.07-7.55a312.48,312.48,0,0,0-28.89-42.2,285.85,285.85,0,0,0-46.76-46.51,208,208,0,0,0-38.24-24C1370,1472.65,1369.72,1481.64,1370.2,1494.71Z" transform="translate(-156.1 -216.42)"/><path class="cls-14" d="M1353.46,1565.44c-.76-1.93-.37-34.75-24.06-41.49s-36.65,3.63-66.21-8.29-60.68-21.78-63.79-8.82,2.6,49.27,0,65.86,53.53,22.47,76.55,12.27S1361.78,1586.7,1353.46,1565.44Z" transform="translate(-156.1 -216.42)"/><path class="cls-14" d="M1101.17,1486.48a59.51,59.51,0,0,0-17.93,36.44c-2.59,23.33,4.67,125.86,4.67,125.86l5.92-.33,6.35-113.43Z" transform="translate(-156.1 -216.42)"/><path class="cls-14" d="M1094.82,1661.83S1082,1648.07,1090,1645s4.84,6.22,4.84,9.85Z" transform="translate(-156.1 -216.42)"/><path class="cls-19" d="M1107.91,1481.88c14.86,7.31,31.29,14,41,14.27,21.21.36,72.76-11.87,93.74-13.19s106,18.34,126,12a3.29,3.29,0,0,1,1.56-.24c4.44-.36,11.15,2.75,19.42,7.79,4.68,3,9.83,6.59,15.23,10.67,34.88,26.37,80.2,71.69,80.2,71.69a312.48,312.48,0,0,0-28.89-42.2,285.85,285.85,0,0,0-46.76-46.51,208,208,0,0,0-38.24-24c-11.87-3.72-26,3-31.89,2.64a163.36,163.36,0,0,1-19.66-2.4c-2.51-.48-4.79-.84-6.95-1.2-12-1.8-84.63,7.56-135.94,9-10.55.36-20.14.24-28.17-.24-.6,0-1.2-.12-1.8-.12C1125.29,1478.64,1113.9,1480,1107.91,1481.88Z" transform="translate(-156.1 -216.42)"/><path class="cls-14" d="M1176.74,1480.2c9.27,7.57,27.07,10.58,52.22,5.9,30.6-5.71,37.86,7.78,63.27,8.81,22.42.91,26.67-18,27.36-22.52-2.47-.4-4.81-.8-7-1.13C1300.7,1469.45,1228,1478.73,1176.74,1480.2Z" transform="translate(-156.1 -216.42)"/><path class="cls-14" d="M1405.33,1530.55a54.38,54.38,0,0,0,2,7.2,58.85,58.85,0,0,0,4,7.79c13.55,21.58.72,47.47-2.4,67.37,21.58,4.43,27.58,12.58,29.61,16.42,3.84,7.68,21.82,25.18,24.94,25.78s5.15,4.79,8.51,11.63,9.71,7.31,15.1,7.67,9.83-6.24,10-7.79-2.75-6.72-2.27-13.43-4-26.73-.36-32.13c2.28-3.48,1-10.91-.24-15.94,3.83,0,9.23-1,11.39-6,0,0-1.08-2.64-6.24-3.36h-.6a9.33,9.33,0,0,0,3.48-4.19s-1.08-2.52-6.23-3.24c-3.84-.48-7.68-3.11-10.91-3.47a312.48,312.48,0,0,0-28.89-42.2,285.85,285.85,0,0,0-46.76-46.51,72.09,72.09,0,0,0-4.55,17A53.12,53.12,0,0,0,1405.33,1530.55Z" transform="translate(-156.1 -216.42)"/><path class="cls-14" d="M1109.44,1558.7c-.23,3.48-.32,6.79-.3,9.94,26.32,19.53,72.49,9.68,76-13.81,4-27.06-32.37-30.88-29.7-53.17,1.08-9.09-3.2-16.38-8.65-21.81-45.15-2.68-45.58,6.63-45.58,6.63C1080.73,1506.5,1109.44,1558.7,1109.44,1558.7Z" transform="translate(-156.1 -216.42)"/><rect class="cls-20" x="659.68" y="315.41" width="1049.49" height="697.9" rx="59.63"/><path class="cls-21" d="M1200,759.06a151,151,0,1,1-151-151,149.49,149.49,0,0,1,27.77,2.57c-18.85,68.68-43.87,159.65-45.54,165.32,3.11-4.9,94.94-46.06,157.65-73.81A150,150,0,0,1,1200,759.06Z" transform="translate(-156.1 -216.42)"/><path class="cls-22" d="M1197.24,685.66c-55.38,24.4-147.11,65.3-150,69.93,1.59-5.4,27-97.64,44-159.46A165.86,165.86,0,0,1,1197.24,685.66Z" transform="translate(-156.1 -216.42)"/><path class="cls-15" d="M1563.89,577.54a12.55,12.55,0,1,1,12.54,12.55A12.54,12.54,0,0,1,1563.89,577.54Z" transform="translate(-156.1 -216.42)"/><path class="cls-15" d="M1629,577.54a12.55,12.55,0,1,1,12.54,12.55A12.54,12.54,0,0,1,1629,577.54Z" transform="translate(-156.1 -216.42)"/><circle class="cls-22" cx="1708.78" cy="577.54" r="12.55" transform="translate(-64 1161.03) rotate(-45)"/><path class="cls-15" d="M1174.61,1177.75H882.42v-93h292.19ZM886,1174.17h285v-85.81H886Z" transform="translate(-156.1 -216.42)"/><rect class="cls-15" x="747.49" y="893.34" width="113.02" height="7.37"/><rect class="cls-15" x="872.41" y="893.34" width="80.2" height="7.37"/><rect class="cls-15" x="747.49" y="914.39" width="62.37" height="7.37"/><rect class="cls-15" x="820.41" y="914.39" width="80.2" height="7.37"/><rect class="cls-15" x="908.91" y="914.39" width="80.2" height="7.37"/><path class="cls-15" d="M1541.4,1130.81H1396.75v-46H1541.4ZM1398.52,1129h141.11v-42.48H1398.52Z" transform="translate(-156.1 -216.42)"/><rect class="cls-15" x="1251.12" y="880.73" width="55.95" height="3.65"/><rect class="cls-15" x="1312.97" y="880.73" width="39.7" height="3.65"/><rect class="cls-15" x="1251.12" y="891.15" width="30.88" height="3.65"/><rect class="cls-15" x="1287.23" y="891.15" width="39.7" height="3.65"/><rect class="cls-15" x="1331.04" y="891.15" width="39.7" height="3.65"/><path class="cls-15" d="M1713.89,1130.81H1569.24v-46h144.65ZM1571,1129h141.11v-42.48H1571Z" transform="translate(-156.1 -216.42)"/><rect class="cls-15" x="1423.61" y="880.73" width="55.96" height="3.65"/><rect class="cls-15" x="1485.46" y="880.73" width="39.7" height="3.65"/><rect class="cls-15" x="1423.61" y="891.15" width="30.88" height="3.65"/><rect class="cls-15" x="1459.72" y="891.15" width="39.7" height="3.65"/><rect class="cls-15" x="1503.53" y="891.15" width="39.7" height="3.65"/><path class="cls-15" d="M1541.4,926.08H1396.75v-46H1541.4Zm-142.88-1.78h141.11V881.82H1398.52Z" transform="translate(-156.1 -216.42)"/><rect class="cls-15" x="1251.12" y="676" width="55.95" height="3.65"/><rect class="cls-15" x="1312.97" y="676" width="39.7" height="3.65"/><rect class="cls-15" x="1251.12" y="686.41" width="30.88" height="3.65"/><rect class="cls-15" x="1287.23" y="686.41" width="39.7" height="3.65"/><rect class="cls-15" x="1331.04" y="686.41" width="39.7" height="3.65"/><path class="cls-15" d="M1713.89,926.08H1569.24v-46h144.65ZM1571,924.3h141.11V881.82H1571Z" transform="translate(-156.1 -216.42)"/><rect class="cls-15" x="1423.61" y="676" width="55.96" height="3.65"/><rect class="cls-15" x="1485.46" y="676" width="39.7" height="3.65"/><rect class="cls-15" x="1423.61" y="686.41" width="30.88" height="3.65"/><rect class="cls-15" x="1459.72" y="686.41" width="39.7" height="3.65"/><rect class="cls-15" x="1503.53" y="686.41" width="39.7" height="3.65"/><path class="cls-15" d="M1541.4,747.86H1396.75v-46H1541.4Zm-142.88-1.77h141.11V703.61H1398.52Z" transform="translate(-156.1 -216.42)"/><rect class="cls-15" x="1251.12" y="497.78" width="55.95" height="3.65"/><rect class="cls-15" x="1312.97" y="497.78" width="39.7" height="3.65"/><rect class="cls-15" x="1251.12" y="508.2" width="30.88" height="3.65"/><rect class="cls-15" x="1287.23" y="508.2" width="39.7" height="3.65"/><rect class="cls-15" x="1331.04" y="508.2" width="39.7" height="3.65"/><path class="cls-15" d="M1713.89,747.86H1569.24v-46h144.65ZM1571,746.09h141.11V703.61H1571Z" transform="translate(-156.1 -216.42)"/><rect class="cls-15" x="1423.61" y="497.78" width="55.96" height="3.65"/><rect class="cls-15" x="1485.46" y="497.78" width="39.7" height="3.65"/><rect class="cls-15" x="1423.61" y="508.2" width="30.88" height="3.65"/><rect class="cls-15" x="1459.72" y="508.2" width="39.7" height="3.65"/><rect class="cls-15" x="1503.53" y="508.2" width="39.7" height="3.65"/><path class="cls-22" d="M1301.45,673.08a16.37,16.37,0,1,1,16.37,16.36A16.37,16.37,0,0,1,1301.45,673.08Z" transform="translate(-156.1 -216.42)"/><rect class="cls-22" x="1158.65" y="396.94" width="6.84" height="35.79" rx="2.62"/><rect class="cls-22" x="1158.65" y="481.65" width="6.84" height="35.79" rx="2.62"/><path class="cls-22" d="M1337.47,688.67l.94-1.29a2.62,2.62,0,0,1,3.66-.57l24.68,18a2.64,2.64,0,0,1,.57,3.67l-.94,1.28a2.62,2.62,0,0,1-3.67.57l-24.67-18A2.63,2.63,0,0,1,1337.47,688.67Z" transform="translate(-156.1 -216.42)"/><path class="cls-22" d="M1269,638.74l.94-1.29a2.62,2.62,0,0,1,3.66-.57l24.67,18a2.62,2.62,0,0,1,.58,3.66l-.94,1.29a2.63,2.63,0,0,1-3.67.57l-24.67-18A2.63,2.63,0,0,1,1269,638.74Z" transform="translate(-156.1 -216.42)"/><path class="cls-22" d="M1299.05,689.31l1.06,1.19a2.64,2.64,0,0,1-.21,3.71l-22.77,20.35a2.62,2.62,0,0,1-3.7-.21l-1.07-1.19a2.63,2.63,0,0,1,.21-3.7l22.77-20.35A2.63,2.63,0,0,1,1299.05,689.31Z" transform="translate(-156.1 -216.42)"/><path class="cls-22" d="M1362.21,632.86l1.06,1.19a2.62,2.62,0,0,1-.21,3.7l-22.77,20.36a2.63,2.63,0,0,1-3.7-.21l-1.07-1.19a2.63,2.63,0,0,1,.21-3.7l22.77-20.36A2.64,2.64,0,0,1,1362.21,632.86Z" transform="translate(-156.1 -216.42)"/><path class="cls-22" d="M1293,672l0,1.6a2.62,2.62,0,0,1-2.65,2.59l-30.54-.34a2.63,2.63,0,0,1-2.59-2.66l0-1.59a2.62,2.62,0,0,1,2.65-2.59l30.54.34A2.63,2.63,0,0,1,1293,672Z" transform="translate(-156.1 -216.42)"/><rect class="cls-22" x="1356.38" y="655.66" width="6.84" height="35.79" rx="2.62" transform="translate(514.82 1809.24) rotate(-89.35)"/><path class="cls-15" d="M1722.88,683.57H1396.75V657.13h326.13Zm-323-3.09h320V660.22h-320Z" transform="translate(-156.1 -216.42)"/><rect class="cls-15" x="1242.19" y="442.25" width="253.15" height="23.35"/><path class="cls-15" d="M1295.55,856.42c0-21.37,32.78-61.67,32.78-61.67s32.78,40.3,32.78,61.67-14.68,38.69-32.78,38.69S1295.55,877.79,1295.55,856.42Z" transform="translate(-156.1 -216.42)"/><path class="cls-22" d="M1722.88,858.16H1396.75V831.71h326.13Zm-323-3.1h320V834.8h-320Z" transform="translate(-156.1 -216.42)"/><rect class="cls-22" x="1242.19" y="616.84" width="154.7" height="23.35"/><path class="cls-15" d="M1342.31,1067.16V981.61h-18.47v85.55a19.49,19.49,0,1,0,18.47,0Z" transform="translate(-156.1 -216.42)"/><path class="cls-15" d="M1722.88,1055.93H1396.75v-26.45h326.13Zm-323-3.1h320v-20.26h-320Z" transform="translate(-156.1 -216.42)"/><rect class="cls-15" x="1242.19" y="814.61" width="212.26" height="23.35"/><path class="cls-22" d="M1320.44,1084.23a12.64,12.64,0,1,1,12.64,12.64A12.63,12.63,0,0,1,1320.44,1084.23Z" transform="translate(-156.1 -216.42)"/><rect class="cls-22" x="1172.93" y="822.55" width="7.53" height="39.59"/><rect class="cls-15" x="728.11" y="797.61" width="30.47" height="42.37"/><rect class="cls-15" x="780.31" y="769.52" width="30.47" height="70.45"/><rect class="cls-22" x="832.51" y="746.51" width="30.47" height="93.46"/><rect class="cls-15" x="884.71" y="765.19" width="30.47" height="74.79"/><rect class="cls-15" x="936.91" y="725.38" width="30.47" height="114.59"/><rect class="cls-22" x="989.11" y="704.94" width="30.47" height="135.03"/><rect class="cls-23" x="820.41" y="609.39" width="64.3" height="5.9"/><rect class="cls-23" x="820.41" y="622.9" width="98.53" height="5.9"/><rect class="cls-23" x="934.54" y="431" width="64.3" height="5.9"/><rect class="cls-23" x="934.54" y="444.51" width="40.25" height="5.9"/><path class="cls-24" d="M2348.88,779.08s121.94,138.58,164.49,224.13c0,0-51.16,111.37-217,201.85,0,0-7.37-1.61-18.62-9.65-17.55-12.53,1.89-21.71,5.73-24.2,42.08-27.25,115.59-144.63,117.71-154.82s-92.13-101.54-120.78-135.32S2304.35,761.68,2348.88,779.08Z" transform="translate(-156.1 -216.42)"/><path class="cls-24" d="M2030.25,775.15s-159.6,152-196.5,147.92-181.26-38.89-181.26-38.89l-12,27.66s144.86,85,214.42,83.82,160.62-67.5,160.62-67.5Z" transform="translate(-156.1 -216.42)"/><path class="cls-25" d="M2146.09,575.27s.8,17.09-9.45,20.43,10.56,40.21,8.93,65.11-12.65,34.9-12.65,34.9,5.29-13.7,2.33-22.17c0,0,.47,17.62-12.39,26.51s-9.41,16.57-9.41,16.57-29.08-8.71-29.89-30.52c0,0-1.25,9.86-.24,13.95,0,0-25.11-18.86-26.31-40.58s19.77-40.05,29.31-40.38,30.85-19.07,30.28-26.16S2146.09,575.27,2146.09,575.27Z" transform="translate(-156.1 -216.42)"/><ellipse class="cls-26" cx="2185.14" cy="531.83" rx="55.7" ry="142.96" transform="translate(383.02 1847.84) rotate(-56.63)"/><path class="cls-27" d="M2213.09,1368.72c-18.29,96.92-41.84,228.78-60,331.93-2.15,12.18-4.23,23.94-6.21,35.21-.46,2.6-.91,5.19-1.36,7.73H1963.87c-.26-2.59-.5-5.17-.74-7.73a1350.76,1350.76,0,0,1-1.94-230c1.94-25,4.52-48,7.37-69,12-123.46,16-175.78,17.18-193.08l.26-3.81c0-.23,0-.45,0-.65l0-.58c0-.34.05-.65.06-.92l0-.76c0-.26,0-.38,0-.38l61.92,18.42,30.29,9,7.14,22.68,14.28,45.36,103.67,33.45Z" transform="translate(-156.1 -216.42)"/><path class="cls-14" d="M2332.22,1393.13c-3.13,50.36-8.29,227.93-14,342.73-.13,2.62-.25,5.19-.38,7.73H2129.46q-.87-3.84-1.74-7.73c-20-89.9-36.35-190.85-48.08-272.78-2.07.09-23.56-146.33-77.44-210.88-.49-.58-.55-1-.26-1.39,2.67-3.43,36.86,2.5,36.86,2.5a76.53,76.53,0,0,0,9.32,1.83c25.86,3.54,63.4-2.17,100.65-10.85h0c10.06-2.35,20.09-4.91,29.87-7.57,27.58-7.49,53.12-15.71,71.33-21.9,4.52-1.53,8.58-3,12.12-4.19,2.86-1,5.37-1.9,7.48-2.66h0c5.08-1.83,7.91-2.9,7.91-2.9s1.28,1.12,3.45,3.44c7.24,7.7,24.35,28.61,37,65.07C2328.14,1302.93,2335.39,1342.37,2332.22,1393.13Z" transform="translate(-156.1 -216.42)"/><path class="cls-25" d="M2102.87,456.12,2221.4,636s13.56-26.55,28.61-17c23.48,14.84,73.93-36,63.41-107.66-.7-4.69-1.52-9.14-2.43-13.37-23.66-34.07-49.92-72-68.76-98.69C2187.79,366.35,2102.87,456.12,2102.87,456.12Z" transform="translate(-156.1 -216.42)"/><path class="cls-24" d="M2050.78,819.42c16.58,15.2,38.12,28.8,66,39.37,104.67,39.67,158.51-46,182.59-106.61-13.59-10.44-27.21-14.19-35.09-16.23-6.15-1.59-12.58-3-18.37-4.17a11.71,11.71,0,0,1-7.49-4.95c-10-15.07-20.09-53.24-16.46-106.91l-5.26.67-88.34,11.73s.22,27.61-1.35,53.46a268,268,0,0,1-3.22,30,17.78,17.78,0,0,1-15.79,14.46h0a.3.3,0,0,1-.05.08A553.45,553.45,0,0,0,2050.78,819.42Z" transform="translate(-156.1 -216.42)"/><path class="cls-28" d="M2128.4,632.34s.24,27.58-1.35,53.45c48.91,1.73,77.55-41.16,89.69-65.18Z" transform="translate(-156.1 -216.42)"/><path class="cls-24" d="M2110.54,655.79s115.39,9.26,120-62.69,22.69-119.21-50.78-128.16-89.59,17.57-97,41.21S2080.64,651.53,2110.54,655.79Z" transform="translate(-156.1 -216.42)"/><path class="cls-25" d="M2088.8,466.36c19.23-20.5,32.42-14.9,39.57-7.91,65.35-30.69,102.76,23.22,102.76,23.22,4.44,52.12,39.79,84.06,39.79,84.06s-21.88,11.67-69.62-3.9c-14.59-4.76-27.15-16.14-37.59-29.64,17.55,34.18,42.77,59.6,42.77,59.6-56.27-30.49-74.42-112.6-76.19-121.28-7.46,5.89-22.24,18.76-27.33,32C2096,520.44,2091,558,2080.13,556,2080.13,556,2060,497.12,2088.8,466.36Z" transform="translate(-156.1 -216.42)"/><path class="cls-17" d="M2315.88,546.69s53.66-106.82-21.33-149-129.87-25.65-171.13,26Z" transform="translate(-156.1 -216.42)"/><path class="cls-22" d="M2318.94,944.23c4.11,4.28,6.67,6.7,6.67,6.7,87.41-10.88,91.52-100.64,91.52-100.64s-68.42-90.23-132.3-110.08c-15.55-4.83-38.87-8.42-38.87-8.42-20,16.57-43,40.85-64.66,60.6-25,22.77-67.92,30.51-83.82-9.88-6.37-16.17,8.94-49.75,10.51-52.16.05-.07.05-.09.05-.09l-4.8.33c-7.83.63-14.88,1.59-21.29,2.23-31.17,3.13-74.23,23.79-161.23,133.91,0,0,47,58.06,94.77,61.43-1.92,92,8,241.81,8,241.81-20.86,41,289.07,136,302.45,96.92,20.06-30.61,0-89.22-17.3-134.14-4.25-11-5.19-22.66-9-31.14a101.32,101.32,0,0,1-5.77-16.77,99.22,99.22,0,0,1-1-44C2300.15,1005.23,2310.11,972,2318.94,944.23Z" transform="translate(-156.1 -216.42)"/><path class="cls-3" d="M2321.73,533q-3.39-3.48-7-7h0c-23.13-22.62-52.63-45.73-86.49-66.85a536.63,536.63,0,0,0-79.86-41.3h0q-7.56-3.12-14.91-5.79c-58.39-21.35-105.44-23-119.69-.15-15,24.07,10.4,68.92,60.21,114.4h0c0-.4-.09-.78-.13-1.17s-.06-.79-.1-1.19l-.12-1.37c0-.34,0-.67-.07-1,0-.57-.07-1.14-.11-1.72s-.08-1.44-.1-2.17c0-.08,0-.17,0-.26,0-.53,0-1.07-.06-1.61v-.51c0-.34,0-.69,0-1,0-1.27,0-2.56,0-3.83,0-.45,0-.92,0-1.37,0-.26,0-.51,0-.77,0-.43,0-.85.08-1.26,0-.79.09-1.56.15-2.34s.15-1.54.22-2.33c0,0,0-.09,0-.13,0-.28.06-.57.09-.84s0-.36.06-.53c.08-.54.14-1.08.22-1.62.12-.89.26-1.76.43-2.64,0-.14.05-.3.07-.44.18-1,.39-2.07.63-3.11.11-.51.24-1,.37-1.53l0-.19c-5.32-11.22-6.29-20.91-1.94-27.87,5-8.07,16.47-11.33,32-10.31h0l1.29.1h0a125.27,125.27,0,0,1,18.69,3h0c1.57.36,3.16.74,4.78,1.17,5.88,1.55,12,3.47,18.45,5.77h.07c19.12,6.9,40.13,17.15,61.26,30.33,8.78,5.48,17.1,11.18,24.87,17h0l2.31,1.74c35.92,27.25,59.65,56.52,62.37,76.74.72,5.38,0,10.12-2.48,14a10.59,10.59,0,0,1-.63.91.57.57,0,0,1-.08.13,18.86,18.86,0,0,1-6.25,5.37h0a12,12,0,0,1-1.06.56s0,0,0,0a33.09,33.09,0,0,1-9.15,2.78h0c-.33.27-.67.53-1,.79s-.5.38-.76.56l-.74.55-.24.16-1.28.87c-.67.43-1.36.85-2,1.25l-1,.56c-.34.18-.67.37-1,.53s-.89.45-1.34.66a3.71,3.71,0,0,1-.5.23l-.5.22h0l-.12.06-.61.25c-.31.12-.61.25-.92.35s-.76.29-1.13.4-.73.23-1.07.32l-.11,0c-.29.08-.58.16-.87.22a1.78,1.78,0,0,1-.33.09c-.27.07-.54.13-.82.18s-.67.13-1,.18a6.17,6.17,0,0,1-.62.09c-.24,0-.49.07-.73.09s-.63.07-1,.08H2260a.93.93,0,0,1-.24,0h-.43a18.82,18.82,0,0,1-2.49-.16,18.55,18.55,0,0,1-2.38-.47l-1.15-.36-.83-.34c-.21-.08-.42-.17-.62-.27s-.34-.15-.51-.24a4.63,4.63,0,0,1-.43-.24c-.3-.15-.58-.32-.87-.5a13.23,13.23,0,0,0-1.76-1l-.57-.25a2.18,2.18,0,0,1-.23-.09c-.29-.11-.57-.2-.85-.28a11.38,11.38,0,0,0-3.33-.49h-.42l-.42,0h-.27l-.71.09h-.07l-.33.07a3.35,3.35,0,0,0-.55.11l-.55.15a5.31,5.31,0,0,0-.65.19l-.42.15c-.21.07-.43.16-.63.25h0l-.49.2-.45.22c-.18.08-.35.18-.53.27l-.5.27-.52.31-.49.31-.5.33a5.36,5.36,0,0,0-.49.34c-.32.22-.64.47-.95.73a4.25,4.25,0,0,0-.47.37l-.46.4c-.31.26-.61.53-.9.8s-.59.54-.88.84l-.42.43-.42.43c-.16.15-.3.31-.45.46h0q8.46,3.51,16.66,6.47a302.29,302.29,0,0,0,48.86,13.61c34.46,6.2,60.25,2.17,70.16-13.71C2378.2,609.85,2360.13,572.64,2321.73,533Z" transform="translate(-156.1 -216.42)"/><path class="cls-29" d="M2252.53,1138.68c44.64,14.3,23.79-10.18,58.28-7.69-4.25-11-7.4-20.9-11.18-29.38a101.32,101.32,0,0,1-5.77-16.77,99.22,99.22,0,0,1-1-44c8-38.85,16.7-67.35,26.08-96.56-9.87-25.92-52,16.58-52,16.58s-39,41-28.78,110.59C2247.7,1136.28,2214,1126.33,2252.53,1138.68Z" transform="translate(-156.1 -216.42)"/><path class="cls-14" d="M2284.83,740.21s-72.08,46.07-90.51,143.18l-21.8-6.92s9.19-70,92.56-141.18c0,0,6.28,1.25,8.39,1.77C2276.3,737.77,2284.83,740.21,2284.83,740.21Z" transform="translate(-156.1 -216.42)"/><path class="cls-14" d="M2030.25,885.85l22.83,1.5c-4.57-84.2,37.68-141.68,50.17-156.75-7.83.63-14.92,1.39-21.29,2.23C2035.63,803.56,2030.25,885.85,2030.25,885.85Z" transform="translate(-156.1 -216.42)"/><path class="cls-14" d="M2192.13,937.26c1.41-6,15.38-64.3,15.38-64.3s3.21-18.22-28.81-20-145.65-7.8-145.65-7.8-15.48,9.35-15.72,28.52-15.69,128.89-15.69,128.89l-15.9,241.27,346.49,149.3s23.75-121.94-2.85-206.94c-15.51-49.57-35.51-101.33-35.51-101.33S2170.57,1028.87,2192.13,937.26Z" transform="translate(-156.1 -216.42)"/><path class="cls-29" d="M2195.22,874.92a9.57,9.57,0,1,0-12,6.22A9.57,9.57,0,0,0,2195.22,874.92Z" transform="translate(-156.1 -216.42)"/><path class="cls-22" d="M2193.58,874.4a9.57,9.57,0,1,0-12,6.22A9.57,9.57,0,0,0,2193.58,874.4Z" transform="translate(-156.1 -216.42)"/><path class="cls-14" d="M2190.39,871.49a1.4,1.4,0,1,0-1.39,1.39A1.39,1.39,0,0,0,2190.39,871.49Z" transform="translate(-156.1 -216.42)"/><path class="cls-14" d="M2181.3,871.51a1.39,1.39,0,1,0-1.38,1.39A1.39,1.39,0,0,0,2181.3,871.51Z" transform="translate(-156.1 -216.42)"/><path class="cls-29" d="M2054.33,862.76a9.57,9.57,0,1,0-12,6.22A9.57,9.57,0,0,0,2054.33,862.76Z" transform="translate(-156.1 -216.42)"/><path class="cls-22" d="M2052.69,862.24a9.57,9.57,0,1,0-12,6.22A9.57,9.57,0,0,0,2052.69,862.24Z" transform="translate(-156.1 -216.42)"/><path class="cls-14" d="M2049.5,859.33a1.39,1.39,0,1,0-1.39,1.39A1.39,1.39,0,0,0,2049.5,859.33Z" transform="translate(-156.1 -216.42)"/><path class="cls-14" d="M2040.42,859.35A1.4,1.4,0,0,0,2039,858a1.39,1.39,0,0,0,0,2.78A1.39,1.39,0,0,0,2040.42,859.35Z" transform="translate(-156.1 -216.42)"/><path class="cls-25" d="M2299.94,589s.8,17.08-9.45,20.42,10.56,40.22,8.93,65.12-12.66,34.9-12.66,34.9,5.29-13.7,2.34-22.17c0,0,.47,17.62-12.4,26.5s-9.4,16.58-9.4,16.58-29.08-8.71-29.89-30.52c0,0-1.25,9.86-.25,13.94,0,0-25.1-18.85-26.3-40.57s19.76-40,29.31-40.38,30.85-19.08,30.28-26.16S2299.94,589,2299.94,589Z" transform="translate(-156.1 -216.42)"/><path class="cls-30" d="M2146.11,615.58s-17.19,10.43-29.43,9.21S2098,609,2098,609A101.65,101.65,0,0,1,2146.11,615.58Z" transform="translate(-156.1 -216.42)"/><path class="cls-31" d="M2255.15,1236.72H2023.57c-9.69,0-20.74-7.86-24.68-17.55l-58.3-143.51c-3.93-9.7.73-17.56,10.43-17.56h231.57c9.7,0,20.75,7.86,24.69,17.56l58.29,143.51C2269.51,1228.86,2264.85,1236.72,2255.15,1236.72Z" transform="translate(-156.1 -216.42)"/><path class="cls-32" d="M2241.33,1236.72H2009.75c-9.69,0-20.74-7.86-24.68-17.55l-58.3-143.51c-3.93-9.7.73-17.56,10.43-17.56h231.57c9.7,0,20.75,7.86,24.69,17.56l58.29,143.51C2255.69,1228.86,2251,1236.72,2241.33,1236.72Z" transform="translate(-156.1 -216.42)"/><path class="cls-14" d="M1949.9,1069.11h0c4.41,0,9.48,3.61,11.27,8h0c1.79,4.41-.35,8-4.75,8h0c-4.41,0-9.49-3.61-11.28-8h0C1943.35,1072.72,1945.49,1069.11,1949.9,1069.11Z" transform="translate(-156.1 -216.42)"/><path class="cls-14" d="M1975.36,1072.45h0a7.82,7.82,0,0,1,6.57,4.67h0c1,2.58-.2,4.68-2.77,4.68h0a7.81,7.81,0,0,1-6.58-4.68h0C1971.53,1074.55,1972.78,1072.45,1975.36,1072.45Z" transform="translate(-156.1 -216.42)"/><path class="cls-31" d="M2066,1142.87c-3.86-9.52.72-17.23,10.23-17.23s20.36,7.71,24.22,17.23-.71,17.22-10.23,17.22S2069.82,1152.38,2066,1142.87Z" transform="translate(-156.1 -216.42)"/><path class="cls-24" d="M2282.73,1173s-31.84-18.16-39.52-26.55c-4.95-5.41-5.25,1.55-4.93,3.51.64,3.92,1.22,11.7,10.28,19.11C2261.61,1179.68,2282.73,1173,2282.73,1173Z" transform="translate(-156.1 -216.42)"/><path class="cls-24" d="M2282.73,1173s-57.44-17.25-70.67-15.76-43.43,10.92-45.87,13.37,8,5,15.88,2.74c10.14-3,26.11.36,26.11.36s-32.2,7-40.26,10.54a1.18,1.18,0,0,0-.26,2c1.93,1.53,6.88,2.48,14,1.49,10.22-1.42,28.17-1.16,28.17-1.16l-36.6,8a1,1,0,0,0-.78,1c.05,1.74,3,3.6,11.53,4,6.59.3,28.91-3,28.91-3L2193,1206.93s4.82,3.45,15,.1c7-2.3,27.74-7.5,32.53-6.49s28.73,9.47,40,8c11-1.41,15.84-3.5,15.84-3.5Z" transform="translate(-156.1 -216.42)"/><path class="cls-24" d="M1652.49,884.18s-28.82-30.79-39.41-34.46-48.39-10.05-48.39-10.05.15,9.05,17.07,15.29,20.46,35.58,30.47,43.88,36.45,15.49,36.45,15.49Z" transform="translate(-156.1 -216.42)"/><path class="cls-24" d="M1640.45,911.84s-28.07-1.23-37.19-7-24-13.23-21.12-17.79S1616,886,1616,886Z" transform="translate(-156.1 -216.42)"/><path class="cls-24" d="M1610.81,855.09c-1.48-.66-38.92-25.69-38.92-25.69s-3.15,11.86,2.36,14.12S1610.81,855.09,1610.81,855.09Z" transform="translate(-156.1 -216.42)"/><path class="cls-24" d="M2442.37,1097c-33.59,33.93-81,72.61-146,108.08,0,0-7.37-1.61-18.62-9.66-17.55-12.53,1.89-21.7,5.73-24.19,19.06-12.35,44.6-43.22,67-74.23Z" transform="translate(-156.1 -216.42)"/><path class="cls-6" d="M597.94,1740.6H317.35c0-.1-.07-.2-.11-.31q-.53-1.36-1.41-3.72l-.23-.47v-.23a.85.85,0,0,1-.23-.47,66,66,0,0,1-2.59-6.59c-.48-1.19-.94-2.6-1.65-4v-.48l-.23-.23c-3.24-8.4-7.25-19.34-11.88-32.57-.41-1.2-.83-2.41-1.27-3.63-3.47-10-7.29-21.18-11.35-33.5q-2.81-8.69-5.76-18.11c27.73-7.72,64-13,96.25-2.57a122,122,0,0,1,45.95,26.78c22.2,20.21,31.38,40.18,57.24,32.41a93.18,93.18,0,0,1,22.4-3.44C544.11,1687.59,601.66,1705.16,597.94,1740.6Z" transform="translate(-156.1 -216.42)"/><rect class="cls-33" y="1519.44" width="2916.62" height="7.73" rx="3.3"/></svg>