<svg width="429" height="80" viewBox="0 0 429 80" fill="none" xmlns="http://www.w3.org/2000/svg">
<path d="M206.29 45.28C204.47 45.28 202.872 44.9183 201.495 44.195C200.118 43.4483 199.057 42.41 198.31 41.08C197.563 39.7267 197.19 38.14 197.19 36.32C197.19 34.5 197.563 32.925 198.31 31.595C199.057 30.2417 200.118 29.2033 201.495 28.48C202.872 27.7567 204.47 27.395 206.29 27.395C208.11 27.395 209.708 27.7567 211.085 28.48C212.462 29.2033 213.523 30.2417 214.27 31.595C215.017 32.925 215.39 34.5 215.39 36.32C215.39 38.14 215.017 39.7267 214.27 41.08C213.523 42.41 212.462 43.4483 211.085 44.195C209.708 44.9183 208.11 45.28 206.29 45.28ZM206.29 41.255C208.857 41.255 210.14 39.61 210.14 36.32C210.14 34.6633 209.802 33.4267 209.125 32.61C208.472 31.7933 207.527 31.385 206.29 31.385C203.723 31.385 202.44 33.03 202.44 36.32C202.44 39.61 203.723 41.255 206.29 41.255ZM228.861 27.465C229.561 27.4183 230.11 27.5817 230.506 27.955C230.926 28.305 231.136 28.8417 231.136 29.565C231.136 30.335 230.95 30.9067 230.576 31.28C230.203 31.6533 229.538 31.8867 228.581 31.98L227.531 32.085C226.248 32.225 225.315 32.645 224.731 33.345C224.171 34.045 223.891 34.9433 223.891 36.04V42.725C223.891 43.5417 223.635 44.16 223.121 44.58C222.631 45 222.013 45.21 221.266 45.21C220.496 45.21 219.855 45 219.341 44.58C218.851 44.16 218.606 43.5417 218.606 42.725V29.88C218.606 29.11 218.863 28.515 219.376 28.095C219.89 27.675 220.508 27.465 221.231 27.465C221.931 27.465 222.515 27.675 222.981 28.095C223.448 28.4917 223.681 29.0517 223.681 29.775V30.72C224.101 29.7167 224.731 28.9467 225.571 28.41C226.435 27.8733 227.368 27.57 228.371 27.5L228.861 27.465ZM243.434 27.395C245.487 27.395 247.016 28.0017 248.019 29.215C249.022 30.405 249.524 32.2133 249.524 34.64V42.725C249.524 43.495 249.279 44.1017 248.789 44.545C248.322 44.9883 247.681 45.21 246.864 45.21C246.047 45.21 245.406 44.9883 244.939 44.545C244.472 44.1017 244.239 43.495 244.239 42.725V34.885C244.239 33.7183 244.017 32.8667 243.574 32.33C243.154 31.7933 242.489 31.525 241.579 31.525C240.482 31.525 239.596 31.875 238.919 32.575C238.266 33.275 237.939 34.2083 237.939 35.375V42.725C237.939 43.495 237.706 44.1017 237.239 44.545C236.772 44.9883 236.131 45.21 235.314 45.21C234.497 45.21 233.844 44.9883 233.354 44.545C232.887 44.1017 232.654 43.495 232.654 42.725V29.88C232.654 29.1567 232.899 28.5733 233.389 28.13C233.902 27.6867 234.556 27.465 235.349 27.465C236.072 27.465 236.656 27.6867 237.099 28.13C237.566 28.55 237.799 29.0983 237.799 29.775V30.265C238.406 29.3317 239.187 28.62 240.144 28.13C241.124 27.64 242.221 27.395 243.434 27.395ZM267.259 39.89C267.726 39.89 268.099 40.0767 268.379 40.45C268.683 40.8233 268.834 41.3017 268.834 41.885C268.834 42.2817 268.718 42.655 268.484 43.005C268.251 43.3317 267.924 43.6117 267.504 43.845C266.711 44.265 265.789 44.615 264.739 44.895C263.689 45.1517 262.721 45.28 261.834 45.28C259.968 45.28 258.334 44.9183 256.934 44.195C255.558 43.4717 254.496 42.445 253.749 41.115C253.003 39.7617 252.629 38.175 252.629 36.355C252.629 34.605 252.991 33.0533 253.714 31.7C254.438 30.3467 255.441 29.2967 256.724 28.55C258.008 27.78 259.466 27.395 261.099 27.395C262.663 27.395 264.028 27.745 265.194 28.445C266.384 29.1217 267.306 30.1017 267.959 31.385C268.613 32.645 268.939 34.1267 268.939 35.83C268.939 36.3433 268.811 36.74 268.554 37.02C268.321 37.2767 267.983 37.405 267.539 37.405H257.739C257.903 38.7817 258.323 39.785 258.999 40.415C259.676 41.0217 260.644 41.325 261.904 41.325C262.581 41.325 263.188 41.2433 263.724 41.08C264.261 40.9167 264.856 40.695 265.509 40.415C265.836 40.275 266.151 40.1583 266.454 40.065C266.758 39.9483 267.026 39.89 267.259 39.89ZM261.239 31.035C260.236 31.035 259.431 31.3617 258.824 32.015C258.218 32.645 257.856 33.5667 257.739 34.78H264.494C264.424 33.5433 264.109 32.61 263.549 31.98C263.013 31.35 262.243 31.035 261.239 31.035ZM280.392 45.28C278.572 45.28 276.973 44.9183 275.597 44.195C274.22 43.4483 273.158 42.41 272.412 41.08C271.665 39.7267 271.292 38.14 271.292 36.32C271.292 34.5 271.665 32.925 272.412 31.595C273.158 30.2417 274.22 29.2033 275.597 28.48C276.973 27.7567 278.572 27.395 280.392 27.395C282.212 27.395 283.81 27.7567 285.187 28.48C286.563 29.2033 287.625 30.2417 288.372 31.595C289.118 32.925 289.492 34.5 289.492 36.32C289.492 38.14 289.118 39.7267 288.372 41.08C287.625 42.41 286.563 43.4483 285.187 44.195C283.81 44.9183 282.212 45.28 280.392 45.28ZM280.392 41.255C282.958 41.255 284.242 39.61 284.242 36.32C284.242 34.6633 283.903 33.4267 283.227 32.61C282.573 31.7933 281.628 31.385 280.392 31.385C277.825 31.385 276.542 33.03 276.542 36.32C276.542 39.61 277.825 41.255 280.392 41.255Z" fill="#20C694"/>
<mask id="path-2-inside-1" fill="white">
<path d="M174 16.9091C174 15.8547 174.855 15 175.909 15H186.5C191.194 15 195 18.8056 195 23.5V23.5C195 28.1944 191.194 32 186.5 32H174V16.9091Z"/>
</mask>
<path d="M174 16.9091C174 15.8547 174.855 15 175.909 15H186.5C191.194 15 195 18.8056 195 23.5V23.5C195 28.1944 191.194 32 186.5 32H174V16.9091Z" stroke="#20C694" stroke-width="10" mask="url(#path-2-inside-1)"/>
<mask id="path-3-inside-2" fill="white">
<path d="M174 27H186C190.971 27 195 31.0294 195 36V36C195 40.9706 190.971 45 186 45H175.909C174.855 45 174 44.1453 174 43.0909V27Z"/>
</mask>
<path d="M174 27H186C190.971 27 195 31.0294 195 36V36C195 40.9706 190.971 45 186 45H175.909C174.855 45 174 44.1453 174 43.0909V27Z" stroke="#20C694" stroke-width="10" mask="url(#path-3-inside-2)"/>
<path d="M336.69 45.21C335.92 45.21 335.278 45 334.765 44.58C334.275 44.16 334.03 43.5417 334.03 42.725V29.95C334.03 29.1333 334.287 28.515 334.8 28.095C335.313 27.675 335.943 27.465 336.69 27.465C337.437 27.465 338.055 27.675 338.545 28.095C339.058 28.515 339.315 29.1333 339.315 29.95V42.725C339.315 43.5417 339.058 44.16 338.545 44.58C338.055 45 337.437 45.21 336.69 45.21ZM336.69 24.665C335.757 24.665 335.022 24.4317 334.485 23.965C333.948 23.475 333.68 22.8217 333.68 22.005C333.68 21.1883 333.948 20.5467 334.485 20.08C335.022 19.6133 335.757 19.38 336.69 19.38C337.6 19.38 338.323 19.625 338.86 20.115C339.42 20.5817 339.7 21.2117 339.7 22.005C339.7 22.8217 339.432 23.475 338.895 23.965C338.358 24.4317 337.623 24.665 336.69 24.665ZM353.616 27.465C354.316 27.4183 354.864 27.5817 355.261 27.955C355.681 28.305 355.891 28.8417 355.891 29.565C355.891 30.335 355.704 30.9067 355.331 31.28C354.958 31.6533 354.293 31.8867 353.336 31.98L352.286 32.085C351.003 32.225 350.069 32.645 349.486 33.345C348.926 34.045 348.646 34.9433 348.646 36.04V42.725C348.646 43.5417 348.389 44.16 347.876 44.58C347.386 45 346.768 45.21 346.021 45.21C345.251 45.21 344.609 45 344.096 44.58C343.606 44.16 343.361 43.5417 343.361 42.725V29.88C343.361 29.11 343.618 28.515 344.131 28.095C344.644 27.675 345.263 27.465 345.986 27.465C346.686 27.465 347.269 27.675 347.736 28.095C348.203 28.4917 348.436 29.0517 348.436 29.775V30.72C348.856 29.7167 349.486 28.9467 350.326 28.41C351.189 27.8733 352.123 27.57 353.126 27.5L353.616 27.465ZM370.857 39.89C371.324 39.89 371.697 40.0767 371.977 40.45C372.28 40.8233 372.432 41.3017 372.432 41.885C372.432 42.2817 372.315 42.655 372.082 43.005C371.849 43.3317 371.522 43.6117 371.102 43.845C370.309 44.265 369.387 44.615 368.337 44.895C367.287 45.1517 366.319 45.28 365.432 45.28C363.565 45.28 361.932 44.9183 360.532 44.195C359.155 43.4717 358.094 42.445 357.347 41.115C356.6 39.7617 356.227 38.175 356.227 36.355C356.227 34.605 356.589 33.0533 357.312 31.7C358.035 30.3467 359.039 29.2967 360.322 28.55C361.605 27.78 363.064 27.395 364.697 27.395C366.26 27.395 367.625 27.745 368.792 28.445C369.982 29.1217 370.904 30.1017 371.557 31.385C372.21 32.645 372.537 34.1267 372.537 35.83C372.537 36.3433 372.409 36.74 372.152 37.02C371.919 37.2767 371.58 37.405 371.137 37.405H361.337C361.5 38.7817 361.92 39.785 362.597 40.415C363.274 41.0217 364.242 41.325 365.502 41.325C366.179 41.325 366.785 41.2433 367.322 41.08C367.859 40.9167 368.454 40.695 369.107 40.415C369.434 40.275 369.749 40.1583 370.052 40.065C370.355 39.9483 370.624 39.89 370.857 39.89ZM364.837 31.035C363.834 31.035 363.029 31.3617 362.422 32.015C361.815 32.645 361.454 33.5667 361.337 34.78H368.092C368.022 33.5433 367.707 32.61 367.147 31.98C366.61 31.35 365.84 31.035 364.837 31.035ZM390.639 27.465C391.432 27.465 392.062 27.6983 392.529 28.165C393.019 28.6083 393.264 29.2033 393.264 29.95V43.145C393.264 45.9217 392.459 48.0217 390.849 49.445C389.239 50.8683 386.882 51.58 383.779 51.58C381.166 51.58 379.019 51.1133 377.339 50.18C376.919 49.9467 376.592 49.655 376.359 49.305C376.126 48.9783 376.009 48.605 376.009 48.185C376.009 47.6017 376.149 47.1233 376.429 46.75C376.709 46.3767 377.082 46.19 377.549 46.19C377.806 46.19 378.109 46.2367 378.459 46.33C378.809 46.4467 379.171 46.575 379.544 46.715C380.291 46.995 380.979 47.2167 381.609 47.38C382.239 47.5433 382.916 47.625 383.639 47.625C385.132 47.625 386.241 47.2867 386.964 46.61C387.687 45.9333 388.049 44.9067 388.049 43.53V41.64C387.559 42.5267 386.824 43.2267 385.844 43.74C384.864 44.2533 383.767 44.51 382.554 44.51C381.061 44.51 379.731 44.16 378.564 43.46C377.421 42.76 376.522 41.7683 375.869 40.485C375.216 39.1783 374.889 37.6733 374.889 35.97C374.889 34.2667 375.216 32.7733 375.869 31.49C376.522 30.1833 377.421 29.18 378.564 28.48C379.731 27.7567 381.061 27.395 382.554 27.395C383.744 27.395 384.817 27.6517 385.774 28.165C386.754 28.655 387.501 29.3433 388.014 30.23V29.88C388.014 29.1333 388.247 28.55 388.714 28.13C389.204 27.6867 389.846 27.465 390.639 27.465ZM384.094 40.485C385.331 40.485 386.287 40.0883 386.964 39.295C387.664 38.5017 388.014 37.3933 388.014 35.97C388.014 34.5467 387.664 33.4383 386.964 32.645C386.287 31.8283 385.331 31.42 384.094 31.42C382.857 31.42 381.889 31.8283 381.189 32.645C380.489 33.4383 380.139 34.5467 380.139 35.97C380.139 37.3933 380.489 38.5017 381.189 39.295C381.889 40.0883 382.857 40.485 384.094 40.485ZM405.066 27.395C407.586 27.395 409.452 28.0133 410.666 29.25C411.879 30.4633 412.486 32.33 412.486 34.85V42.76C412.486 43.53 412.264 44.1367 411.821 44.58C411.377 45 410.759 45.21 409.966 45.21C409.219 45.21 408.612 44.9883 408.146 44.545C407.702 44.0783 407.481 43.4833 407.481 42.76V42.515C407.131 43.3783 406.547 44.055 405.731 44.545C404.914 45.035 403.957 45.28 402.861 45.28C401.694 45.28 400.632 45.0467 399.676 44.58C398.742 44.1133 397.996 43.46 397.436 42.62C396.899 41.78 396.631 40.8467 396.631 39.82C396.631 38.56 396.946 37.5683 397.576 36.845C398.229 36.1217 399.267 35.5967 400.691 35.27C402.114 34.9433 404.062 34.78 406.536 34.78H407.446V34.15C407.446 33.17 407.224 32.4583 406.781 32.015C406.361 31.5717 405.649 31.35 404.646 31.35C403.642 31.35 402.196 31.7 400.306 32.4C399.769 32.6567 399.314 32.785 398.941 32.785C398.427 32.785 398.019 32.61 397.716 32.26C397.412 31.8867 397.261 31.4083 397.261 30.825C397.261 30.3583 397.366 29.9733 397.576 29.67C397.786 29.3667 398.124 29.0867 398.591 28.83C399.407 28.3867 400.399 28.0367 401.566 27.78C402.756 27.5233 403.922 27.395 405.066 27.395ZM404.016 41.64C405.042 41.64 405.871 41.3017 406.501 40.625C407.131 39.925 407.446 39.0267 407.446 37.93V37.335H406.851C404.961 37.335 403.631 37.4867 402.861 37.79C402.114 38.0933 401.741 38.6417 401.741 39.435C401.741 40.0883 401.951 40.625 402.371 41.045C402.814 41.4417 403.362 41.64 404.016 41.64ZM426.692 27.465C427.392 27.4183 427.94 27.5817 428.337 27.955C428.757 28.305 428.967 28.8417 428.967 29.565C428.967 30.335 428.78 30.9067 428.407 31.28C428.034 31.6533 427.369 31.8867 426.412 31.98L425.362 32.085C424.079 32.225 423.145 32.645 422.562 33.345C422.002 34.045 421.722 34.9433 421.722 36.04V42.725C421.722 43.5417 421.465 44.16 420.952 44.58C420.462 45 419.844 45.21 419.097 45.21C418.327 45.21 417.685 45 417.172 44.58C416.682 44.16 416.437 43.5417 416.437 42.725V29.88C416.437 29.11 416.694 28.515 417.207 28.095C417.72 27.675 418.339 27.465 419.062 27.465C419.762 27.465 420.345 27.675 420.812 28.095C421.279 28.4917 421.512 29.0517 421.512 29.775V30.72C421.932 29.7167 422.562 28.9467 423.402 28.41C424.265 27.8733 425.199 27.57 426.202 27.5L426.692 27.465Z" fill="#20C694"/>
<path d="M317.58 45.405C315.21 45.405 313.005 45.135 310.965 44.595C308.925 44.025 307.26 43.23 305.97 42.21C305.52 41.88 305.19 41.535 304.98 41.175C304.8 40.785 304.71 40.305 304.71 39.735C304.71 38.985 304.935 38.325 305.385 37.755C305.865 37.185 306.405 36.9 307.005 36.9C307.335 36.9 307.65 36.96 307.95 37.08C308.28 37.17 308.67 37.35 309.12 37.62C310.41 38.43 311.715 39.03 313.035 39.42C314.355 39.78 315.81 39.96 317.4 39.96C319.38 39.96 320.895 39.63 321.945 38.97C322.995 38.31 323.52 37.365 323.52 36.135C323.52 35.205 323.025 34.455 322.035 33.885C321.075 33.315 319.35 32.775 316.86 32.265C314.07 31.695 311.835 31.005 310.155 30.195C308.505 29.385 307.29 28.38 306.51 27.18C305.76 25.98 305.385 24.525 305.385 22.815C305.385 20.925 305.925 19.23 307.005 17.73C308.115 16.2 309.63 15.015 311.55 14.175C313.5 13.305 315.69 12.87 318.12 12.87C322.38 12.87 325.89 13.935 328.65 16.065C329.1 16.425 329.415 16.8 329.595 17.19C329.805 17.55 329.91 18 329.91 18.54C329.91 19.29 329.67 19.95 329.19 20.52C328.74 21.09 328.215 21.375 327.615 21.375C327.285 21.375 326.97 21.33 326.67 21.24C326.4 21.15 326.01 20.955 325.5 20.655C324.27 19.875 323.13 19.29 322.08 18.9C321.06 18.51 319.755 18.315 318.165 18.315C316.335 18.315 314.895 18.675 313.845 19.395C312.795 20.085 312.27 21.045 312.27 22.275C312.27 22.995 312.465 23.595 312.855 24.075C313.275 24.525 313.95 24.93 314.88 25.29C315.84 25.65 317.19 26.025 318.93 26.415C323.01 27.315 325.935 28.47 327.705 29.88C329.505 31.29 330.405 33.225 330.405 35.685C330.405 37.605 329.865 39.3 328.785 40.77C327.735 42.24 326.235 43.38 324.285 44.19C322.365 45 320.13 45.405 317.58 45.405Z" fill="#20C694"/>
<path d="M108.06 45.175C107.64 45.175 107.29 45.0583 107.01 44.825C106.753 44.5683 106.625 44.2183 106.625 43.775V21.55C106.625 21.1067 106.753 20.7683 107.01 20.535C107.29 20.2783 107.64 20.15 108.06 20.15C108.457 20.15 108.783 20.2783 109.04 20.535C109.32 20.7683 109.46 21.1067 109.46 21.55V43.775C109.46 44.2183 109.32 44.5683 109.04 44.825C108.783 45.0583 108.457 45.175 108.06 45.175ZM121.725 27.535C125.995 27.535 128.13 29.775 128.13 34.255V43.775C128.13 44.195 128.001 44.5333 127.745 44.79C127.511 45.0467 127.185 45.175 126.765 45.175C126.345 45.175 126.006 45.0467 125.75 44.79C125.493 44.5333 125.365 44.195 125.365 43.775V42.095C124.921 43.0983 124.245 43.88 123.335 44.44C122.425 44.9767 121.375 45.245 120.185 45.245C119.088 45.245 118.073 45.0233 117.14 44.58C116.23 44.1367 115.506 43.5183 114.97 42.725C114.433 41.9317 114.165 41.0567 114.165 40.1C114.165 38.8167 114.491 37.825 115.145 37.125C115.798 36.4017 116.871 35.8883 118.365 35.585C119.858 35.2583 121.935 35.095 124.595 35.095H125.365V33.94C125.365 32.54 125.073 31.5133 124.49 30.86C123.93 30.2067 123.008 29.88 121.725 29.88C120.138 29.88 118.528 30.3117 116.895 31.175C116.265 31.5717 115.821 31.77 115.565 31.77C115.285 31.77 115.051 31.665 114.865 31.455C114.678 31.245 114.585 30.9767 114.585 30.65C114.585 30.3233 114.678 30.0433 114.865 29.81C115.075 29.5533 115.401 29.2967 115.845 29.04C116.661 28.5733 117.583 28.2117 118.61 27.955C119.66 27.675 120.698 27.535 121.725 27.535ZM120.57 43.005C121.97 43.005 123.113 42.5383 124 41.605C124.91 40.6483 125.365 39.4233 125.365 37.93V36.915H124.735C122.681 36.915 121.118 37.0083 120.045 37.195C118.971 37.3583 118.201 37.65 117.735 38.07C117.291 38.4667 117.07 39.0617 117.07 39.855C117.07 40.765 117.396 41.5233 118.05 42.13C118.726 42.7133 119.566 43.005 120.57 43.005ZM152.289 27.535C156.069 27.535 157.959 29.7867 157.959 34.29V43.775C157.959 44.2183 157.831 44.5683 157.574 44.825C157.318 45.0583 156.979 45.175 156.559 45.175C156.139 45.175 155.789 45.0583 155.509 44.825C155.253 44.5683 155.124 44.2183 155.124 43.775V34.36C155.124 32.7967 154.844 31.665 154.284 30.965C153.724 30.265 152.849 29.915 151.659 29.915C150.236 29.915 149.116 30.3933 148.299 31.35C147.483 32.3067 147.074 33.6017 147.074 35.235V43.775C147.074 44.2183 146.934 44.5683 146.654 44.825C146.398 45.0583 146.059 45.175 145.639 45.175C145.219 45.175 144.881 45.0583 144.624 44.825C144.368 44.5683 144.239 44.2183 144.239 43.775V34.36C144.239 32.7967 143.959 31.665 143.399 30.965C142.839 30.265 141.953 29.915 140.739 29.915C139.339 29.915 138.219 30.3933 137.379 31.35C136.563 32.3067 136.154 33.6017 136.154 35.235V43.775C136.154 44.2183 136.026 44.5683 135.769 44.825C135.513 45.0583 135.174 45.175 134.754 45.175C134.334 45.175 133.984 45.0583 133.704 44.825C133.448 44.5683 133.319 44.2183 133.319 43.775V29.005C133.319 28.585 133.448 28.2467 133.704 27.99C133.984 27.7333 134.334 27.605 134.754 27.605C135.151 27.605 135.478 27.7333 135.734 27.99C135.991 28.2233 136.119 28.55 136.119 28.97V30.65C136.633 29.6467 137.344 28.8767 138.254 28.34C139.164 27.8033 140.214 27.535 141.404 27.535C144.064 27.535 145.803 28.655 146.619 30.895C147.109 29.8683 147.856 29.0517 148.859 28.445C149.863 27.8383 151.006 27.535 152.289 27.535Z" fill="#40C1D7"/>
<rect width="3" height="30.3519" rx="1.5" transform="matrix(0.912653 0.408735 -0.353816 0.935315 90.739 16)" fill="#40C1D7"/>
<rect width="3" height="30.3519" rx="1.5" transform="matrix(-0.912653 0.408735 0.353816 0.935315 92.8042 16)" fill="#40C1D7"/>
<rect width="3" height="14" rx="1.5" transform="matrix(0 -1 -1 0 99 35)" fill="#40C1D7"/>
<path d="M76.67 54.03C77.6633 54.03 78.4333 54.27 78.98 54.75C79.5333 55.23 79.81 55.8967 79.81 56.75C79.81 57.0167 79.7867 57.2767 79.74 57.53C79.6133 58.2433 79.3533 58.8633 78.96 59.39C78.5733 59.91 78.0767 60.31 77.47 60.59C76.87 60.8633 76.19 61 75.43 61H73.26L74.5 54.03H76.67ZM75.56 60.3C76.4533 60.3 77.18 60.0567 77.74 59.57C78.3 59.0767 78.6567 58.3967 78.81 57.53C78.85 57.29 78.87 57.0633 78.87 56.85C78.87 56.19 78.6733 55.68 78.28 55.32C77.8867 54.9533 77.3067 54.77 76.54 54.77H75.28L74.3 60.3H75.56ZM83.6803 55.43C84.1403 55.43 84.537 55.52 84.8703 55.7C85.2103 55.8733 85.467 56.12 85.6403 56.44C85.8203 56.7533 85.9103 57.1133 85.9103 57.52C85.9103 57.66 85.8936 57.83 85.8603 58.03C85.8336 58.2033 85.7903 58.3833 85.7303 58.57H81.3503C81.337 58.7033 81.3303 58.8 81.3303 58.86C81.3303 59.32 81.467 59.68 81.7403 59.94C82.0203 60.1933 82.3836 60.32 82.8303 60.32C83.2236 60.32 83.567 60.23 83.8603 60.05C84.1603 59.8633 84.387 59.6167 84.5403 59.31H85.5203C85.2803 59.8367 84.9103 60.2667 84.4103 60.6C83.917 60.9267 83.3436 61.09 82.6903 61.09C82.0036 61.09 81.4503 60.8933 81.0303 60.5C80.617 60.1 80.4103 59.5567 80.4103 58.87C80.4103 58.6767 80.4303 58.47 80.4703 58.25C80.5703 57.6833 80.7736 57.1867 81.0803 56.76C81.387 56.3333 81.7636 56.0067 82.2103 55.78C82.6636 55.5467 83.1536 55.43 83.6803 55.43ZM84.9403 57.91C84.9603 57.7767 84.9703 57.6533 84.9703 57.54C84.9703 57.1133 84.8336 56.7833 84.5603 56.55C84.2936 56.3167 83.9436 56.2 83.5103 56.2C83.0436 56.2 82.6203 56.3533 82.2403 56.66C81.8603 56.96 81.6036 57.3767 81.4703 57.91H84.9403ZM88.4615 61.09C87.8882 61.09 87.4182 60.9533 87.0515 60.68C86.6848 60.4067 86.5015 60.04 86.5015 59.58C86.5015 59.4933 86.5048 59.43 86.5115 59.39H87.4015C87.3748 59.6767 87.4582 59.91 87.6515 60.09C87.8515 60.27 88.1382 60.36 88.5115 60.36C88.8848 60.36 89.1848 60.29 89.4115 60.15C89.6448 60.0033 89.7615 59.8 89.7615 59.54C89.7615 59.32 89.6682 59.1467 89.4815 59.02C89.2948 58.8933 89.0082 58.7567 88.6215 58.61C88.2815 58.4833 88.0015 58.3633 87.7815 58.25C87.5615 58.1367 87.3748 57.98 87.2215 57.78C87.0682 57.5733 86.9915 57.3133 86.9915 57C86.9915 56.6933 87.0782 56.42 87.2515 56.18C87.4315 55.94 87.6782 55.7567 87.9915 55.63C88.3115 55.4967 88.6748 55.43 89.0815 55.43C89.6415 55.43 90.1015 55.57 90.4615 55.85C90.8215 56.13 91.0015 56.4967 91.0015 56.95C91.0015 57.0367 90.9982 57.1033 90.9915 57.15H90.1215L90.1315 57.03C90.1315 56.7633 90.0282 56.5533 89.8215 56.4C89.6215 56.24 89.3548 56.16 89.0215 56.16C88.6948 56.16 88.4248 56.2333 88.2115 56.38C88.0048 56.5267 87.9015 56.7233 87.9015 56.97C87.9015 57.2033 87.9982 57.3867 88.1915 57.52C88.3848 57.6533 88.6848 57.8 89.0915 57.96C89.4315 58.0933 89.7048 58.2167 89.9115 58.33C90.1182 58.4367 90.2948 58.5867 90.4415 58.78C90.5882 58.9733 90.6615 59.2167 90.6615 59.51C90.6615 59.83 90.5648 60.11 90.3715 60.35C90.1848 60.59 89.9248 60.7733 89.5915 60.9C89.2582 61.0267 88.8815 61.09 88.4615 61.09ZM91.8961 58.24C91.9961 57.68 92.1961 57.19 92.4961 56.77C92.8028 56.3433 93.1728 56.0133 93.6061 55.78C94.0461 55.5467 94.5128 55.43 95.0061 55.43C95.4861 55.43 95.8828 55.5333 96.1961 55.74C96.5094 55.9467 96.7261 56.2067 96.8461 56.52L97.0261 55.52H97.9461L96.9761 61H96.0561L96.2461 59.98C96.0061 60.3 95.6894 60.5667 95.2961 60.78C94.9028 60.9867 94.4694 61.09 93.9961 61.09C93.5694 61.09 93.1928 61 92.8661 60.82C92.5394 60.6333 92.2861 60.37 92.1061 60.03C91.9261 59.69 91.8361 59.2967 91.8361 58.85C91.8361 58.65 91.8561 58.4467 91.8961 58.24ZM96.5461 58.25C96.5728 58.11 96.5861 57.96 96.5861 57.8C96.5861 57.3133 96.4394 56.93 96.1461 56.65C95.8594 56.3633 95.4928 56.22 95.0461 56.22C94.7061 56.22 94.3794 56.3 94.0661 56.46C93.7594 56.62 93.4961 56.8533 93.2761 57.16C93.0561 57.4667 92.9094 57.8267 92.8361 58.24C92.8094 58.38 92.7961 58.5333 92.7961 58.7C92.7961 59.1933 92.9394 59.5833 93.2261 59.87C93.5128 60.15 93.8794 60.29 94.3261 60.29C94.6661 60.29 94.9894 60.21 95.2961 60.05C95.6094 59.8833 95.8761 59.6467 96.0961 59.34C96.3228 59.0267 96.4728 58.6633 96.5461 58.25ZM107.322 55.52L106.352 61H105.442L105.582 60.2C105.362 60.48 105.082 60.6967 104.742 60.85C104.402 61.0033 104.049 61.08 103.682 61.08C103.109 61.08 102.649 60.9267 102.302 60.62C101.962 60.3067 101.792 59.86 101.792 59.28C101.792 59.1333 101.809 58.95 101.842 58.73L102.412 55.52H103.312L102.772 58.61C102.746 58.75 102.732 58.8967 102.732 59.05C102.732 59.4567 102.842 59.7667 103.062 59.98C103.289 60.1867 103.602 60.29 104.002 60.29C104.482 60.29 104.889 60.14 105.222 59.84C105.562 59.54 105.779 59.1033 105.872 58.53V58.56L106.412 55.52H107.322ZM111.549 55.42C112.116 55.42 112.569 55.5733 112.909 55.88C113.249 56.18 113.419 56.62 113.419 57.2C113.419 57.4133 113.402 57.6033 113.369 57.77L112.799 61H111.899L112.449 57.9C112.476 57.76 112.489 57.6133 112.489 57.46C112.489 57.0533 112.376 56.7433 112.149 56.53C111.929 56.3167 111.619 56.21 111.219 56.21C110.739 56.21 110.329 56.36 109.989 56.66C109.656 56.96 109.439 57.3967 109.339 57.97V57.95L108.799 61H107.889L108.859 55.52H109.769L109.629 56.31C109.856 56.0233 110.139 55.8033 110.479 55.65C110.819 55.4967 111.176 55.42 111.549 55.42ZM115.665 59.5C115.645 59.6 115.635 59.6867 115.635 59.76C115.635 59.9267 115.685 60.0467 115.785 60.12C115.892 60.1933 116.062 60.23 116.295 60.23H116.965L116.825 61H116.005C115.572 61 115.245 60.9167 115.025 60.75C114.812 60.5833 114.705 60.31 114.705 59.93C114.705 59.7833 114.719 59.64 114.745 59.5L115.315 56.27H114.615L114.745 55.52H115.455L115.695 54.14H116.615L116.375 55.52H117.795L117.665 56.27H116.235L115.665 59.5ZM123.758 55.52L122.788 61H121.878L122.018 60.2C121.798 60.48 121.518 60.6967 121.178 60.85C120.838 61.0033 120.485 61.08 120.118 61.08C119.545 61.08 119.085 60.9267 118.738 60.62C118.398 60.3067 118.228 59.86 118.228 59.28C118.228 59.1333 118.245 58.95 118.278 58.73L118.848 55.52H119.748L119.208 58.61C119.181 58.75 119.168 58.8967 119.168 59.05C119.168 59.4567 119.278 59.7667 119.498 59.98C119.725 60.1867 120.038 60.29 120.438 60.29C120.918 60.29 121.325 60.14 121.658 59.84C121.998 59.54 122.215 59.1033 122.308 58.53V58.56L122.848 55.52H123.758ZM126.524 58.26L128.624 61H127.384L125.664 58.59L125.234 61H124.324L125.634 53.6H126.544L125.774 57.94L128.314 55.52H129.574L126.524 58.26Z" fill="#20C694"/>
<path d="M135.859 54.03C136.853 54.03 137.623 54.27 138.169 54.75C138.723 55.23 138.999 55.8967 138.999 56.75C138.999 57.0167 138.976 57.2767 138.929 57.53C138.803 58.2433 138.543 58.8633 138.149 59.39C137.763 59.91 137.266 60.31 136.659 60.59C136.059 60.8633 135.379 61 134.619 61H132.449L133.689 54.03H135.859ZM134.749 60.3C135.643 60.3 136.369 60.0567 136.929 59.57C137.489 59.0767 137.846 58.3967 137.999 57.53C138.039 57.29 138.059 57.0633 138.059 56.85C138.059 56.19 137.863 55.68 137.469 55.32C137.076 54.9533 136.496 54.77 135.729 54.77H134.469L133.489 60.3H134.749ZM141.65 54.03L140.87 58.43C140.836 58.63 140.82 58.7933 140.82 58.92C140.82 59.3733 140.946 59.71 141.2 59.93C141.453 60.15 141.806 60.26 142.26 60.26C142.8 60.26 143.246 60.11 143.6 59.81C143.953 59.5033 144.186 59.0433 144.3 58.43L145.08 54.03H145.99L145.21 58.43C145.11 59.01 144.906 59.5 144.6 59.9C144.3 60.2933 143.933 60.5867 143.5 60.78C143.066 60.9733 142.603 61.07 142.11 61.07C141.45 61.07 140.916 60.9 140.51 60.56C140.103 60.22 139.9 59.72 139.9 59.06C139.9 58.86 139.92 58.65 139.96 58.43L140.74 54.03H141.65ZM151.748 61H150.838L148.168 55.45L147.178 61H146.268L147.508 54.02H148.418L151.098 59.56L152.078 54.02H152.988L151.748 61ZM155.449 54.03L154.209 61H153.299L154.539 54.03H155.449ZM160.16 59.45H157.11L156.28 61H155.32L159.06 54.07H160.11L161.4 61H160.44L160.16 59.45ZM160.03 58.74L159.39 55.18L157.49 58.74H160.03Z" fill="#40C1D7"/>
<path d="M26.4379 65.1122C27.7442 44.2507 16.9492 33.7579 12.8417 45.4403C8.73424 57.1228 21.8267 76.712 43.6119 70.7271C43.9049 70.6475 44.2045 70.563 44.496 70.4738C44.8038 70.3841 45.1167 70.2849 45.4349 70.1808C45.683 70.1012 45.9264 70.0167 46.1756 69.9323C46.2997 69.8875 46.429 69.843 46.5531 69.7982L46.6423 69.7686C56.0699 66.3959 69.8379 58.0465 73.4243 45.9618C68.8687 67.6126 45.9719 83.1107 25.2994 79.3098H25.2894C18.7133 78.1028 12.3606 74.9394 6.89681 69.4008C-5.5949 56.7402 0.877064 39.5791 10.5776 36.0668C11.9399 35.5622 13.3626 35.2384 14.8092 35.1039C16.8955 34.8985 18.9989 35.2517 20.9037 36.1272C20.9085 36.1272 20.9085 36.132 20.9137 36.132C26.6505 38.7943 30.3268 43.8155 30.3268 57.5195C30.3268 57.5195 39.0033 30.1223 59.4218 15.425C60.9863 14.2976 62.6156 13.2198 64.3189 12.2064C68.9727 9.42404 73.966 7.25374 79.1751 5.74927V5.88334C79.173 9.1308 78.465 12.339 77.0999 15.2856C75.7349 18.2323 73.7456 20.8469 71.2698 22.9485C70.1722 23.8864 68.988 24.7179 67.7331 25.4318C67.659 25.4767 67.5794 25.5163 67.5049 25.5611V25.5659C57.3603 31.369 49.7716 54.0009 26.4379 65.1122Z" fill="url(#paint0_linear)"/>
<path style="mix-blend-mode:color-dodge" d="M26.4379 65.1123C27.7442 44.2508 16.9492 33.758 12.8417 45.4405C8.73424 57.1229 21.8267 76.7121 43.6119 70.7272C43.9049 70.6476 44.2045 70.5631 44.496 70.4739C44.8038 70.3843 45.1167 70.285 45.4349 70.1809C45.683 70.1013 45.9264 70.0168 46.1756 69.9324C46.2997 69.8876 46.429 69.8431 46.5531 69.7983L46.6423 69.7683C56.0699 66.396 69.8379 58.0466 73.4243 45.962C68.8687 67.6127 45.9719 83.1108 25.2994 79.31H25.2894C18.7133 78.1029 12.3606 74.9395 6.89681 69.4009C-5.5949 56.7403 0.877064 39.5793 10.5776 36.067C11.9399 35.5623 13.3626 35.2385 14.8092 35.104C16.8955 34.8986 18.9989 35.2518 20.9037 36.1273C20.9085 36.1273 20.9085 36.1322 20.9137 36.1322C26.6505 38.7948 29.6513 50.7161 30.3268 57.7048L26.4379 65.1123Z" fill="url(#paint1_radial)"/>
<path style="mix-blend-mode:color-dodge" d="M79.1751 5.74927V5.88334C64.3189 12.2064 41.3515 32.5712 28.2898 60.8528C28.2898 60.8528 29.9628 41.0047 20.913 36.132C26.6497 38.7943 28.7253 49.2345 29.4009 56.2231C29.4009 56.2231 39.0025 30.1223 59.4211 15.425C60.9855 14.2976 62.6148 13.2198 64.3182 12.2064C68.9721 9.42398 73.9657 7.25368 79.1751 5.74927Z" fill="url(#paint2_linear)"/>
<path d="M25.2886 79.31C18.7126 78.1029 12.3599 74.9395 6.89607 69.4009C-5.59563 56.7403 0.876331 39.5793 10.5769 36.067C11.9392 35.5623 13.3619 35.2385 14.8084 35.104C4.07009 36.6837 0.761885 49.0761 4.53195 60.2619C7.54682 69.1924 15.3896 77.2336 25.2886 79.31Z" fill="url(#paint3_linear)"/>
<path d="M26.2535 65.1883C26.2535 65.1883 26.9545 65.1367 28.2099 64.9771C34.5194 64.1585 54.7419 60.5458 69.1404 46.6568C86.4056 30.0064 78.0637 17.8569 93.366 4C90.9565 4.62388 88.6359 5.48709 86.4493 6.57289C79.6119 9.78024 68.6896 16.6807 58.3475 30.8103C41.6043 53.6979 35.3979 60.5363 26.2535 65.1883Z" fill="url(#paint4_linear)"/>
<path d="M26.2535 65.1883C35.3989 60.5363 41.6054 53.6979 58.348 30.8103C68.6901 16.6807 79.6125 9.78024 86.4498 6.57289C88.6361 5.48715 90.9563 4.62394 93.3654 4C93.3654 4 55.9602 4.92186 40.2065 25.0386C26.1375 43.0209 33.2046 56.3224 28.4887 63.0624C27.9122 63.8945 27.1523 64.6173 26.2535 65.1883V65.1883Z" fill="url(#paint5_linear)"/>
<path d="M26.2527 65.1883C26.2527 65.1883 26.9537 65.1377 28.2092 64.98C28.8121 64.6311 29.5708 64.1751 30.4309 63.5913C31.7384 62.701 32.9761 61.7345 34.1357 60.6983C35.4262 59.5416 36.7593 58.2135 38.0929 56.7595C40.766 53.8476 43.5395 50.4394 46.485 46.7936C49.4159 43.1479 52.5415 39.2611 55.6655 35.3738C57.2347 33.4325 58.8121 31.4818 60.3889 29.5917C61.9792 27.6977 63.6062 25.8384 65.2553 24.0605C68.3235 20.7176 71.6523 17.5658 75.2177 14.6278C76.8355 13.3092 78.414 12.1482 79.8829 11.1676C81.1552 10.3135 82.4836 9.52565 83.8611 8.80826C84.7444 8.34683 85.6634 7.94022 86.6114 7.59141C86.9409 7.47541 87.1852 7.40202 87.3502 7.35467C87.4277 7.33053 87.5067 7.31045 87.5869 7.29454C87.6519 7.28274 87.7121 7.25581 87.7611 7.21658C87.8102 7.17734 87.8463 7.12724 87.8657 7.07153C87.8803 6.97684 87.7794 6.92949 87.6371 6.95979C87.5401 6.97779 87.4444 7.00104 87.3507 7.02939C87.1636 7.081 86.8918 7.15487 86.5477 7.27608C86.5192 7.28555 86.4836 7.2988 86.4469 7.31348C85.4838 7.65349 84.5498 8.05366 83.6519 8.51091C82.2174 9.22942 80.8338 10.0235 79.5087 10.8887C77.989 11.8736 76.3556 13.0435 74.6709 14.3674C70.9828 17.3159 67.5274 20.4813 64.3288 23.8417C62.6156 25.6296 60.9244 27.4922 59.2597 29.3956C57.595 31.299 55.9993 33.237 54.3723 35.1778C51.1475 39.0513 47.9291 42.9248 44.9038 46.556C41.8785 50.1871 39.0344 53.5592 36.3758 56.3688C35.0422 57.7713 33.7523 59.0255 32.5271 60.0838C31.466 61.0096 30.3357 61.8721 29.1437 62.6656C28.9145 62.8148 28.6923 62.9587 28.4847 63.0885C27.9073 63.9119 27.1485 64.6258 26.2527 65.1883Z" fill="url(#paint6_linear)"/>
<defs>
<linearGradient id="paint0_linear" x1="19.0026" y1="65.4281" x2="63.1999" y2="23.3208" gradientUnits="userSpaceOnUse">
<stop stop-color="#20C694"/>
<stop offset="0.945" stop-color="#008603"/>
</linearGradient>
<radialGradient id="paint1_radial" cx="0" cy="0" r="1" gradientUnits="userSpaceOnUse" gradientTransform="translate(1.15502 20.5646) scale(44.6375 44.6133)">
<stop stop-color="white"/>
<stop offset="0.145" stop-color="#C0BDBD"/>
<stop offset="0.308" stop-color="#807B7B"/>
<stop offset="0.457" stop-color="#4D4646"/>
<stop offset="0.584" stop-color="#281F1F"/>
<stop offset="0.686" stop-color="#120808"/>
<stop offset="0.75" stop-color="#0A0000"/>
</radialGradient>
<linearGradient id="paint2_linear" x1="69.3288" y1="-23.4383" x2="39.2537" y2="62.2017" gradientUnits="userSpaceOnUse">
<stop stop-color="white"/>
<stop offset="1" stop-color="white" stop-opacity="0"/>
</linearGradient>
<linearGradient id="paint3_linear" x1="28.6267" y1="27.4122" x2="-6.15759" y2="53.5908" gradientUnits="userSpaceOnUse">
<stop stop-color="white"/>
<stop offset="1" stop-color="white" stop-opacity="0"/>
</linearGradient>
<linearGradient id="paint4_linear" x1="96.99" y1="24.9264" x2="-78.3419" y2="86.6208" gradientUnits="userSpaceOnUse">
<stop stop-color="#A4D672"/>
<stop offset="0.432" stop-color="#20C694"/>
<stop offset="0.655" stop-color="#189113"/>
<stop offset="1" stop-color="#008603"/>
</linearGradient>
<linearGradient id="paint5_linear" x1="45.9844" y1="14.1573" x2="63.8307" y2="45.8607" gradientUnits="userSpaceOnUse">
<stop stop-color="#189113"/>
<stop offset="0.289" stop-color="#55AF3D"/>
<stop offset="1" stop-color="#20C694"/>
</linearGradient>
<linearGradient id="paint6_linear" x1="58.6619" y1="37.9914" x2="75.2106" y2="59.6943" gradientUnits="userSpaceOnUse">
<stop stop-color="#A4D672"/>
<stop offset="0.369" stop-color="#55AF3D"/>
<stop offset="0.763" stop-color="#20C694"/>
<stop offset="1" stop-color="#20C694"/>
</linearGradient>
</defs>
</svg>
