<svg width="277" height="79" viewBox="0 0 277 79" fill="none" xmlns="http://www.w3.org/2000/svg">
<path d="M185.48 44.484C181.989 44.484 179.027 43.824 176.592 42.504C174.187 41.184 172.353 39.336 171.092 36.96C169.831 34.584 169.2 31.7973 169.2 28.6C169.2 25.3147 169.845 22.4693 171.136 20.064C172.456 17.6587 174.348 15.796 176.812 14.476C179.276 13.156 182.239 12.496 185.7 12.496C187.284 12.496 188.868 12.672 190.452 13.024C192.036 13.376 193.561 13.9627 195.028 14.784C195.82 15.224 196.289 15.8107 196.436 16.544C196.612 17.2773 196.539 17.996 196.216 18.7C195.893 19.3747 195.395 19.8733 194.72 20.196C194.075 20.4893 193.297 20.416 192.388 19.976C190.423 18.9493 188.208 18.436 185.744 18.436C182.605 18.436 180.244 19.316 178.66 21.076C177.105 22.8067 176.328 25.3147 176.328 28.6C176.328 31.9147 177.12 34.4227 178.704 36.124C180.317 37.8253 182.693 38.676 185.832 38.676C187.504 38.676 189.264 38.412 191.112 37.884V31.812H187.152C185.333 31.812 184.424 30.9907 184.424 29.348C184.424 27.7053 185.333 26.884 187.152 26.884H194.06C195.849 26.884 196.744 27.7933 196.744 29.612V39.82C196.744 40.5827 196.583 41.228 196.26 41.756C195.967 42.284 195.483 42.6653 194.808 42.9C193.488 43.3693 192.007 43.7507 190.364 44.044C188.721 44.3373 187.093 44.484 185.48 44.484ZM204.416 44.315C202.596 44.315 201.686 43.4167 201.686 41.62V29.195C201.686 27.4217 202.55 26.535 204.276 26.535C206.003 26.535 206.866 27.4217 206.866 29.195V29.825C207.706 27.7483 209.445 26.6283 212.081 26.465C212.665 26.4183 213.108 26.57 213.411 26.92C213.738 27.2467 213.913 27.795 213.936 28.565C213.983 29.2883 213.831 29.86 213.481 30.28C213.155 30.7 212.595 30.9567 211.801 31.05L210.996 31.12C208.383 31.3767 207.076 32.7067 207.076 35.11V41.62C207.076 43.4167 206.19 44.315 204.416 44.315ZM224.062 44.385C222.219 44.385 220.609 44.0233 219.232 43.3C217.879 42.5533 216.829 41.515 216.082 40.185C215.336 38.8317 214.962 37.2333 214.962 35.39C214.962 33.57 215.336 31.995 216.082 30.665C216.829 29.3117 217.879 28.2733 219.232 27.55C220.609 26.8267 222.219 26.465 224.062 26.465C225.906 26.465 227.504 26.8267 228.857 27.55C230.234 28.2733 231.296 29.3117 232.042 30.665C232.812 31.995 233.197 33.57 233.197 35.39C233.197 37.2333 232.812 38.8317 232.042 40.185C231.296 41.515 230.234 42.5533 228.857 43.3C227.504 44.0233 225.906 44.385 224.062 44.385ZM224.062 40.43C225.182 40.43 226.092 40.0217 226.792 39.205C227.516 38.3883 227.877 37.1167 227.877 35.39C227.877 33.6867 227.516 32.4383 226.792 31.645C226.092 30.8283 225.182 30.42 224.062 30.42C222.942 30.42 222.032 30.8283 221.332 31.645C220.632 32.4383 220.282 33.6867 220.282 35.39C220.282 37.1167 220.632 38.3883 221.332 39.205C222.032 40.0217 222.942 40.43 224.062 40.43ZM242.748 44.385C240.554 44.385 238.933 43.7783 237.883 42.565C236.856 41.3517 236.343 39.5317 236.343 37.105V29.195C236.343 27.4217 237.218 26.535 238.968 26.535C240.741 26.535 241.628 27.4217 241.628 29.195V37.245C241.628 39.275 242.503 40.29 244.253 40.29C245.256 40.29 246.073 39.94 246.703 39.24C247.356 38.5167 247.683 37.5717 247.683 36.405V29.195C247.683 27.4217 248.558 26.535 250.308 26.535C252.081 26.535 252.968 27.4217 252.968 29.195V41.62C252.968 43.4167 252.116 44.315 250.413 44.315C249.573 44.315 248.931 44.0817 248.488 43.615C248.044 43.1483 247.823 42.495 247.823 41.655C246.679 43.475 244.988 44.385 242.748 44.385ZM259.717 50.615C257.944 50.615 257.057 49.7167 257.057 47.92V29.195C257.057 27.4217 257.921 26.535 259.647 26.535C261.397 26.535 262.272 27.4217 262.272 29.195V29.3C262.762 28.4367 263.486 27.7483 264.442 27.235C265.399 26.7217 266.472 26.465 267.662 26.465C269.156 26.465 270.462 26.8267 271.582 27.55C272.726 28.2733 273.612 29.3 274.242 30.63C274.872 31.96 275.187 33.5467 275.187 35.39C275.187 37.2333 274.872 38.8317 274.242 40.185C273.612 41.515 272.726 42.5533 271.582 43.3C270.462 44.0233 269.156 44.385 267.662 44.385C266.519 44.385 265.469 44.14 264.512 43.65C263.579 43.16 262.856 42.5067 262.342 41.69V47.92C262.342 49.7167 261.467 50.615 259.717 50.615ZM266.087 40.43C267.207 40.43 268.117 40.0217 268.817 39.205C269.517 38.3883 269.867 37.1167 269.867 35.39C269.867 33.6867 269.517 32.4383 268.817 31.645C268.117 30.8283 267.207 30.42 266.087 30.42C264.944 30.42 264.022 30.8283 263.322 31.645C262.622 32.4383 262.272 33.6867 262.272 35.39C262.272 37.1167 262.622 38.3883 263.322 39.205C264.022 40.0217 264.944 40.43 266.087 40.43Z" fill="#20C694"/>
<path d="M108.06 44.175C107.64 44.175 107.29 44.0583 107.01 43.825C106.753 43.5683 106.625 43.2183 106.625 42.775V20.55C106.625 20.1067 106.753 19.7683 107.01 19.535C107.29 19.2783 107.64 19.15 108.06 19.15C108.457 19.15 108.783 19.2783 109.04 19.535C109.32 19.7683 109.46 20.1067 109.46 20.55V42.775C109.46 43.2183 109.32 43.5683 109.04 43.825C108.783 44.0583 108.457 44.175 108.06 44.175ZM121.725 26.535C125.995 26.535 128.13 28.775 128.13 33.255V42.775C128.13 43.195 128.001 43.5333 127.745 43.79C127.511 44.0467 127.185 44.175 126.765 44.175C126.345 44.175 126.006 44.0467 125.75 43.79C125.493 43.5333 125.365 43.195 125.365 42.775V41.095C124.921 42.0983 124.245 42.88 123.335 43.44C122.425 43.9767 121.375 44.245 120.185 44.245C119.088 44.245 118.073 44.0233 117.14 43.58C116.23 43.1367 115.506 42.5183 114.97 41.725C114.433 40.9317 114.165 40.0567 114.165 39.1C114.165 37.8167 114.491 36.825 115.145 36.125C115.798 35.4017 116.871 34.8883 118.365 34.585C119.858 34.2583 121.935 34.095 124.595 34.095H125.365V32.94C125.365 31.54 125.073 30.5133 124.49 29.86C123.93 29.2067 123.008 28.88 121.725 28.88C120.138 28.88 118.528 29.3117 116.895 30.175C116.265 30.5717 115.821 30.77 115.565 30.77C115.285 30.77 115.051 30.665 114.865 30.455C114.678 30.245 114.585 29.9767 114.585 29.65C114.585 29.3233 114.678 29.0433 114.865 28.81C115.075 28.5533 115.401 28.2967 115.845 28.04C116.661 27.5733 117.583 27.2117 118.61 26.955C119.66 26.675 120.698 26.535 121.725 26.535ZM120.57 42.005C121.97 42.005 123.113 41.5383 124 40.605C124.91 39.6483 125.365 38.4233 125.365 36.93V35.915H124.735C122.681 35.915 121.118 36.0083 120.045 36.195C118.971 36.3583 118.201 36.65 117.735 37.07C117.291 37.4667 117.07 38.0617 117.07 38.855C117.07 39.765 117.396 40.5233 118.05 41.13C118.726 41.7133 119.566 42.005 120.57 42.005ZM152.289 26.535C156.069 26.535 157.959 28.7867 157.959 33.29V42.775C157.959 43.2183 157.831 43.5683 157.574 43.825C157.318 44.0583 156.979 44.175 156.559 44.175C156.139 44.175 155.789 44.0583 155.509 43.825C155.253 43.5683 155.124 43.2183 155.124 42.775V33.36C155.124 31.7967 154.844 30.665 154.284 29.965C153.724 29.265 152.849 28.915 151.659 28.915C150.236 28.915 149.116 29.3933 148.299 30.35C147.483 31.3067 147.074 32.6017 147.074 34.235V42.775C147.074 43.2183 146.934 43.5683 146.654 43.825C146.398 44.0583 146.059 44.175 145.639 44.175C145.219 44.175 144.881 44.0583 144.624 43.825C144.368 43.5683 144.239 43.2183 144.239 42.775V33.36C144.239 31.7967 143.959 30.665 143.399 29.965C142.839 29.265 141.953 28.915 140.739 28.915C139.339 28.915 138.219 29.3933 137.379 30.35C136.563 31.3067 136.154 32.6017 136.154 34.235V42.775C136.154 43.2183 136.026 43.5683 135.769 43.825C135.513 44.0583 135.174 44.175 134.754 44.175C134.334 44.175 133.984 44.0583 133.704 43.825C133.448 43.5683 133.319 43.2183 133.319 42.775V28.005C133.319 27.585 133.448 27.2467 133.704 26.99C133.984 26.7333 134.334 26.605 134.754 26.605C135.151 26.605 135.478 26.7333 135.734 26.99C135.991 27.2233 136.119 27.55 136.119 27.97V29.65C136.633 28.6467 137.344 27.8767 138.254 27.34C139.164 26.8033 140.214 26.535 141.404 26.535C144.064 26.535 145.803 27.655 146.619 29.895C147.109 28.8683 147.856 28.0517 148.859 27.445C149.863 26.8383 151.006 26.535 152.289 26.535Z" fill="#40C1D7"/>
<rect width="3" height="30.3519" rx="1.5" transform="matrix(0.912653 0.408735 -0.353816 0.935315 90.7393 15)" fill="#40C1D7"/>
<rect width="3" height="30.3519" rx="1.5" transform="matrix(-0.912653 0.408735 0.353816 0.935315 92.8037 15)" fill="#40C1D7"/>
<rect width="3" height="14" rx="1.5" transform="matrix(0 -1 -1 0 99 34)" fill="#40C1D7"/>
<path d="M76.67 53.03C77.6633 53.03 78.4333 53.27 78.98 53.75C79.5333 54.23 79.81 54.8967 79.81 55.75C79.81 56.0167 79.7867 56.2767 79.74 56.53C79.6133 57.2433 79.3533 57.8633 78.96 58.39C78.5733 58.91 78.0767 59.31 77.47 59.59C76.87 59.8633 76.19 60 75.43 60H73.26L74.5 53.03H76.67ZM75.56 59.3C76.4533 59.3 77.18 59.0567 77.74 58.57C78.3 58.0767 78.6567 57.3967 78.81 56.53C78.85 56.29 78.87 56.0633 78.87 55.85C78.87 55.19 78.6733 54.68 78.28 54.32C77.8867 53.9533 77.3067 53.77 76.54 53.77H75.28L74.3 59.3H75.56ZM83.6803 54.43C84.1403 54.43 84.537 54.52 84.8703 54.7C85.2103 54.8733 85.467 55.12 85.6403 55.44C85.8203 55.7533 85.9103 56.1133 85.9103 56.52C85.9103 56.66 85.8936 56.83 85.8603 57.03C85.8336 57.2033 85.7903 57.3833 85.7303 57.57H81.3503C81.337 57.7033 81.3303 57.8 81.3303 57.86C81.3303 58.32 81.467 58.68 81.7403 58.94C82.0203 59.1933 82.3836 59.32 82.8303 59.32C83.2236 59.32 83.567 59.23 83.8603 59.05C84.1603 58.8633 84.387 58.6167 84.5403 58.31H85.5203C85.2803 58.8367 84.9103 59.2667 84.4103 59.6C83.917 59.9267 83.3436 60.09 82.6903 60.09C82.0036 60.09 81.4503 59.8933 81.0303 59.5C80.617 59.1 80.4103 58.5567 80.4103 57.87C80.4103 57.6767 80.4303 57.47 80.4703 57.25C80.5703 56.6833 80.7736 56.1867 81.0803 55.76C81.387 55.3333 81.7636 55.0067 82.2103 54.78C82.6636 54.5467 83.1536 54.43 83.6803 54.43ZM84.9403 56.91C84.9603 56.7767 84.9703 56.6533 84.9703 56.54C84.9703 56.1133 84.8336 55.7833 84.5603 55.55C84.2936 55.3167 83.9436 55.2 83.5103 55.2C83.0436 55.2 82.6203 55.3533 82.2403 55.66C81.8603 55.96 81.6036 56.3767 81.4703 56.91H84.9403ZM88.4615 60.09C87.8882 60.09 87.4182 59.9533 87.0515 59.68C86.6848 59.4067 86.5015 59.04 86.5015 58.58C86.5015 58.4933 86.5048 58.43 86.5115 58.39H87.4015C87.3748 58.6767 87.4582 58.91 87.6515 59.09C87.8515 59.27 88.1382 59.36 88.5115 59.36C88.8848 59.36 89.1848 59.29 89.4115 59.15C89.6448 59.0033 89.7615 58.8 89.7615 58.54C89.7615 58.32 89.6682 58.1467 89.4815 58.02C89.2948 57.8933 89.0082 57.7567 88.6215 57.61C88.2815 57.4833 88.0015 57.3633 87.7815 57.25C87.5615 57.1367 87.3748 56.98 87.2215 56.78C87.0682 56.5733 86.9915 56.3133 86.9915 56C86.9915 55.6933 87.0782 55.42 87.2515 55.18C87.4315 54.94 87.6782 54.7567 87.9915 54.63C88.3115 54.4967 88.6748 54.43 89.0815 54.43C89.6415 54.43 90.1015 54.57 90.4615 54.85C90.8215 55.13 91.0015 55.4967 91.0015 55.95C91.0015 56.0367 90.9982 56.1033 90.9915 56.15H90.1215L90.1315 56.03C90.1315 55.7633 90.0282 55.5533 89.8215 55.4C89.6215 55.24 89.3548 55.16 89.0215 55.16C88.6948 55.16 88.4248 55.2333 88.2115 55.38C88.0048 55.5267 87.9015 55.7233 87.9015 55.97C87.9015 56.2033 87.9982 56.3867 88.1915 56.52C88.3848 56.6533 88.6848 56.8 89.0915 56.96C89.4315 57.0933 89.7048 57.2167 89.9115 57.33C90.1182 57.4367 90.2948 57.5867 90.4415 57.78C90.5882 57.9733 90.6615 58.2167 90.6615 58.51C90.6615 58.83 90.5648 59.11 90.3715 59.35C90.1848 59.59 89.9248 59.7733 89.5915 59.9C89.2582 60.0267 88.8815 60.09 88.4615 60.09ZM91.8961 57.24C91.9961 56.68 92.1961 56.19 92.4961 55.77C92.8028 55.3433 93.1728 55.0133 93.6061 54.78C94.0461 54.5467 94.5128 54.43 95.0061 54.43C95.4861 54.43 95.8828 54.5333 96.1961 54.74C96.5094 54.9467 96.7261 55.2067 96.8461 55.52L97.0261 54.52H97.9461L96.9761 60H96.0561L96.2461 58.98C96.0061 59.3 95.6894 59.5667 95.2961 59.78C94.9028 59.9867 94.4694 60.09 93.9961 60.09C93.5694 60.09 93.1928 60 92.8661 59.82C92.5394 59.6333 92.2861 59.37 92.1061 59.03C91.9261 58.69 91.8361 58.2967 91.8361 57.85C91.8361 57.65 91.8561 57.4467 91.8961 57.24ZM96.5461 57.25C96.5728 57.11 96.5861 56.96 96.5861 56.8C96.5861 56.3133 96.4394 55.93 96.1461 55.65C95.8594 55.3633 95.4928 55.22 95.0461 55.22C94.7061 55.22 94.3794 55.3 94.0661 55.46C93.7594 55.62 93.4961 55.8533 93.2761 56.16C93.0561 56.4667 92.9094 56.8267 92.8361 57.24C92.8094 57.38 92.7961 57.5333 92.7961 57.7C92.7961 58.1933 92.9394 58.5833 93.2261 58.87C93.5128 59.15 93.8794 59.29 94.3261 59.29C94.6661 59.29 94.9894 59.21 95.2961 59.05C95.6094 58.8833 95.8761 58.6467 96.0961 58.34C96.3228 58.0267 96.4728 57.6633 96.5461 57.25ZM107.322 54.52L106.352 60H105.442L105.582 59.2C105.362 59.48 105.082 59.6967 104.742 59.85C104.402 60.0033 104.049 60.08 103.682 60.08C103.109 60.08 102.649 59.9267 102.302 59.62C101.962 59.3067 101.792 58.86 101.792 58.28C101.792 58.1333 101.809 57.95 101.842 57.73L102.412 54.52H103.312L102.772 57.61C102.746 57.75 102.732 57.8967 102.732 58.05C102.732 58.4567 102.842 58.7667 103.062 58.98C103.289 59.1867 103.602 59.29 104.002 59.29C104.482 59.29 104.889 59.14 105.222 58.84C105.562 58.54 105.779 58.1033 105.872 57.53V57.56L106.412 54.52H107.322ZM111.549 54.42C112.116 54.42 112.569 54.5733 112.909 54.88C113.249 55.18 113.419 55.62 113.419 56.2C113.419 56.4133 113.402 56.6033 113.369 56.77L112.799 60H111.899L112.449 56.9C112.476 56.76 112.489 56.6133 112.489 56.46C112.489 56.0533 112.376 55.7433 112.149 55.53C111.929 55.3167 111.619 55.21 111.219 55.21C110.739 55.21 110.329 55.36 109.989 55.66C109.656 55.96 109.439 56.3967 109.339 56.97V56.95L108.799 60H107.889L108.859 54.52H109.769L109.629 55.31C109.856 55.0233 110.139 54.8033 110.479 54.65C110.819 54.4967 111.176 54.42 111.549 54.42ZM115.665 58.5C115.645 58.6 115.635 58.6867 115.635 58.76C115.635 58.9267 115.685 59.0467 115.785 59.12C115.892 59.1933 116.062 59.23 116.295 59.23H116.965L116.825 60H116.005C115.572 60 115.245 59.9167 115.025 59.75C114.812 59.5833 114.705 59.31 114.705 58.93C114.705 58.7833 114.719 58.64 114.745 58.5L115.315 55.27H114.615L114.745 54.52H115.455L115.695 53.14H116.615L116.375 54.52H117.795L117.665 55.27H116.235L115.665 58.5ZM123.758 54.52L122.788 60H121.878L122.018 59.2C121.798 59.48 121.518 59.6967 121.178 59.85C120.838 60.0033 120.485 60.08 120.118 60.08C119.545 60.08 119.085 59.9267 118.738 59.62C118.398 59.3067 118.228 58.86 118.228 58.28C118.228 58.1333 118.245 57.95 118.278 57.73L118.848 54.52H119.748L119.208 57.61C119.181 57.75 119.168 57.8967 119.168 58.05C119.168 58.4567 119.278 58.7667 119.498 58.98C119.725 59.1867 120.038 59.29 120.438 59.29C120.918 59.29 121.325 59.14 121.658 58.84C121.998 58.54 122.215 58.1033 122.308 57.53V57.56L122.848 54.52H123.758ZM126.524 57.26L128.624 60H127.384L125.664 57.59L125.234 60H124.324L125.634 52.6H126.544L125.774 56.94L128.314 54.52H129.574L126.524 57.26Z" fill="#20C694"/>
<path d="M135.859 53.03C136.853 53.03 137.623 53.27 138.169 53.75C138.723 54.23 138.999 54.8967 138.999 55.75C138.999 56.0167 138.976 56.2767 138.929 56.53C138.803 57.2433 138.543 57.8633 138.149 58.39C137.763 58.91 137.266 59.31 136.659 59.59C136.059 59.8633 135.379 60 134.619 60H132.449L133.689 53.03H135.859ZM134.749 59.3C135.643 59.3 136.369 59.0567 136.929 58.57C137.489 58.0767 137.846 57.3967 137.999 56.53C138.039 56.29 138.059 56.0633 138.059 55.85C138.059 55.19 137.863 54.68 137.469 54.32C137.076 53.9533 136.496 53.77 135.729 53.77H134.469L133.489 59.3H134.749ZM141.65 53.03L140.87 57.43C140.836 57.63 140.82 57.7933 140.82 57.92C140.82 58.3733 140.946 58.71 141.2 58.93C141.453 59.15 141.806 59.26 142.26 59.26C142.8 59.26 143.246 59.11 143.6 58.81C143.953 58.5033 144.186 58.0433 144.3 57.43L145.08 53.03H145.99L145.21 57.43C145.11 58.01 144.906 58.5 144.6 58.9C144.3 59.2933 143.933 59.5867 143.5 59.78C143.066 59.9733 142.603 60.07 142.11 60.07C141.45 60.07 140.916 59.9 140.51 59.56C140.103 59.22 139.9 58.72 139.9 58.06C139.9 57.86 139.92 57.65 139.96 57.43L140.74 53.03H141.65ZM151.748 60H150.838L148.168 54.45L147.178 60H146.268L147.508 53.02H148.418L151.098 58.56L152.078 53.02H152.988L151.748 60ZM155.449 53.03L154.209 60H153.299L154.539 53.03H155.449ZM160.16 58.45H157.11L156.28 60H155.32L159.06 53.07H160.11L161.4 60H160.44L160.16 58.45ZM160.03 57.74L159.39 54.18L157.49 57.74H160.03Z" fill="#40C1D7"/>
<path d="M26.4381 64.1122C27.7444 43.2507 16.9494 32.7579 12.842 44.4403C8.73449 56.1228 21.8269 75.712 43.6121 69.7271C43.9051 69.6475 44.2048 69.563 44.4962 69.4738C44.804 69.3841 45.117 69.2849 45.4351 69.1808C45.6833 69.1012 45.9266 69.0167 46.1759 68.9323C46.3 68.8875 46.4292 68.843 46.5533 68.7982L46.6426 68.7686C56.0701 65.3959 69.8382 57.0465 73.4245 44.9618C68.8689 66.6126 45.9722 82.1107 25.2996 78.3098H25.2896C18.7136 77.1028 12.3609 73.9394 6.89705 68.4008C-5.59466 55.7402 0.877308 38.5791 10.5779 35.0668C11.9402 34.5622 13.3628 34.2384 14.8094 34.1039C16.8957 33.8985 18.9991 34.2517 20.904 35.1272C20.9088 35.1272 20.9088 35.132 20.914 35.132C26.6507 37.7943 30.3271 42.8155 30.3271 56.5195C30.3271 56.5195 39.0035 29.1223 59.4221 14.425C60.9865 13.2976 62.6158 12.2198 64.3192 11.2064C68.9729 8.42404 73.9662 6.25374 79.1754 4.74927V4.88334C79.1733 8.1308 78.4652 11.339 77.1002 14.2856C75.7352 17.2323 73.7458 19.8469 71.2701 21.9485C70.1725 22.8864 68.9882 23.7179 67.7333 24.4318C67.6592 24.4767 67.5796 24.5163 67.5052 24.5611V24.5659C57.3605 30.369 49.7719 53.0009 26.4381 64.1122Z" fill="url(#paint0_linear_1464_154585)"/>
<path style="mix-blend-mode:color-dodge" d="M26.4381 64.1123C27.7444 43.2508 16.9494 32.758 12.842 44.4405C8.73449 56.1229 21.8269 75.7121 43.6121 69.7272C43.9051 69.6476 44.2048 69.5631 44.4962 69.4739C44.804 69.3843 45.117 69.285 45.4351 69.1809C45.6833 69.1013 45.9266 69.0168 46.1759 68.9324C46.3 68.8876 46.4292 68.8431 46.5533 68.7983L46.6426 68.7683C56.0701 65.396 69.8382 57.0466 73.4245 44.962C68.8689 66.6127 45.9722 82.1108 25.2996 78.31H25.2896C18.7136 77.1029 12.3609 73.9395 6.89705 68.4009C-5.59466 55.7403 0.877308 38.5793 10.5779 35.067C11.9402 34.5623 13.3628 34.2385 14.8094 34.104C16.8957 33.8986 18.9991 34.2518 20.904 35.1273C20.9088 35.1273 20.9088 35.1322 20.914 35.1322C26.6507 37.7948 29.6515 49.7161 30.3271 56.7048L26.4381 64.1123Z" fill="url(#paint1_radial_1464_154585)"/>
<path style="mix-blend-mode:color-dodge" d="M79.1752 4.74927V4.88334C64.319 11.2064 41.3516 31.5712 28.2899 59.8528C28.2899 59.8528 29.9629 40.0047 20.9131 35.132C26.6499 37.7943 28.7254 48.2345 29.401 55.2231C29.401 55.2231 39.0027 29.1223 59.4212 14.425C60.9857 13.2976 62.6149 12.2198 64.3183 11.2064C68.9723 8.42398 73.9658 6.25368 79.1752 4.74927Z" fill="url(#paint2_linear_1464_154585)"/>
<path d="M25.2886 78.31C18.7126 77.1029 12.3599 73.9395 6.89607 68.4009C-5.59563 55.7403 0.876331 38.5793 10.5769 35.067C11.9392 34.5623 13.3619 34.2385 14.8084 34.104C4.07009 35.6837 0.761885 48.0761 4.53195 59.2619C7.54682 68.1924 15.3896 76.2336 25.2886 78.31Z" fill="url(#paint3_linear_1464_154585)"/>
<path d="M26.2539 64.1883C26.2539 64.1883 26.955 64.1367 28.2104 63.9771C34.5198 63.1585 54.7424 59.5458 69.1408 45.6568C86.4061 29.0064 78.0641 16.8569 93.3664 3C90.9569 3.62388 88.6363 4.48709 86.4497 5.57289C79.6124 8.78024 68.69 15.6807 58.3479 29.8103C41.6047 52.6979 35.3983 59.5363 26.2539 64.1883Z" fill="url(#paint4_linear_1464_154585)"/>
<path d="M26.2539 64.1883C35.3994 59.5363 41.6058 52.6979 58.3485 29.8103C68.6906 15.6807 79.6129 8.78024 86.4503 5.57289C88.6365 4.48715 90.9567 3.62394 93.3659 3C93.3659 3 55.9606 3.92186 40.2069 24.0386C26.138 42.0209 33.2051 55.3224 28.4892 62.0624C27.9126 62.8945 27.1527 63.6173 26.2539 64.1883Z" fill="url(#paint5_linear_1464_154585)"/>
<path d="M26.2529 64.1883C26.2529 64.1883 26.954 64.1377 28.2094 63.98C28.8123 63.6311 29.571 63.1751 30.4312 62.5913C31.7386 61.701 32.9763 60.7345 34.136 59.6983C35.4264 58.5416 36.7595 57.2135 38.0931 55.7595C40.7663 52.8475 43.5397 49.4394 46.4852 45.7936C49.4161 42.1479 52.5417 38.2611 55.6657 34.3738C57.235 32.4325 58.8123 30.4818 60.3892 28.5917C61.9795 26.6977 63.6064 24.8384 65.2555 23.0605C68.3237 19.7176 71.6525 16.5658 75.218 13.6278C76.8358 12.3092 78.4142 11.1482 79.8832 10.1676C81.1555 9.31346 82.4838 8.52565 83.8614 7.80826C84.7447 7.34683 85.6637 6.94022 86.6116 6.59141C86.9411 6.47541 87.1854 6.40202 87.3504 6.35467C87.4279 6.33053 87.507 6.31045 87.5872 6.29454C87.6521 6.28274 87.7123 6.25581 87.7614 6.21658C87.8104 6.17734 87.8465 6.12724 87.866 6.07153C87.8805 5.97684 87.7797 5.92949 87.6373 5.95979C87.5403 5.97779 87.4447 6.00104 87.351 6.02939C87.1638 6.081 86.892 6.15487 86.548 6.27608C86.5194 6.28555 86.4838 6.2988 86.4472 6.31348C85.4841 6.65349 84.55 7.05366 83.6521 7.51091C82.2177 8.22942 80.8341 9.02347 79.5089 9.88873C77.9893 10.8736 76.3558 12.0435 74.6711 13.3674C70.983 16.3159 67.5277 19.4813 64.3291 22.8417C62.6158 24.6296 60.9247 26.4922 59.2599 28.3956C57.5952 30.299 55.9995 32.237 54.3725 34.1778C51.1477 38.0513 47.9294 41.9248 44.9041 45.556C41.8788 49.1871 39.0347 52.5592 36.3761 55.3688C35.0425 56.7713 33.7525 58.0255 32.5273 59.0838C31.4663 60.0096 30.336 60.8721 29.1439 61.6656C28.9148 61.8148 28.6926 61.9587 28.485 62.0885C27.9076 62.9119 27.1487 63.6258 26.2529 64.1883Z" fill="url(#paint6_linear_1464_154585)"/>
<defs>
<linearGradient id="paint0_linear_1464_154585" x1="19.0028" y1="64.4281" x2="63.2002" y2="22.3208" gradientUnits="userSpaceOnUse">
<stop stop-color="#20C694"/>
<stop offset="0.945" stop-color="#008603"/>
</linearGradient>
<radialGradient id="paint1_radial_1464_154585" cx="0" cy="0" r="1" gradientUnits="userSpaceOnUse" gradientTransform="translate(1.15526 19.5646) scale(44.6375 44.6133)">
<stop stop-color="white"/>
<stop offset="0.145" stop-color="#C0BDBD"/>
<stop offset="0.308" stop-color="#807B7B"/>
<stop offset="0.457" stop-color="#4D4646"/>
<stop offset="0.584" stop-color="#281F1F"/>
<stop offset="0.686" stop-color="#120808"/>
<stop offset="0.75" stop-color="#0A0000"/>
</radialGradient>
<linearGradient id="paint2_linear_1464_154585" x1="69.3289" y1="-24.4383" x2="39.2539" y2="61.2017" gradientUnits="userSpaceOnUse">
<stop stop-color="white"/>
<stop offset="1" stop-color="white" stop-opacity="0"/>
</linearGradient>
<linearGradient id="paint3_linear_1464_154585" x1="28.6267" y1="26.4122" x2="-6.15759" y2="52.5908" gradientUnits="userSpaceOnUse">
<stop stop-color="white"/>
<stop offset="1" stop-color="white" stop-opacity="0"/>
</linearGradient>
<linearGradient id="paint4_linear_1464_154585" x1="96.9905" y1="23.9264" x2="-78.3414" y2="85.6208" gradientUnits="userSpaceOnUse">
<stop stop-color="#A4D672"/>
<stop offset="0.432" stop-color="#20C694"/>
<stop offset="0.655" stop-color="#189113"/>
<stop offset="1" stop-color="#008603"/>
</linearGradient>
<linearGradient id="paint5_linear_1464_154585" x1="45.9848" y1="13.1573" x2="63.8311" y2="44.8607" gradientUnits="userSpaceOnUse">
<stop stop-color="#189113"/>
<stop offset="0.289" stop-color="#55AF3D"/>
<stop offset="1" stop-color="#20C694"/>
</linearGradient>
<linearGradient id="paint6_linear_1464_154585" x1="58.6621" y1="36.9914" x2="75.2109" y2="58.6943" gradientUnits="userSpaceOnUse">
<stop stop-color="#A4D672"/>
<stop offset="0.369" stop-color="#55AF3D"/>
<stop offset="0.763" stop-color="#20C694"/>
<stop offset="1" stop-color="#20C694"/>
</linearGradient>
</defs>
</svg>
